<svg xmlns="http://www.w3.org/2000/svg" xmlns:xlink="http://www.w3.org/1999/xlink" width="1080" zoomAndPan="magnify" viewBox="0 0 810 809.999993" height="1080" preserveAspectRatio="xMidYMid meet" version="1.0"><defs><clipPath id="ae548c42c6"><path d="M 181 81 L 630.878906 81 L 630.878906 528 L 181 528 Z M 181 81 " clip-rule="nonzero"/></clipPath><clipPath id="f394d89aae"><path d="M 179.378906 81 L 630 81 L 630 528 L 179.378906 528 Z M 179.378906 81 " clip-rule="nonzero"/></clipPath><clipPath id="d04ea83247"><path d="M 179.378906 81 L 630 81 L 630 729 L 179.378906 729 Z M 179.378906 81 " clip-rule="nonzero"/></clipPath><clipPath id="a3d8df073e"><path d="M 179.378906 282 L 630 282 L 630 729 L 179.378906 729 Z M 179.378906 282 " clip-rule="nonzero"/></clipPath><clipPath id="e7db9b8d00"><path d="M 181 81 L 630.878906 81 L 630.878906 729 L 181 729 Z M 181 81 " clip-rule="nonzero"/></clipPath></defs><g clip-path="url(#ae548c42c6)"><path stroke-linecap="butt" transform="matrix(2.625, 0, 0, 2.623433, 179.380557, 81.006045)" fill="none" stroke-linejoin="miter" d="M 163.999379 46.500163 C 163.999379 67.762858 146.762771 84.99934 125.499378 84.99934 L 85.999376 84.99934 L 85.999376 7.999497 L 125.499378 7.999497 C 146.762771 7.999497 163.999379 25.237468 163.999379 46.500163 Z M 163.999379 46.500163 " stroke="#ffffff" stroke-width="15.081" stroke-opacity="1" stroke-miterlimit="4"/></g><g clip-path="url(#f394d89aae)"><path stroke-linecap="butt" transform="matrix(2.625, 0, 0, 2.623433, 179.380557, 81.006045)" fill="none" stroke-linejoin="miter" d="M 7.999372 46.500163 C 7.999372 67.762858 25.237468 84.99934 46.499374 84.99934 L 85.999376 84.99934 L 85.999376 7.999497 L 46.499374 7.999497 C 25.237468 7.999497 7.999372 25.237468 7.999372 46.500163 Z M 7.999372 46.500163 " stroke="#ffffff" stroke-width="15.081" stroke-opacity="1" stroke-miterlimit="4"/></g><g clip-path="url(#d04ea83247)"><path stroke-linecap="butt" transform="matrix(2.625, 0, 0, 2.623433, 179.380557, 81.006045)" fill="none" stroke-linejoin="miter" d="M 7.999372 123.501495 C 7.999372 144.76419 25.237468 162.000671 46.499374 162.000671 L 85.999376 162.000671 L 85.999376 85.000829 L 46.499374 85.000829 C 25.237468 85.000829 7.999372 102.237311 7.999372 123.501495 Z M 7.999372 123.501495 " stroke="#ffffff" stroke-width="15.081" stroke-opacity="1" stroke-miterlimit="4"/></g><g clip-path="url(#a3d8df073e)"><path stroke-linecap="butt" transform="matrix(2.625, 0, 0, 2.623433, 179.380557, 81.006045)" fill="none" stroke-linejoin="miter" d="M 7.999372 200.499848 C 7.999372 221.762543 25.48598 239.000514 46.747885 239.000514 C 68.288065 239.000514 85.999376 221.539196 85.999376 199.99955 L 85.999376 162.000671 L 46.499374 162.000671 C 25.237468 162.000671 7.999372 179.237153 7.999372 200.499848 Z M 7.999372 200.499848 " stroke="#ffffff" stroke-width="15.081" stroke-opacity="1" stroke-miterlimit="4"/></g><g clip-path="url(#e7db9b8d00)"><path stroke-linecap="butt" transform="matrix(2.625, 0, 0, 2.623433, 179.380557, 81.006045)" fill="none" stroke-linejoin="miter" d="M 85.999376 123.501495 C 85.999376 144.76419 103.237472 162.000671 124.499377 162.000671 L 125.499378 162.000671 C 146.762771 162.000671 163.999379 144.76419 163.999379 123.501495 C 163.999379 102.237311 146.762771 85.000829 125.499378 85.000829 L 124.499377 85.000829 C 103.237472 85.000829 85.999376 102.237311 85.999376 123.501495 Z M 85.999376 123.501495 " stroke="#ffffff" stroke-width="15.081" stroke-opacity="1" stroke-miterlimit="4"/></g></svg>