<svg xmlns="http://www.w3.org/2000/svg" xmlns:xlink="http://www.w3.org/1999/xlink" width="1080" zoomAndPan="magnify" viewBox="0 0 810 809.999993" height="1080" preserveAspectRatio="xMidYMid meet" version="1.0"><defs><clipPath id="02989478c9"><path d="M 93.828125 100.175781 L 714 100.175781 L 714 709.925781 L 93.828125 709.925781 Z M 93.828125 100.175781 " clip-rule="nonzero"/></clipPath></defs><g clip-path="url(#02989478c9)"><path fill="#ffffff" d="M 404.148438 100.183594 C 232.550781 100.183594 93.828125 239.914062 93.828125 412.78125 C 93.828125 550.964844 182.710938 667.933594 306.015625 709.332031 C 321.433594 712.445312 327.082031 702.605469 327.082031 694.328125 C 327.082031 687.082031 326.570312 662.242188 326.570312 636.359375 C 240.246094 654.996094 222.273438 599.097656 222.273438 599.097656 C 208.398438 562.867188 187.84375 553.554688 187.84375 553.554688 C 159.589844 534.40625 189.902344 534.40625 189.902344 534.40625 C 221.242188 536.476562 237.6875 566.492188 237.6875 566.492188 C 265.425781 614.105469 310.125 600.652344 328.109375 592.371094 C 330.675781 572.183594 338.902344 558.210938 347.636719 550.449219 C 278.785156 543.203125 206.347656 516.292969 206.347656 396.21875 C 206.347656 362.058594 218.671875 334.113281 238.195312 312.378906 C 235.117188 304.617188 224.324219 272.523438 241.285156 229.566406 C 241.285156 229.566406 267.484375 221.285156 326.566406 261.65625 C 351.96875 254.78125 377.832031 251.332031 404.148438 251.300781 C 430.351562 251.300781 457.0625 254.929688 481.726562 261.65625 C 540.8125 221.285156 567.015625 229.566406 567.015625 229.566406 C 583.976562 272.523438 573.175781 304.617188 570.097656 312.378906 C 590.136719 334.113281 601.953125 362.058594 601.953125 396.21875 C 601.953125 516.292969 529.511719 542.683594 460.148438 550.449219 C 471.457031 560.28125 481.210938 578.910156 481.210938 608.414062 C 481.210938 650.332031 480.703125 683.976562 480.703125 694.324219 C 480.703125 702.605469 486.359375 712.445312 501.769531 709.339844 C 625.074219 667.925781 713.957031 550.964844 713.957031 412.78125 C 714.464844 239.914062 575.234375 100.183594 404.148438 100.183594 Z M 404.148438 100.183594 " fill-opacity="1" fill-rule="evenodd"/></g></svg>