<svg xmlns="http://www.w3.org/2000/svg" xmlns:xlink="http://www.w3.org/1999/xlink" width="1080" zoomAndPan="magnify" viewBox="0 0 810 809.999993" height="1080" preserveAspectRatio="xMidYMid meet" version="1.0"><path fill="#ffffff" d="M 663.992188 434.179688 L 636.246094 348.695312 C 636.261719 348.734375 636.265625 348.777344 636.277344 348.8125 C 636.261719 348.769531 636.253906 348.726562 636.242188 348.679688 C 636.242188 348.675781 636.242188 348.675781 636.242188 348.671875 C 636.242188 348.671875 636.242188 348.667969 636.242188 348.667969 L 581.167969 179.03125 C 578.152344 170.09375 569.863281 164.097656 560.359375 164.167969 C 550.828125 164.21875 542.765625 170.101562 539.816406 179.160156 L 487.539062 340.179688 L 322.589844 340.179688 L 270.210938 179.148438 C 267.265625 170.097656 259.203125 164.21875 249.671875 164.167969 C 249.636719 164.167969 249.597656 164.167969 249.558594 164.167969 C 240.175781 164.167969 231.867188 170.128906 228.824219 179.164062 L 173.898438 348.652344 L 173.890625 348.675781 C 173.890625 348.675781 173.890625 348.675781 173.890625 348.679688 C 173.875 348.722656 173.871094 348.765625 173.855469 348.808594 C 173.871094 348.769531 173.875 348.730469 173.886719 348.691406 L 146.042969 434.179688 C 141.851562 447.085938 146.398438 461.113281 157.355469 469.085938 L 397.785156 643.859375 C 397.820312 643.886719 397.859375 643.898438 397.894531 643.925781 C 397.996094 644 398.097656 644.074219 398.203125 644.144531 C 398.105469 644.078125 398.011719 644.007812 397.914062 643.9375 C 397.929688 643.949219 397.945312 643.957031 397.964844 643.96875 C 397.976562 643.976562 397.992188 643.984375 398.003906 643.992188 C 398.007812 643.992188 398.007812 643.996094 398.011719 643.996094 C 398.382812 644.253906 398.769531 644.492188 399.167969 644.710938 C 399.222656 644.738281 399.273438 644.777344 399.328125 644.808594 C 399.332031 644.808594 399.332031 644.808594 399.332031 644.808594 C 399.367188 644.824219 399.394531 644.847656 399.429688 644.863281 C 399.457031 644.875 399.484375 644.882812 399.507812 644.898438 C 399.527344 644.90625 399.546875 644.914062 399.566406 644.917969 C 399.609375 644.941406 399.660156 644.957031 399.703125 644.976562 C 399.914062 645.078125 400.132812 645.160156 400.347656 645.246094 C 400.550781 645.332031 400.746094 645.425781 400.949219 645.5 C 400.960938 645.503906 400.96875 645.507812 400.976562 645.511719 C 401.011719 645.523438 401.042969 645.539062 401.078125 645.550781 C 401.121094 645.566406 401.160156 645.585938 401.203125 645.597656 C 401.222656 645.601562 401.238281 645.605469 401.253906 645.609375 C 401.308594 645.628906 401.367188 645.636719 401.421875 645.648438 C 401.441406 645.65625 401.464844 645.660156 401.484375 645.664062 C 401.773438 645.753906 402.074219 645.816406 402.371094 645.882812 C 402.488281 645.910156 402.601562 645.945312 402.71875 645.96875 C 402.738281 645.96875 402.75 645.976562 402.769531 645.980469 C 402.808594 645.988281 402.84375 646 402.882812 646.007812 C 402.945312 646.019531 403.007812 646.039062 403.074219 646.046875 C 403.125 646.054688 403.175781 646.050781 403.226562 646.058594 C 403.234375 646.0625 403.242188 646.058594 403.253906 646.0625 C 403.257812 646.0625 403.257812 646.0625 403.261719 646.0625 C 403.828125 646.140625 404.402344 646.199219 404.988281 646.199219 C 404.992188 646.199219 404.996094 646.199219 405 646.199219 C 405 646.199219 405.003906 646.199219 405.003906 646.199219 C 405.003906 646.199219 405.007812 646.199219 405.007812 646.199219 C 405.59375 646.199219 406.171875 646.140625 406.738281 646.0625 C 406.742188 646.0625 406.742188 646.0625 406.746094 646.0625 C 406.753906 646.058594 406.765625 646.0625 406.773438 646.058594 C 406.824219 646.050781 406.878906 646.054688 406.929688 646.046875 C 406.992188 646.035156 407.054688 646.019531 407.117188 646.007812 C 407.15625 646 407.191406 645.988281 407.230469 645.980469 C 407.246094 645.976562 407.261719 645.96875 407.28125 645.96875 C 407.398438 645.945312 407.515625 645.90625 407.636719 645.882812 C 407.929688 645.816406 408.222656 645.753906 408.511719 645.667969 C 408.53125 645.660156 408.550781 645.660156 408.570312 645.652344 C 408.628906 645.636719 408.6875 645.628906 408.742188 645.613281 C 408.761719 645.605469 408.777344 645.605469 408.796875 645.597656 C 408.839844 645.585938 408.882812 645.566406 408.925781 645.550781 C 408.960938 645.539062 408.992188 645.523438 409.023438 645.511719 C 409.035156 645.507812 409.042969 645.503906 409.050781 645.5 C 409.269531 645.421875 409.476562 645.320312 409.6875 645.234375 C 409.886719 645.152344 410.089844 645.078125 410.285156 644.984375 C 410.332031 644.960938 410.382812 644.949219 410.429688 644.925781 C 410.445312 644.914062 410.46875 644.910156 410.488281 644.898438 C 410.511719 644.886719 410.539062 644.878906 410.566406 644.867188 C 410.601562 644.847656 410.636719 644.824219 410.667969 644.808594 C 410.667969 644.808594 410.671875 644.808594 410.671875 644.808594 C 410.726562 644.777344 410.777344 644.738281 410.835938 644.707031 C 411.230469 644.492188 411.617188 644.253906 411.988281 644 C 412.015625 643.980469 412.050781 643.964844 412.082031 643.941406 C 412.089844 643.9375 412.097656 643.933594 412.105469 643.925781 C 412.140625 643.898438 412.183594 643.882812 412.21875 643.855469 L 652.683594 469.082031 C 663.632812 461.113281 668.179688 447.085938 663.992188 434.179688 Z M 560.511719 194.921875 L 607.671875 340.179688 L 513.355469 340.179688 Z M 599.414062 364.742188 L 580.167969 389.410156 L 438.242188 571.347656 L 505.378906 364.742188 Z M 393.328125 637.71875 C 393.339844 637.753906 393.359375 637.789062 393.371094 637.828125 C 393.359375 637.789062 393.339844 637.753906 393.328125 637.71875 Z M 371.792969 571.363281 L 210.710938 364.742188 L 304.75 364.742188 Z M 249.523438 194.921875 L 296.769531 340.179688 L 202.453125 340.179688 Z M 171.792969 449.21875 C 169.460938 447.523438 168.496094 444.527344 169.386719 441.777344 L 190.085938 378.226562 L 341.753906 572.765625 Z M 397.363281 643.535156 C 397.3125 643.496094 397.265625 643.453125 397.222656 643.414062 C 397.210938 643.40625 397.203125 643.394531 397.191406 643.386719 C 397.101562 643.3125 397.007812 643.234375 396.921875 643.152344 C 396.746094 643 396.574219 642.84375 396.410156 642.683594 C 396.421875 642.695312 396.4375 642.707031 396.453125 642.71875 C 396.46875 642.734375 396.488281 642.75 396.507812 642.765625 C 396.859375 643.101562 397.230469 643.417969 397.617188 643.710938 C 397.621094 643.714844 397.625 643.71875 397.628906 643.722656 C 397.648438 643.734375 397.664062 643.753906 397.683594 643.769531 C 397.578125 643.691406 397.464844 643.617188 397.363281 643.535156 Z M 405.007812 594.175781 L 365.558594 472.59375 L 330.5625 364.742188 L 479.5625 364.742188 Z M 413.082031 643.152344 C 412.992188 643.234375 412.902344 643.3125 412.808594 643.390625 C 412.796875 643.398438 412.785156 643.410156 412.777344 643.417969 C 412.726562 643.457031 412.683594 643.5 412.636719 643.539062 C 412.535156 643.617188 412.425781 643.691406 412.320312 643.769531 C 412.335938 643.757812 412.351562 643.738281 412.371094 643.726562 C 412.375 643.722656 412.378906 643.71875 412.382812 643.71875 C 412.769531 643.425781 413.136719 643.109375 413.488281 642.773438 C 413.5 642.761719 413.519531 642.75 413.53125 642.738281 C 413.550781 642.722656 413.570312 642.707031 413.585938 642.691406 C 413.425781 642.847656 413.253906 643.003906 413.082031 643.152344 Z M 638.246094 449.214844 L 468.308594 572.730469 L 620.027344 378.242188 L 640.640625 441.765625 C 641.535156 444.527344 640.574219 447.523438 638.246094 449.214844 Z M 638.246094 449.214844 " fill-opacity="1" fill-rule="nonzero"/></svg>