<svg xmlns="http://www.w3.org/2000/svg" xmlns:xlink="http://www.w3.org/1999/xlink" width="1080" zoomAndPan="magnify" viewBox="0 0 810 809.999993" height="1080" preserveAspectRatio="xMidYMid meet" version="1.0"><defs><clipPath id="0d81e19e82"><path d="M 94.894531 94.894531 L 715.144531 94.894531 L 715.144531 715.144531 L 94.894531 715.144531 Z M 94.894531 94.894531 " clip-rule="nonzero"/></clipPath></defs><g clip-path="url(#0d81e19e82)"><path fill="#ffffff" d="M 276.578125 97.066406 C 243.582031 98.621094 221.046875 103.886719 201.347656 111.628906 C 180.960938 119.574219 163.679688 130.238281 146.488281 147.492188 C 129.292969 164.746094 118.707031 182.039062 110.816406 202.457031 C 103.179688 222.203125 98.007812 244.753906 96.550781 277.769531 C 95.09375 310.785156 94.769531 321.398438 94.933594 405.617188 C 95.09375 489.832031 95.464844 500.390625 97.066406 533.472656 C 98.640625 566.464844 103.886719 588.992188 111.628906 608.699219 C 119.585938 629.085938 130.238281 646.359375 147.5 663.558594 C 164.761719 680.757812 182.039062 691.320312 202.507812 699.222656 C 222.230469 706.847656 244.789062 712.042969 277.800781 713.488281 C 310.808594 714.933594 321.433594 715.269531 405.628906 715.109375 C 489.820312 714.945312 500.421875 714.574219 533.5 713.003906 C 566.578125 711.4375 588.984375 706.152344 608.699219 698.449219 C 629.085938 690.472656 646.371094 679.839844 663.558594 662.574219 C 680.746094 645.304688 691.328125 628 699.210938 607.570312 C 706.851562 587.84375 712.042969 565.285156 713.476562 532.300781 C 714.921875 499.199219 715.261719 488.628906 715.101562 404.425781 C 714.941406 320.21875 714.5625 309.664062 712.992188 276.589844 C 711.421875 243.519531 706.167969 221.058594 698.433594 201.34375 C 690.464844 180.953125 679.828125 163.691406 662.574219 146.480469 C 645.316406 129.269531 628 118.695312 607.574219 110.828125 C 587.839844 103.195312 565.292969 97.988281 532.28125 96.5625 C 499.273438 95.136719 488.648438 94.769531 404.425781 94.933594 C 320.199219 95.09375 309.65625 95.453125 276.578125 97.066406 M 280.199219 657.699219 C 249.964844 656.382812 233.546875 651.359375 222.605469 647.152344 C 208.117188 641.570312 197.792969 634.824219 186.890625 624.023438 C 175.988281 613.226562 169.289062 602.867188 163.632812 588.410156 C 159.382812 577.46875 154.265625 561.070312 152.851562 530.832031 C 151.3125 498.152344 150.992188 488.339844 150.808594 405.542969 C 150.628906 322.742188 150.945312 312.945312 152.378906 280.25 C 153.667969 250.039062 158.726562 233.601562 162.925781 222.667969 C 168.507812 208.160156 175.230469 197.855469 186.054688 186.957031 C 196.875 176.0625 207.203125 169.351562 221.675781 163.691406 C 232.601562 159.425781 249.003906 154.351562 279.226562 152.914062 C 311.933594 151.363281 321.734375 151.050781 404.515625 150.871094 C 487.300781 150.691406 497.128906 151.003906 529.84375 152.441406 C 560.058594 153.757812 576.5 158.761719 587.421875 162.984375 C 601.917969 168.566406 612.234375 175.273438 623.132812 186.113281 C 634.027344 196.957031 640.746094 207.246094 646.402344 221.75 C 650.675781 232.644531 655.75 249.039062 657.175781 279.28125 C 658.734375 311.988281 659.085938 321.792969 659.234375 404.574219 C 659.382812 487.351562 659.09375 497.183594 657.660156 529.863281 C 656.339844 560.101562 651.328125 576.523438 647.117188 587.480469 C 641.535156 601.960938 634.804688 612.289062 623.972656 623.179688 C 613.144531 634.070312 602.832031 640.785156 588.351562 646.441406 C 577.4375 650.699219 561.019531 655.785156 530.820312 657.226562 C 498.113281 658.765625 488.3125 659.085938 405.496094 659.265625 C 322.683594 659.445312 312.914062 659.113281 280.207031 657.699219 M 533.019531 239.269531 C 533.023438 240.488281 533.085938 241.707031 533.207031 242.917969 C 533.328125 244.132812 533.507812 245.335938 533.75 246.53125 C 533.988281 247.726562 534.285156 248.90625 534.640625 250.070312 C 534.996094 251.238281 535.410156 252.382812 535.878906 253.507812 C 536.347656 254.632812 536.867188 255.734375 537.445312 256.808594 C 538.023438 257.882812 538.648438 258.925781 539.328125 259.9375 C 540.007812 260.949219 540.734375 261.925781 541.507812 262.867188 C 542.285156 263.808594 543.101562 264.707031 543.964844 265.570312 C 544.828125 266.429688 545.734375 267.246094 546.675781 268.015625 C 547.621094 268.789062 548.597656 269.511719 549.613281 270.1875 C 550.628906 270.863281 551.675781 271.488281 552.75 272.058594 C 553.828125 272.632812 554.925781 273.152344 556.054688 273.617188 C 557.179688 274.078125 558.328125 274.488281 559.496094 274.839844 C 560.664062 275.191406 561.84375 275.484375 563.039062 275.722656 C 564.234375 275.957031 565.441406 276.132812 566.652344 276.25 C 567.867188 276.367188 569.082031 276.425781 570.300781 276.421875 C 571.519531 276.421875 572.738281 276.359375 573.949219 276.238281 C 575.164062 276.117188 576.367188 275.933594 577.5625 275.695312 C 578.757812 275.457031 579.9375 275.15625 581.101562 274.800781 C 582.269531 274.445312 583.414062 274.035156 584.539062 273.566406 C 585.664062 273.097656 586.765625 272.574219 587.839844 271.996094 C 588.914062 271.421875 589.957031 270.792969 590.96875 270.113281 C 591.980469 269.433594 592.957031 268.707031 593.898438 267.933594 C 594.839844 267.15625 595.738281 266.339844 596.597656 265.476562 C 597.460938 264.613281 598.277344 263.707031 599.046875 262.765625 C 599.820312 261.820312 600.542969 260.839844 601.21875 259.828125 C 601.890625 258.8125 602.515625 257.765625 603.089844 256.691406 C 603.660156 255.613281 604.179688 254.511719 604.644531 253.386719 C 605.109375 252.257812 605.515625 251.113281 605.867188 249.945312 C 606.21875 248.777344 606.515625 247.597656 606.75 246.398438 C 606.984375 245.203125 607.160156 244 607.277344 242.785156 C 607.394531 241.574219 607.453125 240.355469 607.449219 239.136719 C 607.449219 237.917969 607.386719 236.703125 607.265625 235.492188 C 607.144531 234.277344 606.960938 233.074219 606.722656 231.878906 C 606.480469 230.683594 606.183594 229.503906 605.828125 228.335938 C 605.472656 227.171875 605.058594 226.027344 604.589844 224.902344 C 604.121094 223.777344 603.597656 222.675781 603.023438 221.601562 C 602.445312 220.527344 601.816406 219.484375 601.140625 218.472656 C 600.460938 217.460938 599.734375 216.484375 598.957031 215.542969 C 598.183594 214.601562 597.363281 213.703125 596.5 212.84375 C 595.636719 211.980469 594.734375 211.167969 593.789062 210.394531 C 592.84375 209.625 591.867188 208.898438 590.851562 208.226562 C 589.835938 207.550781 588.789062 206.925781 587.714844 206.351562 C 586.636719 205.78125 585.535156 205.261719 584.410156 204.796875 C 583.28125 204.335938 582.136719 203.925781 580.96875 203.574219 C 579.800781 203.222656 578.621094 202.929688 577.421875 202.695312 C 576.226562 202.457031 575.023438 202.28125 573.808594 202.164062 C 572.597656 202.046875 571.378906 201.992188 570.160156 201.992188 C 568.941406 201.996094 567.726562 202.058594 566.515625 202.179688 C 565.300781 202.300781 564.097656 202.484375 562.902344 202.722656 C 561.710938 202.964844 560.53125 203.261719 559.363281 203.617188 C 558.199219 203.972656 557.054688 204.386719 555.929688 204.855469 C 554.804688 205.320312 553.703125 205.84375 552.628906 206.421875 C 551.558594 206.996094 550.515625 207.625 549.503906 208.304688 C 548.492188 208.984375 547.515625 209.710938 546.574219 210.484375 C 545.632812 211.257812 544.734375 212.078125 543.871094 212.941406 C 543.011719 213.804688 542.195312 214.707031 541.425781 215.652344 C 540.652344 216.59375 539.929688 217.574219 539.253906 218.589844 C 538.582031 219.601562 537.957031 220.648438 537.382812 221.722656 C 536.8125 222.800781 536.292969 223.902344 535.828125 225.027344 C 535.363281 226.152344 534.957031 227.300781 534.605469 228.46875 C 534.253906 229.632812 533.960938 230.816406 533.722656 232.011719 C 533.488281 233.207031 533.3125 234.410156 533.195312 235.625 C 533.078125 236.835938 533.019531 238.050781 533.019531 239.269531 M 245.78125 405.332031 C 245.957031 493.28125 317.386719 564.417969 405.316406 564.25 C 493.25 564.082031 564.4375 492.660156 564.269531 404.710938 C 564.101562 316.757812 492.65625 245.601562 404.710938 245.777344 C 316.765625 245.949219 245.617188 317.390625 245.78125 405.332031 M 301.644531 405.21875 C 301.640625 403.527344 301.675781 401.835938 301.757812 400.144531 C 301.835938 398.457031 301.957031 396.769531 302.121094 395.085938 C 302.28125 393.402344 302.488281 391.722656 302.730469 390.046875 C 302.976562 388.375 303.261719 386.707031 303.589844 385.046875 C 303.917969 383.386719 304.285156 381.734375 304.691406 380.09375 C 305.097656 378.453125 305.546875 376.820312 306.035156 375.199219 C 306.523438 373.582031 307.050781 371.972656 307.617188 370.378906 C 308.183594 368.785156 308.789062 367.207031 309.433594 365.640625 C 310.078125 364.078125 310.761719 362.53125 311.480469 361 C 312.199219 359.46875 312.957031 357.957031 313.753906 356.460938 C 314.546875 354.96875 315.378906 353.496094 316.246094 352.042969 C 317.113281 350.589844 318.015625 349.160156 318.953125 347.75 C 319.886719 346.34375 320.859375 344.957031 321.863281 343.597656 C 322.871094 342.234375 323.90625 340.902344 324.980469 339.589844 C 326.050781 338.28125 327.152344 336.996094 328.285156 335.742188 C 329.417969 334.484375 330.582031 333.257812 331.777344 332.058594 C 332.96875 330.863281 334.191406 329.691406 335.445312 328.554688 C 336.695312 327.414062 337.972656 326.308594 339.28125 325.230469 C 340.585938 324.15625 341.917969 323.113281 343.273438 322.101562 C 344.628906 321.09375 346.011719 320.117188 347.417969 319.171875 C 348.820312 318.230469 350.25 317.324219 351.699219 316.449219 C 353.148438 315.578125 354.617188 314.742188 356.109375 313.941406 C 357.597656 313.140625 359.109375 312.375 360.636719 311.648438 C 362.164062 310.921875 363.707031 310.234375 365.269531 309.585938 C 366.832031 308.933594 368.410156 308.320312 370 307.75 C 371.59375 307.175781 373.195312 306.640625 374.816406 306.148438 C 376.433594 305.652344 378.0625 305.199219 379.703125 304.785156 C 381.34375 304.371094 382.992188 303.996094 384.652344 303.664062 C 386.308594 303.328125 387.976562 303.039062 389.648438 302.785156 C 391.320312 302.535156 393 302.324219 394.683594 302.15625 C 396.367188 301.984375 398.054688 301.859375 399.742188 301.773438 C 401.433594 301.683594 403.125 301.640625 404.816406 301.636719 C 406.507812 301.632812 408.199219 301.671875 409.886719 301.75 C 411.578125 301.832031 413.265625 301.953125 414.949219 302.113281 C 416.632812 302.277344 418.3125 302.480469 419.984375 302.726562 C 421.660156 302.972656 423.328125 303.257812 424.988281 303.582031 C 426.648438 303.910156 428.296875 304.277344 429.941406 304.683594 C 431.582031 305.09375 433.210938 305.542969 434.832031 306.027344 C 436.453125 306.515625 438.058594 307.042969 439.652344 307.609375 C 441.246094 308.179688 442.828125 308.785156 444.390625 309.429688 C 445.957031 310.070312 447.503906 310.753906 449.035156 311.476562 C 450.566406 312.195312 452.078125 312.953125 453.570312 313.746094 C 455.0625 314.542969 456.539062 315.371094 457.992188 316.238281 C 459.441406 317.105469 460.875 318.007812 462.28125 318.945312 C 463.691406 319.882812 465.074219 320.855469 466.4375 321.859375 C 467.796875 322.863281 469.132812 323.902344 470.441406 324.972656 C 471.753906 326.042969 473.035156 327.144531 474.292969 328.28125 C 475.546875 329.414062 476.773438 330.578125 477.972656 331.769531 C 479.171875 332.964844 480.339844 334.1875 481.480469 335.4375 C 482.617188 336.691406 483.726562 337.96875 484.800781 339.273438 C 485.878906 340.578125 486.921875 341.910156 487.929688 343.269531 C 488.941406 344.625 489.917969 346.003906 490.859375 347.410156 C 491.804688 348.816406 492.710938 350.242188 493.582031 351.691406 C 494.457031 353.140625 495.292969 354.613281 496.09375 356.101562 C 496.894531 357.59375 497.65625 359.101562 498.382812 360.628906 C 499.109375 362.15625 499.796875 363.703125 500.449219 365.265625 C 501.101562 366.824219 501.710938 368.402344 502.285156 369.996094 C 502.859375 371.585938 503.390625 373.191406 503.886719 374.808594 C 504.378906 376.425781 504.835938 378.054688 505.25 379.695312 C 505.664062 381.335938 506.035156 382.988281 506.371094 384.644531 C 506.703125 386.304688 506.996094 387.96875 507.246094 389.644531 C 507.5 391.316406 507.710938 392.992188 507.878906 394.675781 C 508.046875 396.359375 508.175781 398.046875 508.261719 399.738281 C 508.347656 401.425781 508.394531 403.117188 508.398438 404.808594 C 508.398438 406.5 508.363281 408.191406 508.28125 409.882812 C 508.203125 411.570312 508.082031 413.257812 507.917969 414.941406 C 507.757812 416.625 507.550781 418.304688 507.308594 419.980469 C 507.0625 421.652344 506.777344 423.320312 506.449219 424.980469 C 506.125 426.640625 505.757812 428.292969 505.347656 429.933594 C 504.941406 431.574219 504.492188 433.207031 504.003906 434.828125 C 503.515625 436.445312 502.988281 438.054688 502.421875 439.648438 C 501.855469 441.242188 501.25 442.820312 500.605469 444.386719 C 499.960938 445.949219 499.277344 447.496094 498.558594 449.027344 C 497.839844 450.558594 497.082031 452.070312 496.285156 453.566406 C 495.492188 455.058594 494.660156 456.53125 493.792969 457.984375 C 492.925781 459.4375 492.023438 460.867188 491.089844 462.277344 C 490.152344 463.683594 489.179688 465.070312 488.175781 466.429688 C 487.167969 467.792969 486.132812 469.128906 485.0625 470.4375 C 483.992188 471.746094 482.886719 473.03125 481.753906 474.285156 C 480.621094 475.542969 479.457031 476.769531 478.261719 477.96875 C 477.070312 479.167969 475.847656 480.335938 474.59375 481.472656 C 473.34375 482.613281 472.066406 483.71875 470.757812 484.796875 C 469.453125 485.871094 468.121094 486.914062 466.765625 487.925781 C 465.410156 488.9375 464.027344 489.914062 462.625 490.855469 C 461.21875 491.796875 459.792969 492.707031 458.339844 493.578125 C 456.890625 494.449219 455.421875 495.289062 453.933594 496.085938 C 452.441406 496.886719 450.933594 497.652344 449.402344 498.378906 C 447.875 499.105469 446.332031 499.792969 444.769531 500.441406 C 443.207031 501.09375 441.632812 501.707031 440.039062 502.277344 C 438.449219 502.851562 436.84375 503.386719 435.222656 503.878906 C 433.605469 504.375 431.976562 504.828125 430.335938 505.242188 C 428.695312 505.65625 427.046875 506.03125 425.386719 506.363281 C 423.730469 506.699219 422.0625 506.992188 420.390625 507.242188 C 418.71875 507.492188 417.039062 507.703125 415.355469 507.871094 C 413.671875 508.042969 411.988281 508.167969 410.296875 508.257812 C 408.605469 508.34375 406.917969 508.386719 405.226562 508.390625 C 403.53125 508.394531 401.839844 508.355469 400.152344 508.277344 C 398.460938 508.199219 396.773438 508.078125 395.089844 507.914062 C 393.40625 507.753906 391.726562 507.546875 390.054688 507.304688 C 388.378906 507.058594 386.710938 506.773438 385.050781 506.445312 C 383.390625 506.121094 381.742188 505.753906 380.097656 505.34375 C 378.457031 504.9375 376.824219 504.488281 375.207031 504 C 373.585938 503.515625 371.976562 502.988281 370.382812 502.417969 C 368.789062 501.851562 367.210938 501.246094 365.644531 500.601562 C 364.082031 499.960938 362.535156 499.277344 361.003906 498.554688 C 359.472656 497.835938 357.960938 497.078125 356.464844 496.285156 C 354.972656 495.488281 353.5 494.660156 352.046875 493.792969 C 350.59375 492.925781 349.164062 492.023438 347.753906 491.085938 C 346.34375 490.148438 344.960938 489.179688 343.597656 488.171875 C 342.238281 487.167969 340.902344 486.128906 339.59375 485.058594 C 338.28125 483.988281 337 482.886719 335.746094 481.753906 C 334.488281 480.617188 333.261719 479.453125 332.0625 478.261719 C 330.863281 477.066406 329.695312 475.84375 328.554688 474.59375 C 327.417969 473.339844 326.308594 472.0625 325.234375 470.757812 C 324.160156 469.453125 323.117188 468.121094 322.105469 466.761719 C 321.09375 465.40625 320.117188 464.023438 319.175781 462.621094 C 318.230469 461.214844 317.324219 459.789062 316.453125 458.339844 C 315.578125 456.890625 314.742188 455.417969 313.941406 453.929688 C 313.140625 452.4375 312.378906 450.929688 311.652344 449.402344 C 310.925781 447.871094 310.238281 446.328125 309.585938 444.765625 C 308.9375 443.203125 308.324219 441.625 307.75 440.035156 C 307.179688 438.441406 306.644531 436.839844 306.152344 435.21875 C 305.65625 433.601562 305.203125 431.972656 304.789062 430.332031 C 304.375 428.691406 304 427.042969 303.667969 425.382812 C 303.332031 423.722656 303.042969 422.058594 302.789062 420.386719 C 302.539062 418.710938 302.328125 417.035156 302.160156 415.351562 C 301.992188 413.667969 301.863281 411.980469 301.777344 410.289062 C 301.691406 408.601562 301.644531 406.910156 301.644531 405.21875 " fill-opacity="1" fill-rule="nonzero"/></g></svg>