<svg xmlns="http://www.w3.org/2000/svg" xmlns:xlink="http://www.w3.org/1999/xlink" width="1080" zoomAndPan="magnify" viewBox="0 0 810 809.999993" height="1080" preserveAspectRatio="xMidYMid meet" version="1.0"><defs><clipPath id="e0d0d6df63"><path d="M 106 103.488281 L 705 103.488281 L 705 702 L 106 702 Z M 106 103.488281 " clip-rule="nonzero"/></clipPath></defs><g clip-path="url(#e0d0d6df63)"><path fill="#ffffff" d="M 616.34375 613.054688 L 527.769531 613.054688 L 527.769531 474.28125 C 527.769531 441.191406 527.175781 398.589844 481.699219 398.589844 C 435.566406 398.589844 428.507812 434.644531 428.507812 471.875 L 428.507812 613.046875 L 339.933594 613.046875 L 339.933594 327.671875 L 424.964844 327.671875 L 424.964844 366.671875 L 426.15625 366.671875 C 427.214844 364.863281 428.332031 363.089844 429.507812 361.359375 C 430.683594 359.625 431.917969 357.929688 433.210938 356.28125 C 434.5 354.628906 435.847656 353.023438 437.246094 351.464844 C 438.644531 349.90625 440.097656 348.394531 441.597656 346.933594 C 443.097656 345.472656 444.648438 344.0625 446.242188 342.703125 C 447.839844 341.347656 449.480469 340.042969 451.164062 338.796875 C 452.847656 337.550781 454.570312 336.363281 456.335938 335.230469 C 458.101562 334.101562 459.898438 333.03125 461.738281 332.023438 C 463.574219 331.015625 465.441406 330.066406 467.339844 329.183594 C 469.242188 328.300781 471.167969 327.484375 473.125 326.730469 C 475.078125 325.980469 477.054688 325.292969 479.058594 324.671875 C 481.058594 324.054688 483.078125 323.503906 485.117188 323.019531 C 487.15625 322.535156 489.210938 322.121094 491.277344 321.777344 C 493.34375 321.433594 495.417969 321.160156 497.503906 320.953125 C 499.589844 320.75 501.679688 320.617188 503.773438 320.554688 C 505.867188 320.488281 507.960938 320.496094 510.054688 320.574219 C 599.828125 320.574219 616.378906 379.648438 616.378906 456.503906 Z M 239.992188 288.664062 C 238.308594 288.664062 236.628906 288.582031 234.953125 288.417969 C 233.277344 288.253906 231.613281 288.007812 229.960938 287.675781 C 228.3125 287.347656 226.679688 286.941406 225.070312 286.453125 C 223.457031 285.964844 221.875 285.398438 220.320312 284.753906 C 218.765625 284.109375 217.246094 283.390625 215.757812 282.597656 C 214.273438 281.800781 212.832031 280.9375 211.429688 280.003906 C 210.03125 279.066406 208.679688 278.066406 207.378906 276.996094 C 206.078125 275.929688 204.832031 274.800781 203.640625 273.609375 C 202.449219 272.417969 201.320312 271.171875 200.253906 269.871094 C 199.183594 268.570312 198.183594 267.21875 197.246094 265.816406 C 196.3125 264.417969 195.445312 262.972656 194.652344 261.488281 C 193.859375 260.003906 193.140625 258.484375 192.496094 256.929688 C 191.851562 255.371094 191.285156 253.789062 190.796875 252.175781 C 190.304688 250.566406 189.898438 248.933594 189.570312 247.28125 C 189.238281 245.628906 188.992188 243.964844 188.828125 242.289062 C 188.664062 240.613281 188.578125 238.933594 188.578125 237.25 C 188.578125 235.566406 188.660156 233.886719 188.828125 232.207031 C 188.992188 230.53125 189.238281 228.867188 189.566406 227.21875 C 189.894531 225.566406 190.300781 223.933594 190.789062 222.320312 C 191.277344 220.710938 191.84375 219.125 192.488281 217.570312 C 193.132812 216.011719 193.851562 214.492188 194.644531 213.007812 C 195.4375 211.523438 196.304688 210.078125 197.238281 208.679688 C 198.171875 207.277344 199.175781 205.925781 200.242188 204.625 C 201.308594 203.320312 202.4375 202.074219 203.628906 200.882812 C 204.820312 199.695312 206.0625 198.5625 207.363281 197.496094 C 208.667969 196.425781 210.015625 195.421875 211.414062 194.488281 C 212.816406 193.550781 214.257812 192.6875 215.742188 191.894531 C 217.226562 191.097656 218.746094 190.378906 220.300781 189.734375 C 221.855469 189.089844 223.441406 188.523438 225.050781 188.035156 C 226.660156 187.542969 228.292969 187.136719 229.945312 186.804688 C 231.59375 186.476562 233.257812 186.230469 234.933594 186.066406 C 236.609375 185.898438 238.289062 185.816406 239.972656 185.816406 C 241.65625 185.816406 243.335938 185.898438 245.011719 186.0625 C 246.6875 186.226562 248.347656 186.472656 250 186.800781 C 251.652344 187.128906 253.28125 187.539062 254.894531 188.027344 C 256.503906 188.515625 258.089844 189.082031 259.644531 189.726562 C 261.199219 190.371094 262.71875 191.089844 264.203125 191.882812 C 265.6875 192.675781 267.128906 193.542969 268.53125 194.476562 C 269.929688 195.414062 271.28125 196.414062 272.582031 197.484375 C 273.882812 198.550781 275.128906 199.679688 276.320312 200.871094 C 277.511719 202.0625 278.640625 203.308594 279.707031 204.609375 C 280.777344 205.910156 281.777344 207.261719 282.714844 208.664062 C 283.648438 210.0625 284.515625 211.503906 285.308594 212.992188 C 286.101562 214.476562 286.820312 215.996094 287.464844 217.550781 C 288.109375 219.109375 288.679688 220.691406 289.167969 222.304688 C 289.65625 223.914062 290.0625 225.546875 290.390625 227.199219 C 290.722656 228.851562 290.96875 230.515625 291.132812 232.191406 C 291.300781 233.867188 291.382812 235.546875 291.382812 237.230469 C 291.382812 238.914062 291.300781 240.59375 291.136719 242.269531 C 290.972656 243.949219 290.726562 245.613281 290.398438 247.261719 C 290.070312 248.914062 289.660156 250.546875 289.171875 252.160156 C 288.683594 253.769531 288.117188 255.355469 287.472656 256.910156 C 286.828125 258.464844 286.109375 259.988281 285.316406 261.472656 C 284.523438 262.957031 283.660156 264.402344 282.726562 265.800781 C 281.789062 267.203125 280.789062 268.554688 279.722656 269.855469 C 278.652344 271.15625 277.523438 272.40625 276.332031 273.59375 C 275.144531 274.785156 273.898438 275.917969 272.597656 276.984375 C 271.296875 278.054688 269.945312 279.054688 268.546875 279.992188 C 267.148438 280.929688 265.707031 281.792969 264.21875 282.585938 C 262.734375 283.382812 261.214844 284.101562 259.660156 284.746094 C 258.105469 285.390625 256.523438 285.957031 254.910156 286.445312 C 253.300781 286.9375 251.667969 287.34375 250.019531 287.675781 C 248.367188 288.003906 246.703125 288.25 245.027344 288.414062 C 243.351562 288.582031 241.675781 288.664062 239.992188 288.664062 M 284.277344 613.054688 L 195.609375 613.054688 L 195.609375 327.671875 L 284.277344 327.671875 Z M 660.5 103.523438 L 151.101562 103.523438 C 149.671875 103.507812 148.25 103.5625 146.824219 103.6875 C 145.402344 103.8125 143.988281 104.003906 142.585938 104.265625 C 141.183594 104.53125 139.796875 104.859375 138.425781 105.257812 C 137.054688 105.660156 135.707031 106.125 134.378906 106.65625 C 133.054688 107.1875 131.757812 107.78125 130.492188 108.441406 C 129.226562 109.097656 127.992188 109.816406 126.796875 110.597656 C 125.601562 111.378906 124.445312 112.214844 123.332031 113.109375 C 122.214844 114 121.148438 114.945312 120.125 115.945312 C 119.105469 116.941406 118.136719 117.988281 117.214844 119.082031 C 116.296875 120.175781 115.433594 121.3125 114.625 122.488281 C 113.820312 123.667969 113.070312 124.882812 112.382812 126.136719 C 111.695312 127.386719 111.070312 128.667969 110.507812 129.980469 C 109.945312 131.296875 109.449219 132.632812 109.019531 133.996094 C 108.585938 135.355469 108.226562 136.738281 107.929688 138.132812 C 107.632812 139.53125 107.40625 140.941406 107.25 142.359375 C 107.09375 143.78125 107.007812 145.203125 106.988281 146.632812 L 106.988281 658.367188 C 107.003906 659.796875 107.09375 661.222656 107.25 662.644531 C 107.40625 664.0625 107.632812 665.472656 107.925781 666.871094 C 108.222656 668.269531 108.585938 669.652344 109.015625 671.015625 C 109.445312 672.375 109.941406 673.714844 110.503906 675.027344 C 111.066406 676.34375 111.691406 677.625 112.378906 678.878906 C 113.066406 680.132812 113.8125 681.347656 114.621094 682.527344 C 115.429688 683.707031 116.292969 684.84375 117.210938 685.9375 C 118.128906 687.03125 119.097656 688.078125 120.121094 689.078125 C 121.140625 690.078125 122.207031 691.023438 123.324219 691.917969 C 124.4375 692.8125 125.59375 693.652344 126.789062 694.429688 C 127.984375 695.210938 129.21875 695.933594 130.484375 696.59375 C 131.753906 697.253906 133.046875 697.847656 134.375 698.378906 C 135.699219 698.914062 137.046875 699.378906 138.421875 699.78125 C 139.792969 700.179688 141.179688 700.511719 142.582031 700.773438 C 143.988281 701.039062 145.398438 701.234375 146.824219 701.359375 C 148.246094 701.484375 149.671875 701.539062 151.101562 701.523438 L 660.5 701.523438 C 661.933594 701.539062 663.359375 701.488281 664.789062 701.367188 C 666.214844 701.242188 667.628906 701.050781 669.035156 700.789062 C 670.445312 700.527344 671.835938 700.199219 673.210938 699.800781 C 674.585938 699.402344 675.9375 698.9375 677.265625 698.40625 C 678.597656 697.875 679.898438 697.28125 681.167969 696.621094 C 682.4375 695.964844 683.675781 695.246094 684.875 694.464844 C 686.074219 693.683594 687.234375 692.847656 688.355469 691.953125 C 689.472656 691.058594 690.542969 690.113281 691.570312 689.113281 C 692.59375 688.113281 693.570312 687.066406 694.492188 685.972656 C 695.414062 684.878906 696.28125 683.738281 697.09375 682.558594 C 697.902344 681.378906 698.65625 680.164062 699.347656 678.910156 C 700.039062 677.65625 700.667969 676.371094 701.230469 675.054688 C 701.796875 673.738281 702.296875 672.398438 702.730469 671.035156 C 703.167969 669.671875 703.53125 668.289062 703.832031 666.886719 C 704.128906 665.488281 704.359375 664.074219 704.519531 662.652344 C 704.679688 661.230469 704.769531 659.800781 704.789062 658.367188 L 704.789062 146.59375 C 704.769531 145.164062 704.679688 143.738281 704.519531 142.316406 C 704.359375 140.894531 704.128906 139.480469 703.828125 138.082031 C 703.527344 136.683594 703.164062 135.300781 702.726562 133.9375 C 702.292969 132.574219 701.792969 131.234375 701.226562 129.917969 C 700.660156 128.605469 700.03125 127.320312 699.339844 126.066406 C 698.648438 124.816406 697.898438 123.597656 697.085938 122.417969 C 696.273438 121.242188 695.40625 120.105469 694.484375 119.011719 C 693.5625 117.917969 692.585938 116.871094 691.5625 115.871094 C 690.535156 114.875 689.464844 113.929688 688.347656 113.035156 C 687.230469 112.144531 686.070312 111.308594 684.867188 110.527344 C 683.667969 109.75 682.433594 109.03125 681.160156 108.375 C 679.890625 107.714844 678.589844 107.121094 677.261719 106.59375 C 675.933594 106.0625 674.582031 105.597656 673.207031 105.203125 C 671.832031 104.804688 670.441406 104.476562 669.035156 104.214844 C 667.628906 103.953125 666.210938 103.761719 664.785156 103.640625 C 663.359375 103.519531 661.933594 103.46875 660.5 103.488281 " fill-opacity="1" fill-rule="nonzero"/></g></svg>