<svg xmlns="http://www.w3.org/2000/svg" xmlns:xlink="http://www.w3.org/1999/xlink" width="1080" zoomAndPan="magnify" viewBox="0 0 810 809.999993" height="1080" preserveAspectRatio="xMidYMid meet" version="1.0"><path fill="#ffffff" d="M 405 81 C 399.699219 81 394.398438 81.128906 389.101562 81.390625 C 383.804688 81.652344 378.519531 82.039062 373.242188 82.558594 C 367.964844 83.078125 362.703125 83.730469 357.460938 84.507812 C 352.214844 85.285156 346.992188 86.191406 341.789062 87.226562 C 336.589844 88.261719 331.417969 89.421875 326.273438 90.710938 C 321.128906 92 316.023438 93.414062 310.949219 94.953125 C 305.875 96.492188 300.839844 98.152344 295.847656 99.941406 C 290.855469 101.726562 285.910156 103.632812 281.011719 105.664062 C 276.113281 107.691406 271.265625 109.839844 266.472656 112.109375 C 261.679688 114.375 256.945312 116.757812 252.265625 119.257812 C 247.589844 121.757812 242.980469 124.371094 238.429688 127.097656 C 233.882812 129.820312 229.402344 132.65625 224.996094 135.605469 C 220.585938 138.550781 216.253906 141.601562 211.992188 144.761719 C 207.734375 147.917969 203.554688 151.179688 199.457031 154.542969 C 195.359375 157.910156 191.34375 161.371094 187.414062 164.933594 C 183.484375 168.492188 179.648438 172.148438 175.898438 175.898438 C 172.148438 179.648438 168.492188 183.484375 164.933594 187.414062 C 161.371094 191.34375 157.910156 195.359375 154.542969 199.457031 C 151.179688 203.554688 147.917969 207.734375 144.761719 211.992188 C 141.601562 216.253906 138.550781 220.585938 135.605469 224.996094 C 132.65625 229.402344 129.820312 233.882812 127.097656 238.429688 C 124.371094 242.980469 121.757812 247.589844 119.257812 252.265625 C 116.757812 256.945312 114.375 261.679688 112.109375 266.472656 C 109.839844 271.265625 107.691406 276.113281 105.664062 281.011719 C 103.632812 285.910156 101.726562 290.855469 99.941406 295.847656 C 98.152344 300.839844 96.492188 305.875 94.953125 310.949219 C 93.410156 316.023438 92 321.128906 90.710938 326.273438 C 89.421875 331.417969 88.261719 336.589844 87.226562 341.789062 C 86.191406 346.992188 85.285156 352.214844 84.507812 357.460938 C 83.730469 362.703125 83.078125 367.964844 82.558594 373.242188 C 82.039062 378.519531 81.652344 383.804688 81.390625 389.101562 C 81.128906 394.398438 81 399.699219 81 405 C 81 410.300781 81.128906 415.601562 81.390625 420.898438 C 81.652344 426.195312 82.039062 431.480469 82.558594 436.757812 C 83.078125 442.035156 83.730469 447.296875 84.507812 452.539062 C 85.285156 457.785156 86.191406 463.007812 87.226562 468.210938 C 88.261719 473.410156 89.421875 478.582031 90.710938 483.726562 C 92 488.871094 93.410156 493.976562 94.953125 499.050781 C 96.492188 504.125 98.152344 509.160156 99.941406 514.152344 C 101.726562 519.144531 103.632812 524.089844 105.664062 528.988281 C 107.691406 533.886719 109.839844 538.734375 112.109375 543.527344 C 114.375 548.320312 116.757812 553.054688 119.257812 557.734375 C 121.757812 562.410156 124.371094 567.019531 127.097656 571.570312 C 129.820312 576.117188 132.65625 580.597656 135.605469 585.003906 C 138.550781 589.414062 141.601562 593.746094 144.761719 598.007812 C 147.917969 602.265625 151.179688 606.445312 154.542969 610.542969 C 157.910156 614.640625 161.371094 618.65625 164.933594 622.585938 C 168.492188 626.515625 172.148438 630.351562 175.898438 634.101562 C 179.648438 637.851562 183.484375 641.507812 187.414062 645.066406 C 191.34375 648.628906 195.359375 652.089844 199.457031 655.457031 C 203.554688 658.820312 207.734375 662.082031 211.992188 665.238281 C 216.253906 668.398438 220.585938 671.449219 224.996094 674.394531 C 229.402344 677.34375 233.882812 680.179688 238.429688 682.902344 C 242.980469 685.628906 247.589844 688.242188 252.265625 690.742188 C 256.945312 693.242188 261.679688 695.625 266.472656 697.890625 C 271.265625 700.160156 276.113281 702.308594 281.011719 704.335938 C 285.910156 706.367188 290.855469 708.273438 295.847656 710.058594 C 300.839844 711.847656 305.875 713.507812 310.949219 715.046875 C 316.023438 716.585938 321.128906 718 326.273438 719.289062 C 331.417969 720.578125 336.589844 721.738281 341.789062 722.773438 C 346.992188 723.808594 352.214844 724.714844 357.460938 725.492188 C 362.703125 726.269531 367.964844 726.921875 373.242188 727.441406 C 378.519531 727.960938 383.804688 728.347656 389.101562 728.609375 C 394.398438 728.871094 399.699219 729 405 729 C 410.300781 729 415.601562 728.871094 420.898438 728.609375 C 426.195312 728.347656 431.480469 727.960938 436.757812 727.441406 C 442.035156 726.921875 447.296875 726.269531 452.539062 725.492188 C 457.785156 724.714844 463.007812 723.808594 468.210938 722.773438 C 473.410156 721.738281 478.582031 720.578125 483.726562 719.289062 C 488.871094 718 493.976562 716.589844 499.050781 715.046875 C 504.125 713.507812 509.160156 711.847656 514.152344 710.058594 C 519.144531 708.273438 524.089844 706.367188 528.988281 704.335938 C 533.886719 702.308594 538.734375 700.160156 543.527344 697.890625 C 548.320312 695.625 553.054688 693.242188 557.734375 690.742188 C 562.410156 688.242188 567.019531 685.628906 571.570312 682.902344 C 576.117188 680.179688 580.597656 677.34375 585.003906 674.394531 C 589.414062 671.449219 593.746094 668.398438 598.007812 665.238281 C 602.265625 662.082031 606.445312 658.820312 610.542969 655.457031 C 614.640625 652.089844 618.65625 648.628906 622.585938 645.066406 C 626.515625 641.507812 630.351562 637.851562 634.101562 634.101562 C 637.851562 630.351562 641.507812 626.515625 645.066406 622.585938 C 648.628906 618.65625 652.089844 614.640625 655.457031 610.542969 C 658.820312 606.445312 662.082031 602.265625 665.238281 598.007812 C 668.398438 593.746094 671.449219 589.414062 674.394531 585.003906 C 677.34375 580.597656 680.179688 576.117188 682.902344 571.570312 C 685.628906 567.019531 688.242188 562.410156 690.742188 557.734375 C 693.242188 553.054688 695.625 548.320312 697.890625 543.527344 C 700.160156 538.734375 702.308594 533.886719 704.335938 528.988281 C 706.367188 524.089844 708.273438 519.144531 710.058594 514.152344 C 711.847656 509.160156 713.507812 504.125 715.046875 499.050781 C 716.585938 493.976562 718 488.871094 719.289062 483.726562 C 720.578125 478.582031 721.738281 473.410156 722.773438 468.210938 C 723.808594 463.007812 724.714844 457.785156 725.492188 452.539062 C 726.269531 447.296875 726.921875 442.035156 727.441406 436.757812 C 727.960938 431.480469 728.347656 426.195312 728.609375 420.898438 C 728.871094 415.601562 729 410.300781 729 405 C 729 399.699219 728.871094 394.398438 728.609375 389.101562 C 728.351562 383.804688 727.960938 378.519531 727.441406 373.242188 C 726.921875 367.964844 726.273438 362.703125 725.496094 357.457031 C 724.71875 352.214844 723.8125 346.988281 722.777344 341.789062 C 721.742188 336.589844 720.582031 331.417969 719.292969 326.273438 C 718.007812 321.128906 716.59375 316.019531 715.054688 310.945312 C 713.515625 305.871094 711.851562 300.835938 710.066406 295.84375 C 708.277344 290.851562 706.371094 285.90625 704.34375 281.007812 C 702.3125 276.109375 700.164062 271.261719 697.898438 266.46875 C 695.632812 261.675781 693.246094 256.941406 690.75 252.261719 C 688.25 247.585938 685.636719 242.972656 682.910156 238.425781 C 680.183594 233.878906 677.347656 229.398438 674.402344 224.992188 C 671.457031 220.582031 668.402344 216.246094 665.246094 211.988281 C 662.085938 207.730469 658.824219 203.550781 655.460938 199.449219 C 652.097656 195.351562 648.636719 191.339844 645.074219 187.410156 C 641.511719 183.480469 637.859375 179.640625 634.109375 175.890625 C 630.359375 172.140625 626.519531 168.488281 622.589844 164.925781 C 618.660156 161.363281 614.648438 157.902344 610.550781 154.539062 C 606.449219 151.175781 602.269531 147.914062 598.011719 144.753906 C 593.753906 141.597656 589.417969 138.542969 585.007812 135.597656 C 580.601562 132.652344 576.121094 129.816406 571.574219 127.089844 C 567.027344 124.363281 562.414062 121.75 557.738281 119.25 C 553.058594 116.753906 548.324219 114.367188 543.53125 112.101562 C 538.738281 109.835938 533.890625 107.6875 528.992188 105.65625 C 524.09375 103.628906 519.148438 101.722656 514.15625 99.933594 C 509.164062 98.148438 504.128906 96.484375 499.054688 94.945312 C 493.980469 93.40625 488.871094 91.992188 483.726562 90.707031 C 478.582031 89.417969 473.410156 88.257812 468.210938 87.222656 C 463.011719 86.1875 457.785156 85.28125 452.542969 84.503906 C 447.296875 83.726562 442.035156 83.078125 436.757812 82.558594 C 431.480469 82.039062 426.195312 81.648438 420.898438 81.390625 C 415.601562 81.128906 410.300781 81 405 81 Z M 457.164062 497.664062 L 363.742188 591.085938 C 362.558594 592.269531 361.34375 593.425781 360.105469 594.550781 C 358.863281 595.675781 357.59375 596.769531 356.296875 597.832031 C 355 598.894531 353.679688 599.925781 352.335938 600.925781 C 350.988281 601.925781 349.617188 602.886719 348.226562 603.820312 C 346.832031 604.75 345.417969 605.648438 343.980469 606.507812 C 342.542969 607.371094 341.082031 608.195312 339.605469 608.988281 C 338.128906 609.777344 336.628906 610.53125 335.117188 611.246094 C 333.601562 611.964844 332.070312 612.640625 330.519531 613.285156 C 328.972656 613.925781 327.410156 614.527344 325.832031 615.09375 C 324.253906 615.65625 322.660156 616.183594 321.058594 616.667969 C 319.453125 617.15625 317.839844 617.601562 316.214844 618.007812 C 314.585938 618.417969 312.953125 618.785156 311.308594 619.109375 C 309.664062 619.4375 308.015625 619.722656 306.355469 619.96875 C 304.699219 620.214844 303.035156 620.421875 301.367188 620.585938 C 299.699219 620.75 298.027344 620.875 296.355469 620.957031 C 294.679688 621.039062 293.007812 621.078125 291.328125 621.078125 C 289.652344 621.078125 287.980469 621.039062 286.304688 620.957031 C 284.632812 620.875 282.960938 620.75 281.292969 620.585938 C 279.625 620.421875 277.960938 620.214844 276.304688 619.96875 C 274.644531 619.722656 272.996094 619.4375 271.351562 619.109375 C 269.707031 618.785156 268.074219 618.417969 266.445312 618.007812 C 264.820312 617.601562 263.207031 617.15625 261.601562 616.667969 C 260 616.183594 258.40625 615.65625 256.828125 615.09375 C 255.25 614.527344 253.6875 613.925781 252.140625 613.285156 C 250.589844 612.640625 249.058594 611.964844 247.542969 611.246094 C 246.03125 610.53125 244.53125 609.777344 243.054688 608.988281 C 241.578125 608.195312 240.117188 607.371094 238.679688 606.507812 C 237.242188 605.648438 235.828125 604.75 234.433594 603.820312 C 233.042969 602.886719 231.671875 601.925781 230.324219 600.925781 C 228.980469 599.925781 227.65625 598.894531 226.363281 597.832031 C 225.066406 596.769531 223.796875 595.675781 222.554688 594.550781 C 221.316406 593.425781 220.101562 592.269531 218.914062 591.085938 C 217.730469 589.898438 216.574219 588.683594 215.449219 587.445312 C 214.324219 586.203125 213.230469 584.933594 212.167969 583.636719 C 211.105469 582.34375 210.074219 581.019531 209.074219 579.675781 C 208.074219 578.328125 207.109375 576.957031 206.179688 575.566406 C 205.25 574.171875 204.351562 572.757812 203.492188 571.320312 C 202.628906 569.882812 201.804688 568.421875 201.011719 566.945312 C 200.222656 565.46875 199.46875 563.96875 198.753906 562.457031 C 198.035156 560.941406 197.359375 559.410156 196.714844 557.859375 C 196.074219 556.3125 195.472656 554.75 194.90625 553.171875 C 194.34375 551.59375 193.816406 550 193.332031 548.398438 C 192.84375 546.792969 192.398438 545.179688 191.988281 543.554688 C 191.582031 541.925781 191.214844 540.292969 190.890625 538.648438 C 190.5625 537.003906 190.277344 535.355469 190.03125 533.695312 C 189.785156 532.039062 189.578125 530.375 189.414062 528.707031 C 189.25 527.039062 189.125 525.367188 189.042969 523.695312 C 188.960938 522.019531 188.921875 520.347656 188.921875 518.671875 C 188.921875 516.992188 188.960938 515.320312 189.042969 513.644531 C 189.125 511.972656 189.25 510.300781 189.414062 508.632812 C 189.578125 506.964844 189.785156 505.300781 190.03125 503.644531 C 190.277344 501.984375 190.5625 500.335938 190.890625 498.691406 C 191.214844 497.046875 191.582031 495.414062 191.988281 493.785156 C 192.398438 492.160156 192.84375 490.546875 193.332031 488.941406 C 193.816406 487.339844 194.34375 485.746094 194.90625 484.167969 C 195.472656 482.589844 196.074219 481.027344 196.714844 479.480469 C 197.359375 477.929688 198.035156 476.398438 198.753906 474.882812 C 199.46875 473.371094 200.222656 471.871094 201.011719 470.394531 C 201.804688 468.917969 202.628906 467.457031 203.492188 466.019531 C 204.351562 464.582031 205.25 463.167969 206.179688 461.773438 C 207.109375 460.382812 208.074219 459.011719 209.074219 457.664062 C 210.074219 456.320312 211.105469 455 212.167969 453.703125 C 213.230469 452.40625 214.324219 451.136719 215.449219 449.894531 C 216.574219 448.65625 217.730469 447.441406 218.914062 446.257812 C 218.914062 446.257812 316.117188 349.273438 317.953125 347.761719 C 314.976562 356.382812 313.105469 365.238281 312.335938 374.328125 C 311.695312 381.074219 311.664062 387.820312 312.246094 394.574219 C 312.824219 401.324219 314.007812 407.96875 315.792969 414.503906 C 317.417969 420.484375 319.539062 426.277344 322.164062 431.890625 L 262.871094 491.183594 C 261.046875 493.039062 259.417969 495.054688 257.984375 497.226562 C 256.546875 499.398438 255.335938 501.6875 254.34375 504.09375 C 253.355469 506.5 252.605469 508.980469 252.09375 511.53125 C 251.585938 514.082031 251.324219 516.660156 251.316406 519.265625 C 251.347656 521.195312 251.519531 523.113281 251.832031 525.015625 C 252.144531 526.921875 252.59375 528.792969 253.175781 530.632812 C 253.761719 532.472656 254.476562 534.261719 255.320312 535.996094 C 256.164062 537.734375 257.128906 539.398438 258.214844 540.992188 C 259.304688 542.589844 260.5 544.097656 261.804688 545.519531 C 263.113281 546.9375 264.515625 548.257812 266.011719 549.476562 C 267.511719 550.691406 269.089844 551.792969 270.75 552.78125 C 272.40625 553.769531 274.128906 554.628906 275.914062 555.367188 C 277.699219 556.105469 279.527344 556.707031 281.398438 557.175781 C 283.269531 557.648438 285.167969 557.980469 287.085938 558.175781 C 289.007812 558.367188 290.933594 558.421875 292.859375 558.335938 C 294.789062 558.25 296.703125 558.027344 298.597656 557.664062 C 300.492188 557.300781 302.351562 556.800781 304.175781 556.164062 C 305.996094 555.53125 307.765625 554.765625 309.476562 553.875 C 311.1875 552.984375 312.828125 551.972656 314.390625 550.839844 C 315.957031 549.710938 317.429688 548.472656 318.816406 547.128906 C 318.816406 547.128906 414.394531 451.65625 415.476562 450.253906 C 416 449.628906 416.503906 448.992188 416.988281 448.339844 C 417.472656 447.683594 417.9375 447.019531 418.378906 446.335938 C 418.824219 445.652344 419.246094 444.957031 419.644531 444.25 C 420.046875 443.542969 420.421875 442.824219 420.777344 442.09375 C 421.136719 441.359375 421.46875 440.621094 421.777344 439.867188 C 422.089844 439.117188 422.375 438.355469 422.636719 437.585938 C 422.902344 436.816406 423.140625 436.039062 423.355469 435.253906 C 423.570312 434.46875 423.761719 433.679688 423.929688 432.882812 C 424.09375 432.089844 424.238281 431.289062 424.355469 430.484375 C 424.472656 429.679688 424.5625 428.871094 424.632812 428.058594 C 424.699219 427.25 424.742188 426.4375 424.757812 425.625 C 424.777344 424.8125 424.769531 424 424.734375 423.1875 C 424.703125 422.375 424.644531 421.5625 424.5625 420.753906 C 424.480469 419.945312 424.371094 419.140625 424.238281 418.335938 C 424.105469 417.535156 423.949219 416.738281 423.765625 415.945312 C 423.585938 415.152344 423.378906 414.363281 423.148438 413.585938 C 422.917969 412.804688 422.664062 412.03125 422.386719 411.269531 C 422.109375 410.503906 421.808594 409.75 421.484375 409.003906 C 421.160156 408.257812 420.8125 407.523438 420.441406 406.796875 C 420.070312 406.074219 419.679688 405.363281 419.265625 404.660156 C 418.851562 403.960938 418.417969 403.273438 417.960938 402.601562 C 417.503906 401.929688 417.027344 401.269531 416.53125 400.625 C 416.035156 399.980469 415.519531 399.351562 414.984375 398.742188 C 414.449219 398.128906 413.894531 397.535156 413.320312 396.957031 C 412.75 396.378906 412.160156 395.820312 411.554688 395.277344 C 410.945312 394.734375 410.324219 394.214844 409.683594 393.710938 C 409.046875 393.207031 408.390625 392.722656 407.722656 392.261719 C 407.054688 391.796875 406.371094 391.355469 405.675781 390.933594 C 404.980469 390.515625 404.273438 390.117188 403.550781 389.738281 C 402.832031 389.363281 402.097656 389.007812 401.355469 388.675781 C 400.613281 388.34375 399.863281 388.035156 399.101562 387.75 C 398.339844 387.464844 397.570312 387.203125 396.792969 386.964844 C 396.667969 384.960938 396.753906 382.964844 397.050781 380.976562 C 397.347656 378.988281 397.851562 377.054688 398.558594 375.175781 C 399.265625 373.296875 400.160156 371.511719 401.246094 369.820312 C 402.332031 368.128906 403.585938 366.574219 405 365.148438 C 412.667969 357.480469 426.707031 343.332031 434.375 335.773438 C 437.363281 337.414062 440.257812 339.199219 443.066406 341.132812 C 445.871094 343.066406 448.574219 345.132812 451.175781 347.339844 C 453.773438 349.542969 456.253906 351.871094 458.617188 354.328125 C 460.980469 356.78125 463.214844 359.347656 465.320312 362.027344 C 467.425781 364.707031 469.394531 367.484375 471.21875 370.363281 C 473.046875 373.238281 474.722656 376.203125 476.25 379.246094 C 477.777344 382.292969 479.148438 385.410156 480.363281 388.59375 C 481.578125 391.777344 482.628906 395.015625 483.515625 398.304688 C 484.101562 400.46875 484.617188 402.652344 485.058594 404.851562 C 485.503906 407.050781 485.875 409.261719 486.171875 411.484375 C 486.472656 413.707031 486.695312 415.941406 486.847656 418.179688 C 487 420.414062 487.082031 422.65625 487.085938 424.898438 C 487.09375 427.144531 487.023438 429.386719 486.882812 431.625 C 486.742188 433.863281 486.527344 436.09375 486.242188 438.320312 C 485.953125 440.546875 485.59375 442.757812 485.164062 444.960938 C 484.730469 447.160156 484.226562 449.347656 483.652344 451.515625 C 483.078125 453.683594 482.429688 455.832031 481.714844 457.957031 C 481 460.082031 480.214844 462.183594 479.363281 464.257812 C 478.507812 466.332031 477.589844 468.378906 476.601562 470.390625 C 475.613281 472.40625 474.5625 474.386719 473.445312 476.332031 C 472.328125 478.277344 471.148438 480.1875 469.90625 482.054688 C 468.667969 483.921875 467.363281 485.75 466.003906 487.53125 C 464.644531 489.316406 463.226562 491.050781 461.75 492.742188 C 460.273438 494.433594 458.746094 496.074219 457.164062 497.664062 Z M 591.191406 363.527344 C 591.191406 363.527344 494.101562 460.511719 492.265625 462.023438 C 495.230469 453.4375 497.101562 444.617188 497.878906 435.5625 C 498.351562 430.648438 498.5 425.71875 498.320312 420.78125 C 498.140625 415.847656 497.636719 410.941406 496.804688 406.074219 C 495.976562 401.203125 494.828125 396.410156 493.363281 391.691406 C 491.898438 386.976562 490.128906 382.375 488.050781 377.890625 L 547.34375 318.601562 C 548.242188 317.679688 549.097656 316.71875 549.902344 315.71875 C 550.710938 314.714844 551.464844 313.675781 552.167969 312.597656 C 552.875 311.523438 553.523438 310.414062 554.121094 309.273438 C 554.714844 308.136719 555.257812 306.96875 555.738281 305.777344 C 556.222656 304.582031 556.644531 303.371094 557.007812 302.136719 C 557.371094 300.902344 557.675781 299.65625 557.917969 298.390625 C 558.160156 297.128906 558.339844 295.855469 558.457031 294.574219 C 558.574219 293.292969 558.628906 292.007812 558.625 290.722656 C 558.617188 289.4375 558.546875 288.152344 558.414062 286.875 C 558.28125 285.59375 558.085938 284.324219 557.828125 283.0625 C 557.570312 281.804688 557.253906 280.558594 556.875 279.328125 C 556.496094 278.101562 556.058594 276.890625 555.5625 275.703125 C 555.066406 274.519531 554.515625 273.359375 553.90625 272.226562 C 553.296875 271.09375 552.632812 269.992188 551.914062 268.925781 C 551.199219 267.855469 550.429688 266.824219 549.613281 265.832031 C 548.796875 264.839844 547.929688 263.886719 547.019531 262.980469 C 546.109375 262.070312 545.15625 261.207031 544.164062 260.394531 C 543.167969 259.578125 542.136719 258.8125 541.066406 258.097656 C 539.996094 257.382812 538.894531 256.71875 537.761719 256.113281 C 536.628906 255.503906 535.46875 254.957031 534.277344 254.460938 C 533.089844 253.96875 531.882812 253.53125 530.652344 253.15625 C 529.421875 252.78125 528.175781 252.464844 526.914062 252.210938 C 525.65625 251.957031 524.382812 251.765625 523.105469 251.632812 C 521.824219 251.503906 520.542969 251.4375 519.253906 251.429688 C 517.96875 251.425781 516.683594 251.484375 515.402344 251.605469 C 514.125 251.722656 512.851562 251.90625 511.589844 252.152344 C 510.324219 252.394531 509.078125 252.703125 507.84375 253.066406 C 506.613281 253.433594 505.398438 253.859375 504.207031 254.34375 C 503.015625 254.828125 501.851562 255.371094 500.710938 255.96875 C 499.574219 256.566406 498.464844 257.222656 497.390625 257.925781 C 496.316406 258.632812 495.277344 259.390625 494.277344 260.199219 C 493.277344 261.007812 492.316406 261.863281 491.398438 262.765625 C 469.800781 284.363281 417.851562 336.203125 397.007812 357.15625 C 396.417969 357.761719 395.847656 358.382812 395.296875 359.023438 C 394.746094 359.664062 394.214844 360.324219 393.707031 360.996094 C 393.199219 361.671875 392.710938 362.363281 392.246094 363.066406 C 391.78125 363.773438 391.339844 364.492188 390.917969 365.226562 C 390.5 365.960938 390.105469 366.707031 389.734375 367.464844 C 389.363281 368.222656 389.015625 368.996094 388.691406 369.777344 C 388.371094 370.554688 388.070312 371.347656 387.800781 372.148438 C 387.527344 372.945312 387.28125 373.753906 387.058594 374.570312 C 386.839844 375.386719 386.644531 376.207031 386.476562 377.035156 C 386.308594 377.863281 386.164062 378.695312 386.050781 379.53125 C 385.933594 380.371094 385.84375 381.210938 385.78125 382.054688 C 385.71875 382.894531 385.683594 383.738281 385.675781 384.585938 C 385.667969 385.429688 385.6875 386.273438 385.730469 387.117188 C 385.777344 387.960938 385.851562 388.800781 385.949219 389.640625 C 386.046875 390.480469 386.171875 391.316406 386.324219 392.148438 C 386.476562 392.980469 386.65625 393.804688 386.859375 394.625 C 387.066406 395.445312 387.296875 396.257812 387.550781 397.0625 C 387.808594 397.867188 388.089844 398.664062 388.398438 399.449219 C 388.703125 400.238281 389.035156 401.015625 389.390625 401.78125 C 389.75 402.546875 390.128906 403.300781 390.535156 404.042969 C 390.9375 404.785156 391.367188 405.511719 391.816406 406.226562 C 392.265625 406.941406 392.742188 407.640625 393.234375 408.324219 C 393.730469 409.011719 394.246094 409.679688 394.785156 410.332031 C 395.324219 410.980469 395.882812 411.617188 396.460938 412.230469 C 397.039062 412.847656 397.636719 413.445312 398.25 414.023438 C 398.867188 414.601562 399.5 415.160156 400.152344 415.699219 C 400.804688 416.234375 401.472656 416.75 402.160156 417.246094 C 402.84375 417.742188 403.542969 418.214844 404.257812 418.664062 C 404.972656 419.117188 405.699219 419.542969 406.441406 419.949219 C 407.183594 420.351562 407.9375 420.734375 408.703125 421.089844 C 409.472656 421.445312 410.246094 421.777344 411.035156 422.082031 C 411.824219 422.390625 412.617188 422.671875 413.425781 422.929688 C 413.527344 425.21875 413.367188 427.496094 412.945312 429.75 C 412.519531 432.003906 411.84375 434.179688 410.917969 436.28125 C 409.992188 438.378906 408.835938 440.34375 407.453125 442.175781 C 406.070312 444.003906 404.496094 445.652344 402.730469 447.121094 L 375.839844 474.121094 C 372.691406 472.390625 369.640625 470.496094 366.691406 468.441406 C 363.742188 466.386719 360.910156 464.183594 358.195312 461.828125 C 355.480469 459.472656 352.898438 456.980469 350.449219 454.351562 C 347.996094 451.722656 345.695312 448.972656 343.535156 446.097656 C 341.375 443.226562 339.375 440.246094 337.535156 437.160156 C 335.691406 434.074219 334.015625 430.898438 332.511719 427.636719 C 331.003906 424.375 329.675781 421.039062 328.523438 417.636719 C 327.375 414.230469 326.40625 410.773438 325.621094 407.269531 C 324.675781 403.066406 324 398.824219 323.589844 394.539062 C 323.179688 390.25 323.039062 385.957031 323.167969 381.652344 C 323.296875 377.351562 323.695312 373.070312 324.363281 368.816406 C 325.03125 364.5625 325.960938 360.367188 327.15625 356.230469 C 328.347656 352.09375 329.796875 348.050781 331.5 344.09375 C 333.203125 340.140625 335.144531 336.308594 337.328125 332.597656 C 339.511719 328.886719 341.917969 325.328125 344.550781 321.917969 C 347.179688 318.511719 350.015625 315.28125 353.050781 312.226562 L 446.472656 218.808594 C 447.65625 217.625 448.867188 216.46875 450.109375 215.34375 C 451.351562 214.21875 452.617188 213.125 453.914062 212.0625 C 455.207031 211 456.527344 209.972656 457.871094 208.972656 C 459.21875 207.976562 460.585938 207.011719 461.980469 206.082031 C 463.371094 205.152344 464.785156 204.253906 466.222656 203.394531 C 467.660156 202.535156 469.117188 201.707031 470.59375 200.917969 C 472.070312 200.128906 473.566406 199.375 475.078125 198.660156 C 476.59375 197.945312 478.125 197.265625 479.671875 196.625 C 481.21875 195.984375 482.78125 195.382812 484.355469 194.816406 C 485.933594 194.253906 487.523438 193.726562 489.125 193.242188 C 490.730469 192.753906 492.34375 192.308594 493.96875 191.902344 C 495.589844 191.496094 497.226562 191.128906 498.867188 190.800781 C 500.511719 190.476562 502.160156 190.1875 503.816406 189.941406 C 505.472656 189.699219 507.136719 189.492188 508.800781 189.328125 C 510.46875 189.164062 512.136719 189.039062 513.8125 188.957031 C 515.484375 188.875 517.15625 188.835938 518.832031 188.835938 C 520.507812 188.835938 522.179688 188.875 523.851562 188.957031 C 525.527344 189.039062 527.195312 189.164062 528.863281 189.328125 C 530.527344 189.492188 532.191406 189.699219 533.847656 189.941406 C 535.503906 190.1875 537.152344 190.476562 538.796875 190.800781 C 540.4375 191.128906 542.070312 191.496094 543.695312 191.902344 C 545.320312 192.308594 546.933594 192.753906 548.539062 193.242188 C 550.140625 193.726562 551.730469 194.253906 553.308594 194.816406 C 554.882812 195.382812 556.445312 195.984375 557.992188 196.625 C 559.539062 197.265625 561.070312 197.945312 562.585938 198.660156 C 564.097656 199.375 565.59375 200.128906 567.070312 200.917969 C 568.546875 201.707031 570.003906 202.535156 571.441406 203.394531 C 572.878906 204.253906 574.292969 205.152344 575.683594 206.082031 C 577.078125 207.011719 578.445312 207.976562 579.792969 208.972656 C 581.136719 209.972656 582.457031 211 583.75 212.0625 C 585.046875 213.125 586.3125 214.21875 587.554688 215.34375 C 588.796875 216.46875 590.007812 217.625 591.191406 218.808594 C 592.375 219.992188 593.53125 221.203125 594.65625 222.445312 C 595.78125 223.6875 596.875 224.953125 597.9375 226.25 C 599 227.542969 600.027344 228.863281 601.027344 230.207031 C 602.023438 231.554688 602.988281 232.921875 603.917969 234.316406 C 604.847656 235.707031 605.746094 237.121094 606.605469 238.558594 C 607.464844 239.996094 608.292969 241.453125 609.082031 242.929688 C 609.871094 244.40625 610.625 245.902344 611.339844 247.414062 C 612.054688 248.929688 612.734375 250.460938 613.375 252.007812 C 614.015625 253.554688 614.617188 255.117188 615.183594 256.691406 C 615.746094 258.269531 616.273438 259.859375 616.757812 261.460938 C 617.246094 263.066406 617.691406 264.679688 618.097656 266.304688 C 618.503906 267.929688 618.871094 269.5625 619.199219 271.203125 C 619.523438 272.847656 619.8125 274.496094 620.058594 276.152344 C 620.300781 277.808594 620.507812 279.472656 620.671875 281.136719 C 620.835938 282.804688 620.957031 284.472656 621.042969 286.148438 C 621.125 287.820312 621.164062 289.492188 621.164062 291.167969 C 621.164062 292.84375 621.125 294.515625 621.042969 296.1875 C 620.957031 297.863281 620.835938 299.53125 620.671875 301.199219 C 620.507812 302.863281 620.300781 304.527344 620.058594 306.183594 C 619.8125 307.839844 619.523438 309.488281 619.199219 311.132812 C 618.871094 312.773438 618.503906 314.410156 618.097656 316.03125 C 617.691406 317.65625 617.246094 319.269531 616.757812 320.875 C 616.273438 322.476562 615.746094 324.066406 615.183594 325.644531 C 614.617188 327.21875 614.015625 328.78125 613.375 330.328125 C 612.734375 331.875 612.054688 333.40625 611.339844 334.921875 C 610.625 336.433594 609.871094 337.929688 609.082031 339.40625 C 608.292969 340.882812 607.464844 342.339844 606.605469 343.777344 C 605.746094 345.214844 604.847656 346.628906 603.917969 348.019531 C 602.988281 349.414062 602.023438 350.78125 601.027344 352.128906 C 600.027344 353.472656 599 354.792969 597.9375 356.085938 C 596.875 357.382812 595.78125 358.648438 594.65625 359.890625 C 593.53125 361.132812 592.375 362.34375 591.191406 363.527344 Z M 591.191406 363.527344 " fill-opacity="1" fill-rule="nonzero"/></svg>