<svg xmlns="http://www.w3.org/2000/svg" xmlns:xlink="http://www.w3.org/1999/xlink" width="1080" zoomAndPan="magnify" viewBox="0 0 810 809.999993" height="1080" preserveAspectRatio="xMidYMid meet" version="1.0"><defs><clipPath id="63dd27a983"><path d="M 125 173.746094 L 687 173.746094 L 687 413 L 125 413 Z M 125 173.746094 " clip-rule="nonzero"/></clipPath><clipPath id="7d520e4a0d"><path d="M 81 209 L 729 209 L 729 636.496094 L 81 636.496094 Z M 81 209 " clip-rule="nonzero"/></clipPath></defs><g clip-path="url(#63dd27a983)"><path fill="#ffffff" d="M 686.203125 179.0625 C 677.617188 175.492188 668.675781 173.71875 659.378906 173.746094 L 150.621094 173.746094 C 141.808594 173.757812 133.328125 175.453125 125.183594 178.832031 L 405 412.859375 Z M 686.203125 179.0625 " fill-opacity="1" fill-rule="nonzero"/></g><g clip-path="url(#7d520e4a0d)"><path fill="#ffffff" d="M 720.425781 210.746094 L 419.800781 460.730469 C 417.71875 462.453125 415.410156 463.769531 412.867188 464.683594 C 410.324219 465.597656 407.703125 466.054688 405 466.046875 C 402.296875 466.054688 399.675781 465.597656 397.132812 464.683594 C 394.589844 463.769531 392.28125 462.453125 390.199219 460.730469 L 90.035156 209.820312 C 87.222656 214.921875 85.070312 220.292969 83.585938 225.925781 C 82.097656 231.5625 81.316406 237.292969 81.246094 243.121094 L 81.246094 566.875 C 81.246094 568.007812 81.273438 569.144531 81.332031 570.277344 C 81.386719 571.410156 81.46875 572.542969 81.582031 573.671875 C 81.691406 574.804688 81.832031 575.929688 82 577.054688 C 82.164062 578.175781 82.359375 579.292969 82.582031 580.40625 C 82.800781 581.519531 83.050781 582.628906 83.328125 583.730469 C 83.601562 584.832031 83.90625 585.925781 84.234375 587.011719 C 84.5625 588.097656 84.921875 589.175781 85.300781 590.246094 C 85.683594 591.3125 86.09375 592.375 86.527344 593.421875 C 86.960938 594.472656 87.421875 595.507812 87.90625 596.535156 C 88.394531 597.5625 88.902344 598.574219 89.4375 599.578125 C 89.972656 600.578125 90.535156 601.566406 91.117188 602.539062 C 91.699219 603.511719 92.308594 604.472656 92.9375 605.417969 C 93.570312 606.359375 94.222656 607.289062 94.898438 608.199219 C 95.578125 609.113281 96.273438 610.007812 96.996094 610.882812 C 97.714844 611.761719 98.457031 612.621094 99.21875 613.464844 C 99.980469 614.304688 100.765625 615.125 101.566406 615.929688 C 102.371094 616.730469 103.191406 617.515625 104.03125 618.277344 C 104.875 619.039062 105.734375 619.78125 106.613281 620.5 C 107.488281 621.222656 108.382812 621.917969 109.296875 622.597656 C 110.207031 623.273438 111.136719 623.925781 112.078125 624.558594 C 113.023438 625.1875 113.984375 625.796875 114.957031 626.378906 C 115.929688 626.960938 116.917969 627.523438 117.917969 628.058594 C 118.921875 628.59375 119.933594 629.101562 120.960938 629.589844 C 121.988281 630.074219 123.023438 630.535156 124.074219 630.96875 C 125.121094 631.402344 126.183594 631.8125 127.25 632.195312 C 128.320312 632.574219 129.398438 632.933594 130.484375 633.261719 C 131.570312 633.589844 132.664062 633.894531 133.765625 634.167969 C 134.867188 634.445312 135.976562 634.695312 137.089844 634.914062 C 138.203125 635.136719 139.320312 635.332031 140.441406 635.496094 C 141.566406 635.664062 142.691406 635.804688 143.824219 635.914062 C 144.953125 636.027344 146.085938 636.109375 147.21875 636.164062 C 148.351562 636.222656 149.488281 636.25 150.621094 636.25 L 659.378906 636.25 C 660.511719 636.25 661.648438 636.222656 662.78125 636.164062 C 663.914062 636.109375 665.046875 636.027344 666.175781 635.914062 C 667.308594 635.804688 668.433594 635.664062 669.554688 635.496094 C 670.679688 635.332031 671.796875 635.136719 672.910156 634.914062 C 674.023438 634.695312 675.132812 634.445312 676.234375 634.167969 C 677.335938 633.894531 678.429688 633.589844 679.515625 633.261719 C 680.601562 632.933594 681.679688 632.574219 682.75 632.195312 C 683.816406 631.8125 684.878906 631.402344 685.925781 630.96875 C 686.976562 630.535156 688.011719 630.074219 689.039062 629.589844 C 690.066406 629.101562 691.078125 628.59375 692.082031 628.058594 C 693.082031 627.523438 694.070312 626.960938 695.042969 626.378906 C 696.015625 625.796875 696.976562 625.1875 697.921875 624.558594 C 698.863281 623.925781 699.792969 623.273438 700.703125 622.597656 C 701.617188 621.917969 702.511719 621.222656 703.386719 620.5 C 704.265625 619.78125 705.125 619.039062 705.96875 618.277344 C 706.808594 617.515625 707.628906 616.730469 708.433594 615.929688 C 709.234375 615.125 710.019531 614.304688 710.78125 613.464844 C 711.542969 612.621094 712.285156 611.761719 713.003906 610.882812 C 713.726562 610.007812 714.421875 609.113281 715.101562 608.199219 C 715.777344 607.289062 716.429688 606.359375 717.0625 605.417969 C 717.691406 604.472656 718.300781 603.511719 718.882812 602.539062 C 719.464844 601.566406 720.027344 600.578125 720.5625 599.578125 C 721.097656 598.574219 721.605469 597.5625 722.09375 596.535156 C 722.578125 595.507812 723.039062 594.472656 723.472656 593.421875 C 723.90625 592.375 724.316406 591.3125 724.695312 590.246094 C 725.078125 589.175781 725.4375 588.097656 725.765625 587.011719 C 726.09375 585.925781 726.398438 584.832031 726.671875 583.730469 C 726.949219 582.628906 727.199219 581.519531 727.417969 580.40625 C 727.640625 579.292969 727.835938 578.175781 728 577.054688 C 728.167969 575.929688 728.308594 574.804688 728.417969 573.671875 C 728.53125 572.542969 728.613281 571.410156 728.667969 570.277344 C 728.726562 569.144531 728.753906 568.007812 728.753906 566.875 L 728.753906 243.121094 C 728.707031 237.464844 727.976562 231.902344 726.570312 226.425781 C 725.160156 220.949219 723.113281 215.722656 720.425781 210.746094 Z M 720.425781 210.746094 " fill-opacity="1" fill-rule="nonzero"/></g></svg>