<svg xmlns="http://www.w3.org/2000/svg" xmlns:xlink="http://www.w3.org/1999/xlink" width="1080" zoomAndPan="magnify" viewBox="0 0 810 809.999993" height="1080" preserveAspectRatio="xMidYMid meet" version="1.0"><defs><g/></defs><g fill="#f8e559" fill-opacity="1"><g transform="translate(210.216043, 538.463133)"><g><path d="M 133.546875 -250.703125 C 134.453125 -249.691406 135.515625 -249.207031 136.734375 -249.25 C 137.960938 -249.300781 139.0625 -249.019531 140.03125 -248.40625 C 140.320312 -247.550781 140.597656 -246.742188 140.859375 -245.984375 C 141.128906 -245.222656 141.410156 -244.421875 141.703125 -243.578125 C 141.285156 -241.515625 140.988281 -239.363281 140.8125 -237.125 C 140.644531 -234.882812 140.289062 -232.625 139.75 -230.34375 C 140.269531 -229.382812 140.132812 -228.53125 139.34375 -227.78125 C 138.5625 -227.039062 138.441406 -226.1875 138.984375 -225.21875 C 138.460938 -224.488281 138.222656 -223.648438 138.265625 -222.703125 C 138.304688 -221.765625 138.101562 -220.84375 137.65625 -219.9375 C 137.550781 -219.707031 137.457031 -219.4375 137.375 -219.125 C 137.300781 -218.8125 137.296875 -218.566406 137.359375 -218.390625 C 137.242188 -217.597656 137.164062 -216.859375 137.125 -216.171875 C 137.082031 -215.492188 136.894531 -214.8125 136.5625 -214.125 C 136.382812 -213.5 136.171875 -212.859375 135.921875 -212.203125 C 135.679688 -211.546875 135.59375 -210.851562 135.65625 -210.125 C 135.664062 -209.550781 135.472656 -209.003906 135.078125 -208.484375 C 134.691406 -207.972656 134.53125 -207.351562 134.59375 -206.625 C 134.5625 -205.644531 134.476562 -204.65625 134.34375 -203.65625 C 134.207031 -202.664062 134.003906 -201.742188 133.734375 -200.890625 C 133.679688 -199.929688 133.59375 -198.957031 133.46875 -197.96875 C 133.34375 -196.976562 133.054688 -196.019531 132.609375 -195.09375 C 132.109375 -194.34375 131.878906 -193.503906 131.921875 -192.578125 C 131.960938 -191.648438 131.925781 -190.785156 131.8125 -189.984375 C 131.601562 -188.953125 131.503906 -187.867188 131.515625 -186.734375 C 131.535156 -185.609375 131.273438 -184.476562 130.734375 -183.34375 C 131.253906 -182.363281 131.085938 -181.441406 130.234375 -180.578125 C 129.390625 -179.722656 129.257812 -178.734375 129.84375 -177.609375 C 129.519531 -176.347656 129.269531 -175.023438 129.09375 -173.640625 C 128.914062 -172.253906 128.78125 -170.875 128.6875 -169.5 C 128.582031 -168.144531 128.378906 -166.796875 128.078125 -165.453125 C 127.785156 -164.109375 127.59375 -162.757812 127.5 -161.40625 C 127.238281 -159.976562 127.054688 -158.582031 126.953125 -157.21875 C 126.859375 -155.851562 126.648438 -154.550781 126.328125 -153.3125 C 126.554688 -152.632812 126.546875 -152.109375 126.296875 -151.734375 C 126.046875 -151.359375 125.835938 -150.851562 125.671875 -150.21875 C 125.398438 -149.351562 125.144531 -148.453125 124.90625 -147.515625 C 124.664062 -146.585938 124.75 -145.53125 125.15625 -144.34375 C 125.382812 -144.226562 125.421875 -143.859375 125.265625 -143.234375 C 124.816406 -141.191406 124.492188 -139.085938 124.296875 -136.921875 C 124.109375 -134.765625 123.800781 -132.660156 123.375 -130.609375 C 123.164062 -128.460938 122.960938 -126.304688 122.765625 -124.140625 C 122.566406 -121.984375 122.171875 -119.84375 121.578125 -117.71875 C 121.578125 -117.164062 121.664062 -116.632812 121.84375 -116.125 C 122.019531 -115.613281 122.144531 -114.988281 122.21875 -114.25 C 121.925781 -113.96875 121.628906 -113.582031 121.328125 -113.09375 C 121.023438 -112.613281 120.757812 -112.140625 120.53125 -111.671875 C 121.289062 -110.609375 121.488281 -109.632812 121.125 -108.75 C 120.769531 -107.863281 120.738281 -106.992188 121.03125 -106.140625 C 120.613281 -104.097656 120.285156 -102.035156 120.046875 -99.953125 C 119.816406 -97.878906 119.488281 -95.828125 119.0625 -93.796875 C 118.894531 -93.148438 119.03125 -92.476562 119.46875 -91.78125 C 119.90625 -91.082031 119.757812 -90.410156 119.03125 -89.765625 C 119.332031 -88.921875 119.367188 -88.125 119.140625 -87.375 C 118.921875 -86.632812 118.757812 -85.875 118.65625 -85.09375 C 118.71875 -84.351562 118.625 -83.65625 118.375 -83 C 118.132812 -82.34375 117.929688 -81.707031 117.765625 -81.09375 C 117.773438 -80.507812 117.925781 -79.9375 118.21875 -79.375 C 118.507812 -78.8125 118.488281 -78.191406 118.15625 -77.515625 C 117.78125 -76.421875 117.679688 -75.050781 117.859375 -73.40625 C 117.867188 -72.84375 117.691406 -72.257812 117.328125 -71.65625 C 116.972656 -71.050781 116.992188 -70.445312 117.390625 -69.84375 C 117.003906 -69.320312 116.914062 -68.757812 117.125 -68.15625 C 117.332031 -67.5625 117.4375 -66.984375 117.4375 -66.421875 C 117.507812 -65.691406 117.460938 -65.007812 117.296875 -64.375 C 117.140625 -63.75 117.003906 -63.046875 116.890625 -62.265625 C 116.679688 -61.785156 116.640625 -61.234375 116.765625 -60.609375 C 116.890625 -59.992188 116.664062 -59.398438 116.09375 -58.828125 C 116.550781 -58.046875 116.726562 -57.253906 116.625 -56.453125 C 116.519531 -55.648438 116.414062 -54.851562 116.3125 -54.0625 C 116.15625 -53.4375 116.109375 -52.753906 116.171875 -52.015625 C 116.242188 -51.285156 116.082031 -50.660156 115.6875 -50.140625 C 115.351562 -49.453125 115.390625 -48.800781 115.796875 -48.1875 C 116.203125 -47.570312 116.296875 -47.03125 116.078125 -46.5625 C 115.679688 -46.050781 115.539062 -45.484375 115.65625 -44.859375 C 115.78125 -44.242188 115.679688 -43.585938 115.359375 -42.890625 C 115.128906 -42.429688 115.070312 -41.890625 115.1875 -41.265625 C 115.3125 -40.648438 115.179688 -40.085938 114.796875 -39.578125 C 115.253906 -38.785156 115.429688 -37.988281 115.328125 -37.1875 C 115.222656 -36.394531 115.125 -35.601562 115.03125 -34.8125 C 115.039062 -34.238281 114.976562 -33.597656 114.84375 -32.890625 C 114.707031 -32.179688 114.757812 -31.484375 115 -30.796875 C 115.363281 -29.222656 115.039062 -27.691406 114.03125 -26.203125 C 114.539062 -25.242188 114.703125 -24.347656 114.515625 -23.515625 C 114.335938 -22.691406 114.3125 -21.828125 114.4375 -20.921875 C 114.550781 -20.578125 114.664062 -20.234375 114.78125 -19.890625 C 114.90625 -19.554688 114.910156 -19.273438 114.796875 -19.046875 C 114.472656 -18.359375 114.382812 -17.660156 114.53125 -16.953125 C 114.675781 -16.253906 114.46875 -15.613281 113.90625 -15.03125 C 114.613281 -13.570312 114.628906 -12.15625 113.953125 -10.78125 C 114.484375 -9.820312 114.625 -8.875 114.375 -7.9375 C 114.132812 -7 113.992188 -6.046875 113.953125 -5.078125 C 114.015625 -4.335938 113.953125 -3.550781 113.765625 -2.71875 C 113.578125 -1.894531 113.429688 -1.085938 113.328125 -0.296875 C 113.210938 0.503906 113.160156 1.1875 113.171875 1.75 C 113.179688 2.3125 113.332031 3.015625 113.625 3.859375 C 113.0625 4.441406 112.828125 5.144531 112.921875 5.96875 C 113.023438 6.789062 112.941406 7.628906 112.671875 8.484375 C 112.566406 8.710938 112.628906 9.019531 112.859375 9.40625 C 113.085938 9.800781 113.226562 10.082031 113.28125 10.25 C 113.007812 11.101562 112.734375 11.816406 112.453125 12.390625 C 112.179688 12.960938 111.960938 13.566406 111.796875 14.203125 C 111.710938 16.117188 111.125 17.695312 110.03125 18.9375 C 108.9375 20.175781 107.570312 21.175781 105.9375 21.9375 C 105.25 21.59375 104.609375 21.238281 104.015625 20.875 C 103.421875 20.519531 102.664062 20.125 101.75 19.6875 C 101.394531 18.664062 100.992188 17.519531 100.546875 16.25 C 100.109375 14.976562 99.679688 13.75 99.265625 12.5625 C 99.546875 12.28125 99.695312 12.035156 99.71875 11.828125 C 99.75 11.628906 99.820312 11.414062 99.9375 11.1875 C 99.695312 10.5 99.429688 9.734375 99.140625 8.890625 C 98.847656 8.046875 98.582031 7.285156 98.34375 6.609375 C 98.5625 6.160156 98.726562 5.816406 98.84375 5.578125 C 98.957031 5.347656 99.066406 5.117188 99.171875 4.890625 C 98.992188 4.378906 98.84375 3.953125 98.71875 3.609375 C 98.601562 3.273438 98.460938 2.859375 98.296875 2.359375 C 98.296875 2.359375 98.515625 1.90625 98.953125 1 C 98.710938 0.320312 98.445312 -0.441406 98.15625 -1.296875 C 97.863281 -2.148438 97.566406 -3 97.265625 -3.84375 C 97.484375 -4.300781 97.789062 -4.789062 98.1875 -5.3125 C 98.007812 -5.8125 97.816406 -6.359375 97.609375 -6.953125 C 97.398438 -7.554688 97.207031 -8.113281 97.03125 -8.625 C 97.3125 -9.476562 97.488281 -10.34375 97.5625 -11.21875 C 97.644531 -12.09375 97.789062 -13.046875 98 -14.078125 C 97.875 -14.410156 97.722656 -14.832031 97.546875 -15.34375 C 97.367188 -15.851562 97.164062 -16.445312 96.9375 -17.125 C 97.050781 -17.351562 97.144531 -17.625 97.21875 -17.9375 C 97.300781 -18.25 97.484375 -18.554688 97.765625 -18.859375 C 97.648438 -19.191406 97.519531 -19.566406 97.375 -19.984375 C 97.226562 -20.410156 97.097656 -20.796875 96.984375 -21.140625 C 97.085938 -21.359375 97.175781 -21.625 97.25 -21.9375 C 97.332031 -22.25 97.425781 -22.519531 97.53125 -22.75 C 97.300781 -23.425781 97.082031 -24.0625 96.875 -24.65625 C 96.664062 -25.257812 96.472656 -25.8125 96.296875 -26.3125 C 96.523438 -26.769531 96.691406 -27.113281 96.796875 -27.34375 C 96.910156 -27.570312 97.023438 -27.796875 97.140625 -28.015625 C 96.847656 -28.867188 96.703125 -29.296875 96.703125 -29.296875 C 96.398438 -30.148438 96.335938 -30.609375 96.515625 -30.671875 C 97.242188 -31.296875 97.378906 -32 96.921875 -32.78125 C 96.460938 -33.570312 96.363281 -34.394531 96.625 -35.25 C 96.789062 -35.875 96.9375 -36.546875 97.0625 -37.265625 C 97.195312 -37.984375 97.265625 -38.625 97.265625 -39.1875 C 96.566406 -40.082031 96.46875 -40.898438 96.96875 -41.640625 C 97.46875 -42.378906 97.488281 -43.148438 97.03125 -43.953125 C 97.539062 -44.691406 97.71875 -45.414062 97.5625 -46.125 C 97.40625 -46.832031 97.210938 -47.523438 96.984375 -48.203125 C 97.890625 -48.890625 98.066406 -49.613281 97.515625 -50.375 C 96.960938 -51.144531 96.828125 -51.953125 97.109375 -52.796875 C 97.804688 -54.566406 98.09375 -55.90625 97.96875 -56.8125 C 97.726562 -57.488281 97.773438 -58.171875 98.109375 -58.859375 C 98.453125 -59.546875 98.390625 -60.28125 97.921875 -61.0625 C 97.503906 -61.695312 97.507812 -62.367188 97.9375 -63.078125 C 98.363281 -63.785156 98.375 -64.453125 97.96875 -65.078125 C 97.675781 -65.359375 97.609375 -65.804688 97.765625 -66.421875 C 97.929688 -67.046875 98.046875 -67.5625 98.109375 -67.96875 C 98.265625 -68.59375 98.363281 -69.25 98.40625 -69.9375 C 98.457031 -70.625 98.53125 -71.363281 98.625 -72.15625 C 98.800781 -72.769531 99 -73.445312 99.21875 -74.1875 C 99.4375 -74.9375 99.457031 -75.566406 99.28125 -76.078125 C 98.988281 -76.921875 98.921875 -77.65625 99.078125 -78.28125 C 99.242188 -78.90625 99.289062 -79.59375 99.21875 -80.34375 C 99.039062 -80.851562 99.128906 -81.40625 99.484375 -82 C 99.847656 -82.59375 99.828125 -83.203125 99.421875 -83.828125 C 99.984375 -84.390625 100.085938 -85.039062 99.734375 -85.78125 C 99.390625 -86.53125 99.296875 -87.210938 99.453125 -87.828125 C 99.617188 -88.453125 99.695312 -89.046875 99.6875 -89.609375 C 99.675781 -90.179688 99.757812 -90.78125 99.9375 -91.40625 C 100.320312 -91.914062 100.410156 -92.46875 100.203125 -93.0625 C 99.992188 -93.664062 100.171875 -94.253906 100.734375 -94.828125 C 100.203125 -96.347656 100.125 -97.9375 100.5 -99.59375 C 100.832031 -100.28125 101.007812 -101.003906 101.03125 -101.765625 C 101.050781 -102.535156 101.109375 -103.316406 101.203125 -104.109375 C 101.328125 -104.898438 101.4375 -105.695312 101.53125 -106.5 C 101.632812 -107.300781 101.65625 -108.070312 101.59375 -108.8125 C 102.09375 -109.539062 102.179688 -110.234375 101.859375 -110.890625 C 101.546875 -111.546875 101.4375 -112.269531 101.53125 -113.0625 C 101.695312 -113.6875 101.941406 -114.335938 102.265625 -115.015625 C 102.597656 -115.703125 102.648438 -116.382812 102.421875 -117.0625 C 102.179688 -117.75 102.285156 -118.40625 102.734375 -119.03125 C 103.191406 -119.664062 103.101562 -120.34375 102.46875 -121.0625 C 103.019531 -121.644531 103.21875 -122.289062 103.0625 -123 C 102.914062 -123.707031 103.007812 -124.40625 103.34375 -125.09375 C 103.675781 -125.78125 103.804688 -126.488281 103.734375 -127.21875 C 103.671875 -127.957031 103.632812 -128.609375 103.625 -129.171875 C 103.726562 -129.960938 103.863281 -130.671875 104.03125 -131.296875 C 104.195312 -131.929688 104.332031 -132.648438 104.4375 -133.453125 C 104.425781 -134.003906 104.484375 -134.632812 104.609375 -135.34375 C 104.742188 -136.0625 104.8125 -136.707031 104.8125 -137.28125 C 105.550781 -142.289062 106.242188 -147.28125 106.890625 -152.25 C 107.535156 -157.21875 108.132812 -162.175781 108.6875 -167.125 C 108.851562 -167.757812 108.960938 -168.414062 109.015625 -169.09375 C 109.066406 -169.769531 109.34375 -170.484375 109.84375 -171.234375 C 110.289062 -171.578125 110.394531 -172.085938 110.15625 -172.765625 C 109.925781 -173.441406 110.007812 -174.035156 110.40625 -174.546875 C 110.332031 -175.285156 110.414062 -175.984375 110.65625 -176.640625 C 110.90625 -177.304688 111.195312 -177.976562 111.53125 -178.65625 C 111.695312 -179.28125 111.800781 -179.929688 111.84375 -180.609375 C 111.894531 -181.296875 111.890625 -182.015625 111.828125 -182.765625 C 111.992188 -182.816406 111.789062 -183.125 111.21875 -183.6875 C 111.050781 -183.632812 110.878906 -183.578125 110.703125 -183.515625 C 107.003906 -175.566406 103.242188 -167.65625 99.421875 -159.78125 C 95.609375 -151.90625 91.726562 -144.050781 87.78125 -136.21875 C 87.84375 -136.039062 87.914062 -135.828125 88 -135.578125 C 88.09375 -135.328125 88.164062 -135.117188 88.21875 -134.953125 C 87.789062 -134.035156 87.351562 -133.117188 86.90625 -132.203125 C 86.46875 -131.285156 86.050781 -130.285156 85.65625 -129.203125 C 84.9375 -127.992188 84.25 -126.707031 83.59375 -125.34375 C 82.9375 -123.976562 82.269531 -122.609375 81.59375 -121.234375 C 81.15625 -119.753906 80.445312 -118.367188 79.46875 -117.078125 C 78.5 -115.785156 78.191406 -114.347656 78.546875 -112.765625 C 77.878906 -111.398438 77.210938 -110.03125 76.546875 -108.65625 C 75.878906 -107.28125 75.191406 -106 74.484375 -104.8125 C 74.597656 -104.476562 74.679688 -104.222656 74.734375 -104.046875 C 74.796875 -103.878906 74.859375 -103.710938 74.921875 -103.546875 C 73.878906 -101.078125 72.757812 -98.6875 71.5625 -96.375 C 70.375 -94.0625 69.25 -91.679688 68.1875 -89.234375 C 68.082031 -89.003906 68.144531 -88.546875 68.375 -87.859375 C 68.039062 -87.171875 67.679688 -86.429688 67.296875 -85.640625 C 66.921875 -84.847656 66.566406 -84.109375 66.234375 -83.421875 C 65.773438 -82.503906 65.351562 -81.644531 64.96875 -80.84375 C 64.59375 -80.039062 64.179688 -79.1875 63.734375 -78.28125 C 63.410156 -77.59375 63.035156 -76.890625 62.609375 -76.171875 C 62.191406 -75.453125 62.15625 -74.582031 62.5 -73.5625 C 62.90625 -73.519531 63.109375 -73.5 63.109375 -73.5 C 64.191406 -73.675781 65.28125 -73.957031 66.375 -74.34375 C 67.476562 -74.726562 68.546875 -75.097656 69.578125 -75.453125 C 69.859375 -75.171875 70.097656 -75.015625 70.296875 -74.984375 C 70.492188 -74.960938 70.707031 -74.898438 70.9375 -74.796875 C 71.78125 -75.085938 72.707031 -75.40625 73.71875 -75.75 C 74.738281 -76.101562 75.757812 -76.460938 76.78125 -76.828125 C 77.070312 -76.535156 77.375 -76.347656 77.6875 -76.265625 C 78 -76.191406 78.265625 -76.101562 78.484375 -76 C 79.492188 -76.351562 80.507812 -76.703125 81.53125 -77.046875 C 82.550781 -77.398438 83.484375 -77.726562 84.328125 -78.03125 C 85.078125 -77.53125 85.804688 -77.351562 86.515625 -77.5 C 87.234375 -77.644531 87.96875 -77.46875 88.71875 -76.96875 C 89.21875 -76.570312 89.835938 -76.40625 90.578125 -76.46875 C 91.316406 -76.53125 92.03125 -76.398438 92.71875 -76.078125 C 93.070312 -75.054688 93.410156 -74.078125 93.734375 -73.140625 C 94.054688 -72.210938 94.394531 -71.238281 94.75 -70.21875 C 94.40625 -69.539062 94.066406 -68.859375 93.734375 -68.171875 C 93.410156 -67.484375 93.085938 -66.800781 92.765625 -66.125 C 92.421875 -66 92.035156 -65.863281 91.609375 -65.71875 C 91.191406 -65.570312 90.640625 -65.378906 89.953125 -65.140625 C 89.453125 -63.828125 89.097656 -62.660156 88.890625 -61.640625 C 87.472656 -61.910156 86.125 -62.109375 84.84375 -62.234375 C 83.5625 -62.359375 82.296875 -62.582031 81.046875 -62.90625 C 80.648438 -62.957031 80.078125 -63.234375 79.328125 -63.734375 C 79.328125 -63.734375 79.210938 -64.070312 78.984375 -64.75 C 78.347656 -64.914062 77.703125 -64.976562 77.046875 -64.9375 C 76.398438 -64.894531 75.816406 -65.070312 75.296875 -65.46875 C 74.796875 -65.289062 74.25 -65.097656 73.65625 -64.890625 C 73.0625 -64.691406 72.421875 -64.472656 71.734375 -64.234375 C 71.503906 -64.335938 71.234375 -64.429688 70.921875 -64.515625 C 70.609375 -64.609375 70.335938 -64.710938 70.109375 -64.828125 C 69.097656 -64.472656 67.992188 -64.085938 66.796875 -63.671875 C 65.609375 -63.265625 64.425781 -62.851562 63.25 -62.4375 C 63.195312 -62.601562 62.628906 -62.878906 61.546875 -63.265625 C 61.035156 -63.085938 60.476562 -62.894531 59.875 -62.6875 C 59.28125 -62.476562 58.644531 -62.257812 57.96875 -62.03125 C 58.03125 -61.863281 57.992188 -61.703125 57.859375 -61.546875 C 57.722656 -61.398438 57.570312 -61.300781 57.40625 -61.25 C 57.019531 -60.164062 56.519531 -59.132812 55.90625 -58.15625 C 55.289062 -57.1875 55.101562 -56.082031 55.34375 -54.84375 C 54.894531 -53.925781 54.40625 -52.992188 53.875 -52.046875 C 53.351562 -51.097656 52.988281 -50.117188 52.78125 -49.109375 C 52.613281 -48.472656 52.460938 -47.800781 52.328125 -47.09375 C 52.191406 -46.394531 51.960938 -45.695312 51.640625 -45 C 51.421875 -44.53125 51.171875 -44.007812 50.890625 -43.4375 C 50.617188 -42.875 50.597656 -42.253906 50.828125 -41.578125 C 50.835938 -41.023438 50.628906 -40.390625 50.203125 -39.671875 C 49.785156 -38.953125 49.410156 -38.25 49.078125 -37.5625 C 48.691406 -37.039062 48.53125 -36.410156 48.59375 -35.671875 C 48.664062 -34.941406 48.535156 -34.238281 48.203125 -33.5625 C 47.648438 -32.976562 47.273438 -32.269531 47.078125 -31.4375 C 46.878906 -30.613281 46.734375 -29.804688 46.640625 -29.015625 C 46.535156 -28.222656 46.300781 -27.523438 45.9375 -26.921875 C 45.582031 -26.316406 45.234375 -25.675781 44.890625 -25 C 44.679688 -24.53125 44.664062 -24.039062 44.84375 -23.53125 C 45.019531 -23.03125 44.910156 -22.519531 44.515625 -22 C 43.835938 -21.207031 43.59375 -20.269531 43.78125 -19.1875 C 43.789062 -18.625 43.613281 -18.039062 43.25 -17.4375 C 42.882812 -16.832031 42.625 -16.222656 42.46875 -15.609375 C 42.582031 -15.265625 42.695312 -14.921875 42.8125 -14.578125 C 42.9375 -14.242188 43.085938 -13.828125 43.265625 -13.328125 C 43.160156 -13.085938 43.019531 -12.796875 42.84375 -12.453125 C 42.675781 -12.117188 42.539062 -11.832031 42.4375 -11.59375 C 42.550781 -11.25 42.707031 -10.921875 42.90625 -10.609375 C 43.113281 -10.304688 43.164062 -10.039062 43.0625 -9.8125 C 42.769531 -8.957031 42.613281 -8.144531 42.59375 -7.375 C 42.582031 -6.613281 42.5 -5.914062 42.34375 -5.28125 C 42.226562 -4.488281 42.257812 -3.695312 42.4375 -2.90625 C 42.625 -2.113281 42.582031 -1.289062 42.3125 -0.4375 C 42.144531 0.175781 42.007812 0.882812 41.90625 1.6875 C 41.8125 2.488281 41.710938 3.285156 41.609375 4.078125 C 41.566406 5.609375 41.4375 7.03125 41.21875 8.34375 C 41.007812 9.65625 40.460938 10.9375 39.578125 12.1875 C 39.242188 12.875 39.140625 13.671875 39.265625 14.578125 C 39.390625 15.492188 39.082031 16.265625 38.34375 16.890625 C 37.5625 17.359375 37.003906 17.929688 36.671875 18.609375 C 36.347656 19.296875 36.019531 19.984375 35.6875 20.671875 C 35.175781 20.847656 34.75 20.992188 34.40625 21.109375 C 34.0625 21.234375 33.722656 21.351562 33.390625 21.46875 C 33.109375 21.75 32.925781 22.046875 32.84375 22.359375 C 32.757812 22.679688 32.582031 22.984375 32.3125 23.265625 C 31.800781 23.453125 31.25 23.644531 30.65625 23.84375 C 30.0625 24.050781 29.507812 24.242188 29 24.421875 C 27.738281 24.085938 26.523438 23.742188 25.359375 23.390625 C 24.203125 23.035156 23.078125 22.664062 21.984375 22.28125 C 21.753906 21.601562 21.535156 20.96875 21.328125 20.375 C 21.117188 19.78125 20.925781 19.226562 20.75 18.71875 C 21.019531 17.875 21.273438 17.222656 21.515625 16.765625 C 21.390625 16.421875 21.253906 16.035156 21.109375 15.609375 C 20.960938 15.191406 20.832031 14.816406 20.71875 14.484375 C 20.925781 14.015625 21.140625 13.550781 21.359375 13.09375 C 21.585938 12.632812 21.863281 12.0625 22.1875 11.375 C 22.070312 11.039062 21.957031 10.703125 21.84375 10.359375 C 21.726562 10.023438 21.613281 9.691406 21.5 9.359375 C 21.539062 8.960938 21.5625 8.765625 21.5625 8.765625 C 22.164062 7.773438 22.5625 6.726562 22.75 5.625 C 22.945312 4.519531 23.035156 3.398438 23.015625 2.265625 C 23.234375 1.234375 23.390625 0.179688 23.484375 -0.890625 C 23.585938 -1.960938 23.75 -3.015625 23.96875 -4.046875 C 24.125 -4.660156 24.140625 -5.28125 24.015625 -5.90625 C 23.890625 -6.539062 23.820312 -7.140625 23.8125 -7.703125 C 23.8125 -8.265625 23.878906 -8.898438 24.015625 -9.609375 C 24.160156 -10.328125 24.3125 -11 24.46875 -11.625 C 24.632812 -12.257812 24.710938 -12.859375 24.703125 -13.421875 C 24.691406 -13.992188 24.765625 -14.585938 24.921875 -15.203125 C 25.035156 -15.441406 25.003906 -15.8125 24.828125 -16.3125 C 24.648438 -16.820312 24.503906 -17.25 24.390625 -17.59375 C 24.660156 -18.445312 24.851562 -18.988281 24.96875 -19.21875 C 24.789062 -19.71875 24.613281 -20.222656 24.4375 -20.734375 C 24.257812 -21.242188 24.050781 -21.835938 23.8125 -22.515625 C 23.925781 -22.742188 24.019531 -23.015625 24.09375 -23.328125 C 24.175781 -23.640625 24.328125 -24.03125 24.546875 -24.5 C 24.367188 -25.007812 24.175781 -25.554688 23.96875 -26.140625 C 23.769531 -26.734375 23.582031 -27.285156 23.40625 -27.796875 C 23.632812 -28.242188 23.832031 -28.78125 24 -29.40625 C 23.46875 -30.9375 22.921875 -32.507812 22.359375 -34.125 C 21.796875 -35.738281 21.253906 -37.304688 20.734375 -38.828125 C 19.910156 -39.492188 19.125 -40.21875 18.375 -41 C 17.632812 -41.789062 16.726562 -42.378906 15.65625 -42.765625 C 15.125 -44.296875 14.226562 -44.9375 12.96875 -44.6875 C 11.71875 -44.445312 10.695312 -44.664062 9.90625 -45.34375 C 8.882812 -44.988281 7.863281 -44.632812 6.84375 -44.28125 C 5.832031 -43.925781 4.816406 -43.570312 3.796875 -43.21875 C 3.117188 -43.550781 2.703125 -44.210938 2.546875 -45.203125 C 2.390625 -46.191406 1.75 -46.6875 0.625 -46.6875 C 1.1875 -47.25 1.660156 -47.785156 2.046875 -48.296875 C 2.429688 -48.816406 2.929688 -49.28125 3.546875 -49.6875 C 3.953125 -50.207031 4.476562 -50.484375 5.125 -50.515625 C 5.769531 -50.546875 6.03125 -51.015625 5.90625 -51.921875 C 6.757812 -52.210938 7.609375 -52.503906 8.453125 -52.796875 C 9.304688 -53.097656 10.15625 -53.394531 11 -53.6875 C 11.332031 -54.375 11.609375 -54.945312 11.828125 -55.40625 C 13.523438 -55.988281 15.265625 -56.585938 17.046875 -57.203125 C 18.828125 -57.828125 20.648438 -58.460938 22.515625 -59.109375 C 22.617188 -59.335938 22.753906 -59.625 22.921875 -59.96875 C 23.085938 -60.320312 23.222656 -60.613281 23.328125 -60.84375 C 28.753906 -62.71875 34.140625 -64.582031 39.484375 -66.4375 C 44.828125 -68.300781 50.125 -70.144531 55.375 -71.96875 C 55.9375 -72.53125 56.457031 -73.082031 56.9375 -73.625 C 57.425781 -74.175781 57.859375 -74.710938 58.234375 -75.234375 C 58.734375 -75.960938 58.9375 -76.738281 58.84375 -77.5625 C 58.757812 -78.394531 58.960938 -79.179688 59.453125 -79.921875 C 59.953125 -80.671875 60.351562 -81.425781 60.65625 -82.1875 C 60.96875 -82.957031 61.375 -83.71875 61.875 -84.46875 C 62.3125 -85.375 62.722656 -86.226562 63.109375 -87.03125 C 63.492188 -87.84375 63.910156 -88.703125 64.359375 -89.609375 C 64.640625 -90.453125 64.988281 -91.234375 65.40625 -91.953125 C 65.820312 -92.671875 66.191406 -93.378906 66.515625 -94.078125 C 66.785156 -94.921875 67.128906 -95.695312 67.546875 -96.40625 C 67.972656 -97.125 68.378906 -97.738281 68.765625 -98.25 C 68.585938 -98.757812 68.46875 -99.097656 68.40625 -99.265625 C 68.351562 -99.429688 68.265625 -99.6875 68.140625 -100.03125 C 69.421875 -102.375 70.640625 -104.742188 71.796875 -107.140625 C 72.960938 -109.546875 74.101562 -111.890625 75.21875 -114.171875 C 75.757812 -115.328125 76.265625 -116.457031 76.734375 -117.5625 C 77.203125 -118.675781 77.519531 -119.828125 77.6875 -121.015625 C 78.007812 -122.273438 78.5 -123.445312 79.15625 -124.53125 C 79.820312 -125.613281 80.441406 -126.726562 81.015625 -127.875 C 81.566406 -129.019531 82.113281 -130.160156 82.65625 -131.296875 C 83.207031 -132.429688 83.757812 -133.570312 84.3125 -134.71875 C 84.875 -135.863281 85.429688 -137.007812 85.984375 -138.15625 C 86.535156 -139.300781 87.085938 -140.441406 87.640625 -141.578125 C 88.085938 -142.484375 88.316406 -143.460938 88.328125 -144.515625 C 88.347656 -145.578125 88.664062 -146.585938 89.28125 -147.546875 C 89.78125 -148.296875 90.207031 -149.113281 90.5625 -150 C 90.914062 -150.882812 91.34375 -151.703125 91.84375 -152.453125 C 92.664062 -154.441406 93.601562 -156.382812 94.65625 -158.28125 C 94.945312 -159.132812 95.328125 -159.972656 95.796875 -160.796875 C 96.265625 -161.617188 96.722656 -162.488281 97.171875 -163.40625 C 96.992188 -163.914062 96.785156 -164.515625 96.546875 -165.203125 C 96.929688 -165.710938 97.359375 -166.378906 97.828125 -167.203125 C 98.304688 -168.035156 98.765625 -168.910156 99.203125 -169.828125 C 99.753906 -170.960938 100.335938 -172.15625 100.953125 -173.40625 C 101.566406 -174.664062 102.148438 -175.867188 102.703125 -177.015625 C 103.242188 -178.148438 103.796875 -179.289062 104.359375 -180.4375 C 104.921875 -181.582031 105.476562 -182.722656 106.03125 -183.859375 C 105.832031 -185.503906 106.109375 -186.882812 106.859375 -188 C 107.609375 -189.113281 108.265625 -190.25 108.828125 -191.40625 C 109.203125 -192.476562 109.707031 -193.601562 110.34375 -194.78125 C 110.988281 -195.957031 111.59375 -197.113281 112.15625 -198.25 C 112.3125 -198.875 112.453125 -199.539062 112.578125 -200.25 C 112.710938 -200.96875 112.863281 -201.640625 113.03125 -202.265625 C 113.300781 -203.117188 113.644531 -203.898438 114.0625 -204.609375 C 114.476562 -205.328125 114.828125 -206.113281 115.109375 -206.96875 C 115.492188 -207.476562 115.851562 -208.078125 116.1875 -208.765625 C 116.519531 -209.453125 116.847656 -210.140625 117.171875 -210.828125 C 117.671875 -211.578125 117.875 -212.359375 117.78125 -213.171875 C 117.6875 -213.992188 117.894531 -214.78125 118.40625 -215.53125 C 118.90625 -216.28125 119.347656 -217.050781 119.734375 -217.84375 C 120.117188 -218.644531 120.304688 -219.609375 120.296875 -220.734375 C 120.222656 -221.472656 120.476562 -222.226562 121.0625 -223 C 121.65625 -223.78125 122.003906 -224.566406 122.109375 -225.359375 C 122.097656 -226.492188 122.394531 -227.550781 123 -228.53125 C 123.601562 -229.507812 123.929688 -230.476562 123.984375 -231.4375 C 124.140625 -232.625 124.476562 -233.6875 125 -234.625 C 125.53125 -235.570312 125.851562 -236.445312 125.96875 -237.25 C 126.164062 -239.40625 126.773438 -241.328125 127.796875 -243.015625 C 128.828125 -244.710938 129.613281 -246.40625 130.15625 -248.09375 C 130.675781 -248.269531 131.144531 -248.429688 131.5625 -248.578125 C 131.988281 -248.734375 132.375 -248.867188 132.71875 -248.984375 C 132.820312 -249.222656 132.972656 -249.46875 133.171875 -249.71875 C 133.367188 -249.976562 133.492188 -250.304688 133.546875 -250.703125 Z M 50.1875 -59.03125 C 50.1875 -59.03125 49.925781 -59.507812 49.40625 -60.46875 C 46.6875 -59.519531 44.007812 -58.585938 41.375 -57.671875 C 38.75 -56.765625 36.085938 -55.84375 33.390625 -54.90625 C 32.921875 -55.132812 32.367188 -55.328125 31.734375 -55.484375 C 31.398438 -55.359375 31.019531 -55.222656 30.59375 -55.078125 C 30.175781 -54.929688 29.796875 -54.800781 29.453125 -54.6875 C 29.242188 -54.238281 28.890625 -53.640625 28.390625 -52.890625 C 27.191406 -52.472656 26.039062 -52.070312 24.9375 -51.6875 C 23.84375 -51.3125 22.703125 -50.914062 21.515625 -50.5 C 21.335938 -50.4375 21.191406 -50.296875 21.078125 -50.078125 C 21.203125 -49.734375 21.289062 -49.476562 21.34375 -49.3125 C 21.40625 -49.144531 21.523438 -48.804688 21.703125 -48.296875 C 22.671875 -48.816406 23.609375 -48.851562 24.515625 -48.40625 C 25.429688 -47.957031 26.34375 -47.515625 27.25 -47.078125 C 28.21875 -46.460938 29.160156 -45.789062 30.078125 -45.0625 C 31.003906 -44.34375 31.957031 -43.679688 32.9375 -43.078125 C 33.050781 -42.734375 33.164062 -42.390625 33.28125 -42.046875 C 33.40625 -41.710938 33.523438 -41.378906 33.640625 -41.046875 C 33.921875 -40.753906 34.175781 -40.554688 34.40625 -40.453125 C 34.632812 -40.347656 34.945312 -40.269531 35.34375 -40.21875 C 35.519531 -39.695312 35.664062 -39.265625 35.78125 -38.921875 C 35.90625 -38.585938 36.054688 -38.164062 36.234375 -37.65625 C 36.453125 -37.539062 36.9375 -37.234375 37.6875 -36.734375 C 38.09375 -36.117188 38.328125 -35.441406 38.390625 -34.703125 C 38.460938 -33.960938 38.835938 -33.429688 39.515625 -33.109375 C 40.078125 -34.242188 40.660156 -35.4375 41.265625 -36.6875 C 41.867188 -37.945312 42.5 -39.265625 43.15625 -40.640625 C 43.15625 -40.640625 43.125 -40.722656 43.0625 -40.890625 C 43.007812 -41.054688 42.957031 -41.222656 42.90625 -41.390625 C 43.625 -43.171875 44.394531 -44.914062 45.21875 -46.625 C 46.050781 -48.332031 46.941406 -50.015625 47.890625 -51.671875 C 48.441406 -52.828125 48.78125 -54.046875 48.90625 -55.328125 C 49.03125 -56.609375 49.457031 -57.84375 50.1875 -59.03125 Z M 50.1875 -59.03125 "/></g></g></g><g fill="#f8e559" fill-opacity="1"><g transform="translate(386.214606, 477.354413)"><g><path d="M 148.6875 -189.859375 C 149.46875 -190.316406 150.03125 -190.601562 150.375 -190.71875 C 150.664062 -190.445312 150.898438 -190.191406 151.078125 -189.953125 C 151.253906 -189.722656 151.429688 -189.351562 151.609375 -188.84375 C 151.253906 -188.164062 150.875 -187.46875 150.46875 -186.75 C 150.0625 -186.039062 149.6875 -185.347656 149.34375 -184.671875 C 149.1875 -184.046875 149.140625 -183.359375 149.203125 -182.609375 C 149.273438 -181.867188 149.234375 -181.1875 149.078125 -180.5625 C 148.898438 -179.945312 148.6875 -179.3125 148.4375 -178.65625 C 148.1875 -178 147.925781 -177.523438 147.65625 -177.234375 C 145.8125 -175.453125 144.519531 -173.429688 143.78125 -171.171875 C 143.039062 -168.921875 142.109375 -166.941406 140.984375 -165.234375 C 140.140625 -164.367188 139.394531 -163.632812 138.75 -163.03125 C 138.113281 -162.4375 137.460938 -161.734375 136.796875 -160.921875 C 136.222656 -160.335938 135.816406 -159.578125 135.578125 -158.640625 C 135.335938 -157.703125 134.707031 -157.054688 133.6875 -156.703125 C 133.257812 -155.796875 132.773438 -155.007812 132.234375 -154.34375 C 131.703125 -153.6875 131.1875 -152.988281 130.6875 -152.25 C 130.1875 -151.5 129.710938 -150.804688 129.265625 -150.171875 C 128.816406 -149.546875 128.304688 -148.945312 127.734375 -148.375 C 126.453125 -147.164062 125.171875 -145.957031 123.890625 -144.75 C 123.316406 -144.175781 122.789062 -143.613281 122.3125 -143.0625 C 121.84375 -142.519531 121.238281 -141.9375 120.5 -141.3125 C 120.0625 -140.957031 119.617188 -140.460938 119.171875 -139.828125 C 118.722656 -139.203125 118.269531 -138.71875 117.8125 -138.375 C 117.257812 -137.8125 116.757812 -137.210938 116.3125 -136.578125 C 115.875 -135.941406 115.226562 -135.476562 114.375 -135.1875 C 114.207031 -134.550781 113.84375 -134.085938 113.28125 -133.796875 C 112.71875 -133.503906 112.210938 -133.1875 111.765625 -132.84375 C 111.253906 -132.664062 110.828125 -132.378906 110.484375 -131.984375 C 110.148438 -131.585938 109.847656 -131.242188 109.578125 -130.953125 C 109.234375 -130.828125 108.863281 -130.648438 108.46875 -130.421875 C 108.070312 -130.191406 107.738281 -129.9375 107.46875 -129.65625 C 106.84375 -128.675781 106.109375 -127.894531 105.265625 -127.3125 C 104.429688 -126.738281 103.566406 -126.109375 102.671875 -125.421875 C 101.929688 -124.785156 101.195312 -124.007812 100.46875 -123.09375 C 99.75 -122.175781 99.023438 -121.398438 98.296875 -120.765625 C 97.554688 -120.128906 96.847656 -119.550781 96.171875 -119.03125 C 95.492188 -118.507812 94.765625 -118.019531 93.984375 -117.5625 C 93.304688 -117.320312 92.8125 -116.957031 92.5 -116.46875 C 92.195312 -115.988281 91.820312 -115.578125 91.375 -115.234375 C 90.695312 -115.003906 90.117188 -114.753906 89.640625 -114.484375 C 89.160156 -114.222656 88.753906 -113.75 88.421875 -113.0625 C 88.304688 -112.832031 88.035156 -112.644531 87.609375 -112.5 C 87.191406 -112.351562 86.722656 -112.191406 86.203125 -112.015625 C 85.828125 -111.492188 85.523438 -111.007812 85.296875 -110.5625 C 84.960938 -110.445312 84.582031 -110.3125 84.15625 -110.15625 C 83.738281 -110.007812 83.359375 -109.878906 83.015625 -109.765625 C 82.796875 -109.304688 82.628906 -108.960938 82.515625 -108.734375 C 82.398438 -108.503906 82.289062 -108.273438 82.1875 -108.046875 C 81.664062 -107.867188 81.148438 -107.691406 80.640625 -107.515625 C 80.140625 -107.335938 79.632812 -107.160156 79.125 -106.984375 C 78.6875 -106.640625 78.34375 -106.28125 78.09375 -105.90625 C 77.84375 -105.539062 77.492188 -105.179688 77.046875 -104.828125 C 75.898438 -104.253906 75.132812 -103.710938 74.75 -103.203125 C 74.53125 -102.734375 74.191406 -102.46875 73.734375 -102.40625 C 73.285156 -102.34375 72.925781 -102.171875 72.65625 -101.890625 C 72.144531 -101.710938 71.789062 -101.347656 71.59375 -100.796875 C 71.394531 -100.253906 71.007812 -99.976562 70.4375 -99.96875 C 69.375 -99.789062 68.679688 -99.078125 68.359375 -97.828125 C 67.679688 -97.585938 67.039062 -97.363281 66.4375 -97.15625 C 65.84375 -96.957031 65.296875 -96.769531 64.796875 -96.59375 C 64.671875 -96.363281 64.515625 -96.117188 64.328125 -95.859375 C 64.140625 -95.597656 64.019531 -95.273438 63.96875 -94.890625 C 63.625 -94.765625 63.28125 -94.644531 62.9375 -94.53125 C 62.601562 -94.414062 62.265625 -94.296875 61.921875 -94.171875 C 61.628906 -93.890625 61.300781 -93.585938 60.9375 -93.265625 C 60.582031 -92.953125 60.265625 -92.65625 59.984375 -92.375 C 59.765625 -91.914062 59.488281 -91.484375 59.15625 -91.078125 C 58.820312 -90.671875 58.546875 -90.238281 58.328125 -89.78125 C 58.390625 -89.613281 58.460938 -89.398438 58.546875 -89.140625 C 58.640625 -88.890625 58.742188 -88.597656 58.859375 -88.265625 C 58.515625 -87.578125 58.09375 -86.859375 57.59375 -86.109375 C 57.09375 -85.367188 56.765625 -84.6875 56.609375 -84.0625 C 56.722656 -83.144531 56.585938 -82.285156 56.203125 -81.484375 C 55.828125 -80.691406 55.550781 -79.988281 55.375 -79.375 C 55.613281 -78.695312 55.820312 -78.097656 56 -77.578125 C 56.175781 -77.066406 56.378906 -76.476562 56.609375 -75.8125 C 57.585938 -75.1875 58.601562 -74.582031 59.65625 -74 C 60.707031 -73.414062 61.804688 -72.847656 62.953125 -72.296875 C 63.128906 -71.234375 63.800781 -70.664062 64.96875 -70.59375 C 66.144531 -70.519531 66.851562 -69.859375 67.09375 -68.609375 C 68.863281 -67.316406 70.46875 -65.828125 71.90625 -64.140625 C 73.351562 -62.460938 74.992188 -60.898438 76.828125 -59.453125 C 76.609375 -58.421875 76.984375 -57.742188 77.953125 -57.421875 C 78.921875 -57.097656 79.46875 -56.484375 79.59375 -55.578125 C 79.65625 -55.398438 79.710938 -55.222656 79.765625 -55.046875 C 79.828125 -54.878906 79.921875 -54.625 80.046875 -54.28125 C 80.265625 -54.175781 80.488281 -54.066406 80.71875 -53.953125 C 80.945312 -53.847656 81.289062 -53.679688 81.75 -53.453125 C 81.863281 -53.117188 81.992188 -52.738281 82.140625 -52.3125 C 82.285156 -51.894531 82.421875 -51.515625 82.546875 -51.171875 C 82.773438 -51.066406 83.019531 -50.914062 83.28125 -50.71875 C 83.539062 -50.519531 83.785156 -50.363281 84.015625 -50.25 C 84.191406 -49.738281 84.335938 -49.3125 84.453125 -48.96875 C 84.578125 -48.632812 84.695312 -48.300781 84.8125 -47.96875 C 85.269531 -47.75 85.609375 -47.582031 85.828125 -47.46875 C 86.054688 -47.363281 86.285156 -47.253906 86.515625 -47.140625 C 86.742188 -46.460938 86.945312 -45.867188 87.125 -45.359375 C 87.300781 -44.847656 87.476562 -44.335938 87.65625 -43.828125 C 87.894531 -43.722656 88.140625 -43.570312 88.390625 -43.375 C 88.648438 -43.175781 89.007812 -42.96875 89.46875 -42.75 C 89.707031 -42.082031 89.972656 -41.320312 90.265625 -40.46875 C 90.554688 -39.613281 90.851562 -38.765625 91.15625 -37.921875 C 91.601562 -37.703125 92.171875 -37.425781 92.859375 -37.09375 C 93.097656 -36.414062 93.363281 -35.648438 93.65625 -34.796875 C 93.945312 -33.953125 94.210938 -33.191406 94.453125 -32.515625 C 94.898438 -32.285156 95.382812 -31.976562 95.90625 -31.59375 C 96.132812 -30.914062 96.394531 -30.148438 96.6875 -29.296875 C 96.988281 -28.441406 97.257812 -27.675781 97.5 -27 C 97.789062 -26.726562 98.09375 -26.550781 98.40625 -26.46875 C 98.71875 -26.394531 98.988281 -26.300781 99.21875 -26.1875 C 99.507812 -25.332031 99.800781 -24.484375 100.09375 -23.640625 C 100.394531 -22.796875 100.660156 -22.035156 100.890625 -21.359375 C 101.117188 -21.242188 101.34375 -21.128906 101.5625 -21.015625 C 101.789062 -20.898438 102.023438 -20.789062 102.265625 -20.6875 C 102.679688 -19.488281 103.109375 -18.253906 103.546875 -16.984375 C 103.984375 -15.722656 104.410156 -14.492188 104.828125 -13.296875 C 105.273438 -13.078125 105.816406 -12.890625 106.453125 -12.734375 C 106.617188 -12.234375 106.804688 -11.6875 107.015625 -11.09375 C 107.222656 -10.5 107.414062 -9.941406 107.59375 -9.421875 C 107.875 -9.140625 108.144531 -8.898438 108.40625 -8.703125 C 108.664062 -8.515625 109.019531 -8.3125 109.46875 -8.09375 C 109.644531 -7.582031 109.835938 -7.03125 110.046875 -6.4375 C 110.253906 -5.84375 110.472656 -5.207031 110.703125 -4.53125 C 110.929688 -4.40625 111.160156 -4.289062 111.390625 -4.1875 C 111.617188 -4.082031 111.851562 -3.972656 112.09375 -3.859375 C 112.332031 -3.179688 112.539062 -2.585938 112.71875 -2.078125 C 112.894531 -1.566406 113.097656 -0.972656 113.328125 -0.296875 C 113.960938 -0.140625 114.535156 0.132812 115.046875 0.53125 C 115.335938 1.375 115.613281 2.175781 115.875 2.9375 C 116.144531 3.695312 116.425781 4.503906 116.71875 5.359375 C 117.40625 5.691406 117.972656 5.96875 118.421875 6.1875 C 118.597656 6.695312 118.789062 7.25 119 7.84375 C 119.207031 8.4375 119.425781 9.070312 119.65625 9.75 C 120.125 9.96875 120.664062 10.164062 121.28125 10.34375 C 121.394531 10.675781 121.539062 11.09375 121.71875 11.59375 C 121.894531 12.101562 122.039062 12.53125 122.15625 12.875 C 122.851562 13.207031 123.429688 13.484375 123.890625 13.703125 C 124.066406 14.210938 124.226562 14.679688 124.375 15.109375 C 124.519531 15.535156 124.5625 15.941406 124.5 16.328125 C 124.738281 17.003906 125.113281 17.394531 125.625 17.5 C 126.144531 17.613281 126.492188 17.925781 126.671875 18.4375 C 126.960938 18.707031 127.132812 19.070312 127.1875 19.53125 C 127.25 19.988281 127.429688 20.359375 127.734375 20.640625 C 128.578125 20.910156 129.207031 21.640625 129.625 22.828125 C 129.738281 23.160156 129.976562 23.453125 130.34375 23.703125 C 130.71875 23.953125 131.191406 24.359375 131.765625 24.921875 C 131.765625 24.921875 131.835938 25.128906 131.984375 25.546875 C 132.140625 25.972656 132.273438 26.359375 132.390625 26.703125 C 132.617188 26.816406 132.859375 26.972656 133.109375 27.171875 C 133.367188 27.367188 133.613281 27.519531 133.84375 27.625 C 133.96875 27.96875 134.101562 28.347656 134.25 28.765625 C 134.394531 29.191406 134.46875 29.40625 134.46875 29.40625 C 135.320312 30.25 136.050781 30.988281 136.65625 31.625 C 137.269531 32.269531 137.976562 32.925781 138.78125 33.59375 C 139.289062 34 139.804688 34.535156 140.328125 35.203125 C 140.847656 35.878906 141.535156 36.359375 142.390625 36.640625 C 143.460938 37.015625 144.363281 37.695312 145.09375 38.6875 C 145.820312 39.675781 146.753906 40.160156 147.890625 40.140625 C 149.242188 40.234375 150.4375 40.53125 151.46875 41.03125 C 152.5 41.53125 153.582031 42.054688 154.71875 42.609375 C 154.71875 42.609375 155.007812 42.890625 155.59375 43.453125 C 155.65625 44.179688 155.597656 44.578125 155.421875 44.640625 C 155.160156 45.492188 154.789062 46.332031 154.3125 47.15625 C 153.832031 47.988281 153.457031 48.832031 153.1875 49.6875 C 152.175781 50.039062 151.160156 50.394531 150.140625 50.75 C 149.117188 51.101562 148.1875 51.425781 147.34375 51.71875 C 146.945312 51.675781 146.488281 51.597656 145.96875 51.484375 C 145.457031 51.378906 145.035156 51.382812 144.703125 51.5 C 143.503906 51.34375 142.445312 50.757812 141.53125 49.75 C 141.175781 49.300781 140.753906 48.78125 140.265625 48.1875 C 139.785156 47.601562 139.316406 47.203125 138.859375 46.984375 C 138.179688 46.640625 137.78125 46.15625 137.65625 45.53125 C 137.53125 44.914062 137.207031 44.414062 136.6875 44.03125 C 136.28125 43.40625 135.78125 42.910156 135.1875 42.546875 C 134.59375 42.179688 134.003906 41.722656 133.421875 41.171875 C 133.242188 40.660156 133.050781 40.109375 132.84375 39.515625 C 132.644531 38.929688 132.457031 38.382812 132.28125 37.875 C 131.976562 37.582031 131.671875 37.394531 131.359375 37.3125 C 131.054688 37.238281 130.757812 37.0625 130.46875 36.78125 C 130.289062 36.269531 130.097656 35.71875 129.890625 35.125 C 129.679688 34.53125 129.488281 33.984375 129.3125 33.484375 C 128.863281 33.253906 128.265625 32.890625 127.515625 32.390625 C 127.398438 32.046875 127.269531 31.660156 127.125 31.234375 C 126.976562 30.816406 126.84375 30.4375 126.71875 30.09375 C 126.269531 29.875 125.929688 29.707031 125.703125 29.59375 C 125.128906 29.03125 124.765625 28.394531 124.609375 27.6875 C 124.460938 26.988281 124.15625 26.238281 123.6875 25.4375 C 123.519531 25.5 123.363281 25.460938 123.21875 25.328125 C 123.082031 25.191406 122.925781 25.15625 122.75 25.21875 C 122.175781 24.65625 121.867188 24.046875 121.828125 23.390625 C 121.796875 22.742188 121.609375 22.191406 121.265625 21.734375 C 120.984375 21.453125 120.664062 21.226562 120.3125 21.0625 C 119.96875 20.90625 119.648438 20.679688 119.359375 20.390625 C 119.179688 19.878906 119.035156 19.457031 118.921875 19.125 C 118.804688 18.789062 118.691406 18.453125 118.578125 18.109375 C 118.347656 18.003906 118.113281 17.894531 117.875 17.78125 C 117.644531 17.664062 117.421875 17.554688 117.203125 17.453125 C 116.910156 16.597656 116.628906 15.789062 116.359375 15.03125 C 116.097656 14.269531 115.847656 13.550781 115.609375 12.875 C 114.921875 12.539062 114.320312 12.175781 113.8125 11.78125 C 113.695312 11.4375 113.566406 11.050781 113.421875 10.625 C 113.273438 10.207031 113.144531 9.832031 113.03125 9.5 C 112.625 9.445312 112.050781 9.164062 111.3125 8.65625 C 111.195312 8.320312 111.066406 7.941406 110.921875 7.515625 C 110.773438 7.085938 110.640625 6.703125 110.515625 6.359375 C 109.828125 6.035156 109.222656 5.679688 108.703125 5.296875 C 108.523438 4.785156 108.332031 4.234375 108.125 3.640625 C 107.925781 3.054688 107.707031 2.421875 107.46875 1.734375 C 106.332031 1.742188 105.710938 1.195312 105.609375 0.09375 C 105.515625 -1.007812 104.957031 -1.664062 103.9375 -1.875 C 103.476562 -2.675781 103.085938 -3.539062 102.765625 -4.46875 C 102.441406 -5.40625 102.046875 -6.265625 101.578125 -7.046875 C 101.347656 -7.148438 101.132812 -7.21875 100.9375 -7.25 C 100.738281 -7.28125 100.492188 -7.4375 100.203125 -7.71875 C 100.078125 -8.0625 99.925781 -8.484375 99.75 -8.984375 C 99.582031 -9.492188 99.410156 -10.003906 99.234375 -10.515625 C 99.109375 -10.847656 98.988281 -11.179688 98.875 -11.515625 C 98.757812 -11.859375 98.644531 -12.195312 98.53125 -12.53125 C 98.132812 -12.59375 97.820312 -12.675781 97.59375 -12.78125 C 97.363281 -12.894531 97.132812 -13.007812 96.90625 -13.125 C 96.789062 -13.46875 96.65625 -13.847656 96.5 -14.265625 C 96.351562 -14.691406 96.222656 -15.070312 96.109375 -15.40625 C 95.828125 -15.6875 95.570312 -15.878906 95.34375 -15.984375 C 95.113281 -16.097656 94.878906 -16.210938 94.640625 -16.328125 C 94.460938 -16.828125 94.3125 -17.25 94.1875 -17.59375 C 94.070312 -17.9375 93.925781 -18.363281 93.75 -18.875 C 93.53125 -18.988281 93.320312 -19.054688 93.125 -19.078125 C 92.925781 -19.109375 92.707031 -19.179688 92.46875 -19.296875 C 91.90625 -19.847656 91.585938 -20.488281 91.515625 -21.21875 C 91.453125 -21.957031 91.132812 -22.609375 90.5625 -23.171875 C 90.5 -23.347656 90.367188 -23.445312 90.171875 -23.46875 C 89.972656 -23.5 89.757812 -23.566406 89.53125 -23.671875 C 88.957031 -24.234375 88.648438 -24.976562 88.609375 -25.90625 C 88.566406 -26.84375 88.09375 -27.539062 87.1875 -28 C 86.332031 -28.269531 85.882812 -28.867188 85.84375 -29.796875 C 85.800781 -30.734375 85.1875 -31.28125 84 -31.4375 C 83.976562 -32.570312 83.535156 -33.414062 82.671875 -33.96875 C 81.816406 -34.53125 81.210938 -35.320312 80.859375 -36.34375 C 80.742188 -36.675781 80.484375 -37.007812 80.078125 -37.34375 C 79.679688 -37.6875 79.226562 -38.054688 78.71875 -38.453125 C 78.132812 -39.003906 77.597656 -39.570312 77.109375 -40.15625 C 76.617188 -40.75 76.222656 -41.472656 75.921875 -42.328125 C 75.742188 -42.835938 75.316406 -43.253906 74.640625 -43.578125 C 73.960938 -43.910156 73.332031 -44.359375 72.75 -44.921875 C 72.164062 -45.484375 71.671875 -46.070312 71.265625 -46.6875 C 70.867188 -47.3125 70.328125 -47.785156 69.640625 -48.109375 C 68.898438 -48.609375 68.367188 -49.179688 68.046875 -49.828125 C 67.734375 -50.484375 67.175781 -50.867188 66.375 -50.984375 C 66.300781 -51.722656 65.976562 -52.226562 65.40625 -52.5 C 64.84375 -52.78125 64.25 -53 63.625 -53.15625 C 63.164062 -53.375 62.789062 -53.765625 62.5 -54.328125 C 62.207031 -54.898438 61.71875 -55.351562 61.03125 -55.6875 C 60.175781 -55.957031 59.40625 -56.398438 58.71875 -57.015625 C 58.03125 -57.628906 57.316406 -58.1875 56.578125 -58.6875 C 55.828125 -59.195312 55.007812 -59.628906 54.125 -59.984375 C 53.25 -60.335938 52.351562 -60.734375 51.4375 -61.171875 C 50.863281 -61.160156 50.425781 -60.910156 50.125 -60.421875 C 49.820312 -59.941406 49.554688 -59.476562 49.328125 -59.03125 C 49.273438 -58.625 49.25 -58.132812 49.25 -57.5625 C 49.257812 -57 49.15625 -56.488281 48.9375 -56.03125 C 48.882812 -55.632812 48.707031 -55.191406 48.40625 -54.703125 C 48.101562 -54.210938 47.84375 -53.742188 47.625 -53.296875 C 47.351562 -52.441406 47.207031 -51.628906 47.1875 -50.859375 C 47.164062 -50.085938 46.898438 -49.332031 46.390625 -48.59375 C 46.460938 -47.289062 46.207031 -46.113281 45.625 -45.0625 C 45.050781 -44.007812 44.488281 -42.898438 43.9375 -41.734375 C 44.226562 -40.890625 44.375 -40.46875 44.375 -40.46875 C 43.976562 -39.96875 43.835938 -39.40625 43.953125 -38.78125 C 44.078125 -38.15625 44.03125 -37.617188 43.8125 -37.171875 C 43.3125 -36.410156 43.007812 -35.628906 42.90625 -34.828125 C 42.800781 -34.035156 42.703125 -33.242188 42.609375 -32.453125 C 42.429688 -31.835938 42.390625 -31.253906 42.484375 -30.703125 C 42.585938 -30.160156 42.351562 -29.609375 41.78125 -29.046875 C 41 -28.015625 40.867188 -27.015625 41.390625 -26.046875 C 40.835938 -25.484375 40.601562 -24.929688 40.6875 -24.390625 C 40.78125 -23.859375 40.832031 -23.304688 40.84375 -22.734375 C 40.582031 -21.304688 40.328125 -19.976562 40.078125 -18.75 C 39.835938 -17.53125 39.75 -16.269531 39.8125 -14.96875 C 39.875 -14.800781 39.820312 -14.546875 39.65625 -14.203125 C 39.5 -13.859375 39.367188 -13.570312 39.265625 -13.34375 C 39.378906 -13 39.507812 -12.613281 39.65625 -12.1875 C 39.800781 -11.769531 39.960938 -11.304688 40.140625 -10.796875 C 39.910156 -10.335938 39.601562 -9.851562 39.21875 -9.34375 C 39.28125 -8.601562 39.5 -7.820312 39.875 -7 C 40.257812 -6.1875 40.597656 -5.351562 40.890625 -4.5 C 40.671875 -4.050781 40.453125 -3.59375 40.234375 -3.125 C 40.242188 -2.570312 40.390625 -2.007812 40.671875 -1.4375 C 40.960938 -0.875 41.113281 -0.3125 41.125 0.25 C 40.976562 1.445312 40.78125 2.65625 40.53125 3.875 C 40.289062 5.101562 39.722656 6.34375 38.828125 7.59375 C 38.492188 7.71875 38.03125 7.878906 37.4375 8.078125 C 36.84375 8.285156 36.289062 8.476562 35.78125 8.65625 C 35 9.695312 34.28125 10.898438 33.625 12.265625 C 32.476562 12.285156 31.460938 11.972656 30.578125 11.328125 C 29.691406 10.679688 28.738281 10.25 27.71875 10.03125 C 27.539062 10.09375 27.328125 10.164062 27.078125 10.25 C 26.828125 10.34375 26.613281 10.421875 26.4375 10.484375 C 26.09375 10.035156 25.648438 9.570312 25.109375 9.09375 C 24.566406 8.625 23.972656 8.019531 23.328125 7.28125 C 23.671875 6.59375 23.921875 5.9375 24.078125 5.3125 C 23.898438 4.800781 23.753906 4.375 23.640625 4.03125 C 23.523438 3.695312 23.40625 3.363281 23.28125 3.03125 C 23.945312 1.664062 24.609375 0.300781 25.265625 -1.0625 C 25.929688 -2.4375 26.601562 -3.816406 27.28125 -5.203125 C 27.21875 -5.367188 27.15625 -5.535156 27.09375 -5.703125 C 27.039062 -5.867188 26.984375 -6.039062 26.921875 -6.21875 C 27.296875 -7.300781 27.734375 -8.351562 28.234375 -9.375 C 28.734375 -10.40625 29.148438 -11.257812 29.484375 -11.9375 C 29.640625 -13.144531 29.738281 -14.226562 29.78125 -15.1875 C 29.832031 -16.144531 30.109375 -17 30.609375 -17.75 C 31.046875 -18.664062 31.242188 -19.585938 31.203125 -20.515625 C 31.160156 -21.453125 31.394531 -22.296875 31.90625 -23.046875 C 32.40625 -23.785156 32.609375 -24.566406 32.515625 -25.390625 C 32.421875 -26.210938 32.625 -27 33.125 -27.75 C 33.625 -28.488281 33.847656 -29.320312 33.796875 -30.25 C 33.753906 -31.1875 34.070312 -32.054688 34.75 -32.859375 C 34.6875 -34.171875 34.800781 -35.492188 35.09375 -36.828125 C 35.394531 -38.160156 35.785156 -39.488281 36.265625 -40.8125 C 35.921875 -41.820312 36.140625 -42.695312 36.921875 -43.4375 C 37.703125 -44.1875 37.804688 -45.128906 37.234375 -46.265625 C 37.734375 -47.015625 37.960938 -47.851562 37.921875 -48.78125 C 37.878906 -49.71875 38.109375 -50.5625 38.609375 -51.3125 C 39.398438 -52.34375 39.582031 -53.734375 39.15625 -55.484375 C 39.15625 -56.054688 39.332031 -56.640625 39.6875 -57.234375 C 40.050781 -57.835938 39.945312 -58.421875 39.375 -58.984375 C 39.757812 -59.503906 40.046875 -60.03125 40.234375 -60.5625 C 40.429688 -61.101562 40.695312 -61.71875 41.03125 -62.40625 C 40.6875 -62.863281 40.457031 -63.257812 40.34375 -63.59375 C 39.875 -63.8125 39.398438 -63.789062 38.921875 -63.53125 C 38.453125 -63.269531 37.820312 -63.191406 37.03125 -63.296875 C 36.800781 -63.398438 36.367188 -63.535156 35.734375 -63.703125 C 34.890625 -63.410156 34.085938 -63.128906 33.328125 -62.859375 C 32.566406 -62.597656 31.765625 -62.320312 30.921875 -62.03125 C 30.679688 -62.132812 30.332031 -62.300781 29.875 -62.53125 C 29.070312 -62.632812 28.671875 -62.6875 28.671875 -62.6875 C 27.484375 -62.28125 26.378906 -61.898438 25.359375 -61.546875 C 24.335938 -61.191406 23.238281 -60.804688 22.0625 -60.390625 C 21.957031 -60.171875 21.847656 -59.941406 21.734375 -59.703125 C 21.617188 -59.460938 21.539062 -59.148438 21.5 -58.765625 C 20.132812 -58.296875 18.734375 -57.804688 17.296875 -57.296875 C 15.859375 -56.796875 14.457031 -56.3125 13.09375 -55.84375 C 12.644531 -54.9375 12.367188 -54.363281 12.265625 -54.125 C 11.929688 -54.007812 11.492188 -53.90625 10.953125 -53.8125 C 10.410156 -53.726562 9.921875 -53.507812 9.484375 -53.15625 C 9.128906 -53.03125 8.796875 -52.726562 8.484375 -52.25 C 8.179688 -51.769531 7.773438 -51.441406 7.265625 -51.265625 C 6.546875 -50.628906 5.742188 -50.488281 4.859375 -50.84375 C 3.972656 -51.207031 3.078125 -51.328125 2.171875 -51.203125 C 1.691406 -52.566406 0.890625 -53.238281 -0.234375 -53.21875 C -1.367188 -53.207031 -2.484375 -53.390625 -3.578125 -53.765625 C -3.796875 -53.878906 -3.976562 -54.003906 -4.125 -54.140625 C -4.269531 -54.273438 -4.457031 -54.40625 -4.6875 -54.53125 C -4.914062 -55.195312 -5.175781 -55.957031 -5.46875 -56.8125 C -5.769531 -57.664062 -6.035156 -58.429688 -6.265625 -59.109375 C -6.210938 -59.492188 -6.085938 -59.816406 -5.890625 -60.078125 C -5.703125 -60.335938 -5.546875 -60.582031 -5.421875 -60.8125 C -5.546875 -61.144531 -5.695312 -61.566406 -5.875 -62.078125 C -5.425781 -63.003906 -5.007812 -63.863281 -4.625 -64.65625 C -4.25 -65.457031 -3.894531 -66.195312 -3.5625 -66.875 C -2.894531 -67.675781 -2.191406 -68.394531 -1.453125 -69.03125 C -0.722656 -69.664062 -0.191406 -70.332031 0.140625 -71.03125 C 0.640625 -71.757812 1.34375 -72.1875 2.25 -72.3125 C 3.15625 -72.445312 3.71875 -73.023438 3.9375 -74.046875 C 4.445312 -74.222656 4.992188 -74.410156 5.578125 -74.609375 C 6.171875 -74.816406 6.8125 -75.039062 7.5 -75.28125 C 7.601562 -75.5 7.738281 -75.78125 7.90625 -76.125 C 8.070312 -76.46875 8.210938 -76.753906 8.328125 -76.984375 C 9.847656 -77.515625 11.414062 -78.054688 13.03125 -78.609375 C 14.644531 -79.171875 16.210938 -79.71875 17.734375 -80.25 C 17.847656 -80.476562 17.960938 -80.707031 18.078125 -80.9375 C 18.191406 -81.164062 18.351562 -81.503906 18.5625 -81.953125 C 19.238281 -82.191406 20 -82.457031 20.84375 -82.75 C 21.6875 -83.050781 22.539062 -83.347656 23.40625 -83.640625 C 23.789062 -84.160156 24.007812 -84.617188 24.0625 -85.015625 C 25.019531 -85.535156 26.066406 -85.945312 27.203125 -86.25 C 28.335938 -86.550781 29.378906 -86.960938 30.328125 -87.484375 C 30.429688 -87.710938 30.539062 -87.941406 30.65625 -88.171875 C 30.769531 -88.398438 30.882812 -88.625 31 -88.84375 C 31.84375 -89.144531 32.773438 -89.46875 33.796875 -89.8125 C 34.816406 -90.164062 35.75 -90.492188 36.59375 -90.796875 C 37.09375 -91.535156 37.535156 -92.160156 37.921875 -92.671875 C 38.773438 -92.972656 39.664062 -93.285156 40.59375 -93.609375 C 41.53125 -93.929688 42.503906 -94.269531 43.515625 -94.625 C 43.796875 -94.914062 43.992188 -95.171875 44.109375 -95.390625 C 44.222656 -95.617188 44.421875 -95.875 44.703125 -96.15625 C 45.210938 -96.332031 45.765625 -96.523438 46.359375 -96.734375 C 46.953125 -96.941406 47.5 -97.132812 48 -97.3125 C 48.507812 -98.0625 48.765625 -98.4375 48.765625 -98.4375 C 49.148438 -98.957031 49.265625 -99.566406 49.109375 -100.265625 C 48.960938 -100.972656 49.003906 -101.5625 49.234375 -102.03125 C 49.453125 -102.476562 49.710938 -102.941406 50.015625 -103.421875 C 50.316406 -103.910156 50.378906 -104.410156 50.203125 -104.921875 C 50.191406 -105.492188 50.367188 -106.082031 50.734375 -106.6875 C 51.097656 -107.289062 50.988281 -107.867188 50.40625 -108.421875 C 51.09375 -109.222656 51.484375 -110.164062 51.578125 -111.25 C 51.679688 -112.332031 51.863281 -113.300781 52.125 -114.15625 C 52.570312 -115.0625 52.882812 -115.925781 53.0625 -116.75 C 53.25 -117.582031 53.488281 -118.425781 53.78125 -119.28125 C 54.0625 -120.132812 54.222656 -121.039062 54.265625 -122 C 54.304688 -122.96875 54.660156 -123.847656 55.328125 -124.640625 C 54.972656 -125.671875 55.085938 -126.570312 55.671875 -127.34375 C 56.265625 -128.113281 56.5 -128.953125 56.375 -129.859375 C 56.238281 -130.765625 56.519531 -131.578125 57.21875 -132.296875 C 57.925781 -133.015625 57.992188 -133.941406 57.421875 -135.078125 C 58.085938 -135.878906 58.425781 -136.800781 58.4375 -137.84375 C 58.457031 -138.894531 58.691406 -139.878906 59.140625 -140.796875 C 59.804688 -141.597656 60.085938 -142.550781 59.984375 -143.65625 C 59.878906 -144.757812 60.164062 -145.722656 60.84375 -146.546875 C 60.945312 -147.335938 61.148438 -148.113281 61.453125 -148.875 C 61.753906 -149.632812 61.960938 -150.414062 62.078125 -151.21875 C 62.234375 -151.84375 62.429688 -152.484375 62.671875 -153.140625 C 62.921875 -153.796875 63.097656 -154.523438 63.203125 -155.328125 C 63.296875 -156.117188 63.453125 -156.882812 63.671875 -157.625 C 63.898438 -158.363281 64.179688 -159.070312 64.515625 -159.75 C 64.734375 -160.78125 64.804688 -161.804688 64.734375 -162.828125 C 64.671875 -163.847656 64.882812 -164.734375 65.375 -165.484375 C 65.8125 -166.398438 66.066406 -167.296875 66.140625 -168.171875 C 66.210938 -169.054688 66.304688 -169.894531 66.421875 -170.6875 C 66.367188 -170.851562 66.285156 -171.101562 66.171875 -171.4375 C 68.210938 -175.382812 70.28125 -179.53125 72.375 -183.875 C 72.550781 -183.9375 72.820312 -184.125 73.1875 -184.4375 C 73.5625 -184.75 74.023438 -185.195312 74.578125 -185.78125 C 75.253906 -186.019531 76.054688 -186.300781 76.984375 -186.625 C 77.910156 -186.945312 78.972656 -187.3125 80.171875 -187.71875 C 80.921875 -187.21875 81.75 -186.742188 82.65625 -186.296875 C 83.5625 -185.859375 84.59375 -185.363281 85.75 -184.8125 C 86.09375 -184.351562 86.8125 -183.648438 87.90625 -182.703125 C 87.96875 -182.535156 88.070312 -182.238281 88.21875 -181.8125 C 88.363281 -181.394531 88.492188 -181.019531 88.609375 -180.6875 C 88.273438 -179.988281 88.003906 -179.410156 87.796875 -178.953125 C 88.023438 -178.273438 88.171875 -177.851562 88.234375 -177.6875 C 88.460938 -177.007812 88.578125 -176.671875 88.578125 -176.671875 C 87.953125 -175.691406 87.816406 -174.691406 88.171875 -173.671875 C 87.234375 -172.585938 86.769531 -171.335938 86.78125 -169.921875 C 86.800781 -168.515625 86.332031 -167.257812 85.375 -166.15625 C 85.4375 -165.976562 85.507812 -165.765625 85.59375 -165.515625 C 85.675781 -165.265625 85.75 -165.050781 85.8125 -164.875 C 85.375 -163.96875 84.90625 -163 84.40625 -161.96875 C 83.914062 -160.945312 83.394531 -159.859375 82.84375 -158.703125 C 83.082031 -157.472656 82.894531 -156.367188 82.28125 -155.390625 C 81.664062 -154.421875 81.164062 -153.390625 80.78125 -152.296875 C 80.84375 -152.117188 80.898438 -151.945312 80.953125 -151.78125 C 81.015625 -151.613281 81.101562 -151.363281 81.21875 -151.03125 C 80.507812 -149.832031 79.859375 -148.5625 79.265625 -147.21875 C 78.679688 -145.875 78.0625 -144.519531 77.40625 -143.15625 C 77.46875 -142.988281 77.523438 -142.820312 77.578125 -142.65625 C 77.640625 -142.488281 77.703125 -142.316406 77.765625 -142.140625 C 77.109375 -140.773438 76.445312 -139.40625 75.78125 -138.03125 C 75.113281 -136.65625 74.441406 -135.285156 73.765625 -133.921875 C 73.828125 -133.753906 73.882812 -133.582031 73.9375 -133.40625 C 74 -133.238281 74.09375 -132.984375 74.21875 -132.640625 C 73.65625 -131.492188 73.046875 -130.238281 72.390625 -128.875 C 71.734375 -127.507812 71.039062 -126.222656 70.3125 -125.015625 C 70.425781 -124.671875 70.507812 -124.414062 70.5625 -124.25 C 70.625 -124.082031 70.6875 -123.910156 70.75 -123.734375 C 70.476562 -122.316406 69.96875 -121.046875 69.21875 -119.921875 C 68.46875 -118.804688 67.960938 -117.539062 67.703125 -116.125 C 67.546875 -114.9375 67.191406 -113.769531 66.640625 -112.625 C 66.085938 -111.476562 65.53125 -110.332031 64.96875 -109.1875 C 65.082031 -108.851562 65.375 -108.296875 65.84375 -107.515625 C 66.226562 -108.023438 66.585938 -108.625 66.921875 -109.3125 C 67.929688 -109.664062 68.945312 -110.015625 69.96875 -110.359375 C 70.988281 -110.710938 71.921875 -111.039062 72.765625 -111.34375 C 72.992188 -111.789062 73.21875 -112.242188 73.4375 -112.703125 C 74.0625 -113.109375 74.375 -113.3125 74.375 -113.3125 C 75.050781 -113.550781 75.726562 -113.785156 76.40625 -114.015625 C 77.082031 -114.253906 77.757812 -114.488281 78.4375 -114.71875 C 78.539062 -114.945312 78.648438 -115.175781 78.765625 -115.40625 C 78.878906 -115.632812 79.078125 -115.894531 79.359375 -116.1875 C 79.816406 -116.539062 80.382812 -116.832031 81.0625 -117.0625 C 81.738281 -117.300781 82.328125 -117.507812 82.828125 -117.6875 C 82.992188 -117.738281 83.269531 -118.304688 83.65625 -119.390625 C 84.007812 -119.503906 84.394531 -119.632812 84.8125 -119.78125 C 85.238281 -119.9375 85.734375 -120.019531 86.296875 -120.03125 C 86.972656 -120.257812 87.363281 -120.628906 87.46875 -121.140625 C 87.570312 -121.648438 87.878906 -121.992188 88.390625 -122.171875 C 88.847656 -122.515625 89.34375 -122.734375 89.875 -122.828125 C 90.414062 -122.921875 90.941406 -123.054688 91.453125 -123.234375 C 91.554688 -123.460938 91.914062 -124.0625 92.53125 -125.03125 C 93.039062 -125.207031 93.59375 -125.394531 94.1875 -125.59375 C 94.78125 -125.800781 95.332031 -125.992188 95.84375 -126.171875 C 95.945312 -126.410156 96.097656 -126.65625 96.296875 -126.90625 C 96.492188 -127.164062 96.613281 -127.488281 96.65625 -127.875 C 97.332031 -128.113281 97.96875 -128.335938 98.5625 -128.546875 C 99.164062 -128.753906 99.722656 -128.945312 100.234375 -129.125 C 100.617188 -129.65625 100.925781 -130.144531 101.15625 -130.59375 C 101.832031 -130.832031 102.460938 -131.050781 103.046875 -131.25 C 103.640625 -131.457031 104.195312 -131.648438 104.71875 -131.828125 C 104.820312 -132.066406 104.929688 -132.296875 105.046875 -132.515625 C 105.160156 -132.742188 105.269531 -132.972656 105.375 -133.203125 C 105.9375 -133.773438 106.609375 -134.148438 107.390625 -134.328125 C 108.179688 -134.515625 108.691406 -135.117188 108.921875 -136.140625 C 109.828125 -136.253906 110.472656 -136.566406 110.859375 -137.078125 C 111.242188 -137.597656 111.742188 -138.066406 112.359375 -138.484375 C 112.984375 -138.878906 113.460938 -139.421875 113.796875 -140.109375 C 114.128906 -140.796875 114.664062 -141.175781 115.40625 -141.25 C 116.132812 -141.300781 116.648438 -141.710938 116.953125 -142.484375 C 117.265625 -143.265625 117.90625 -143.632812 118.875 -143.59375 L 121.96875 -146.9375 C 122.238281 -147.789062 122.738281 -148.535156 123.46875 -149.171875 C 124.207031 -149.804688 124.828125 -150.5 125.328125 -151.25 C 125.492188 -151.300781 125.789062 -151.398438 126.21875 -151.546875 C 126.644531 -151.703125 127.113281 -151.863281 127.625 -152.03125 C 127.664062 -152.4375 127.78125 -152.910156 127.96875 -153.453125 C 128.164062 -153.992188 128.378906 -154.488281 128.609375 -154.9375 C 129.117188 -155.113281 129.582031 -155.273438 130 -155.421875 C 130.425781 -155.566406 130.890625 -155.726562 131.390625 -155.90625 C 131.953125 -157.0625 132.46875 -158.191406 132.9375 -159.296875 C 133.40625 -160.410156 134.171875 -161.34375 135.234375 -162.09375 C 135.453125 -163.113281 136.023438 -163.925781 136.953125 -164.53125 C 137.890625 -165.144531 138.457031 -165.957031 138.65625 -166.96875 C 139.101562 -167.894531 139.578125 -168.867188 140.078125 -169.890625 C 140.578125 -170.921875 141.046875 -171.894531 141.484375 -172.8125 C 141.660156 -172.863281 141.832031 -172.921875 142 -172.984375 C 142.164062 -173.046875 142.332031 -173.101562 142.5 -173.15625 C 143.632812 -174.300781 144.25 -175.554688 144.34375 -176.921875 C 144.4375 -178.285156 144.757812 -179.546875 145.3125 -180.703125 C 145.863281 -181.847656 146.441406 -183.046875 147.046875 -184.296875 C 147.660156 -185.546875 148.332031 -186.769531 149.0625 -187.96875 C 148.9375 -188.3125 148.867188 -188.628906 148.859375 -188.921875 C 148.859375 -189.210938 148.800781 -189.523438 148.6875 -189.859375 Z M 145.703125 -224.71875 C 146.390625 -224.375 146.957031 -224.097656 147.40625 -223.890625 C 148.289062 -221.359375 149.160156 -218.859375 150.015625 -216.390625 C 150.867188 -213.929688 151.738281 -211.429688 152.625 -208.890625 C 152.625 -208.890625 152.679688 -208.71875 152.796875 -208.375 C 152.679688 -208.144531 152.570312 -207.914062 152.46875 -207.6875 C 152.363281 -207.457031 152.335938 -207.257812 152.390625 -207.09375 C 152.234375 -206.457031 152.300781 -205.859375 152.59375 -205.296875 C 152.882812 -204.742188 153.03125 -204.179688 153.03125 -203.609375 C 153.101562 -202.867188 153.066406 -202.140625 152.921875 -201.421875 C 152.785156 -200.710938 152.976562 -199.882812 153.5 -198.9375 C 153 -198.1875 152.503906 -197.445312 152.015625 -196.71875 C 151.390625 -196.875 151.070312 -197.234375 151.0625 -197.796875 C 151.050781 -198.367188 150.875 -198.875 150.53125 -199.3125 C 150.863281 -200 151.140625 -200.570312 151.359375 -201.03125 C 151.117188 -201.707031 150.894531 -202.34375 150.6875 -202.9375 C 150.476562 -203.539062 150.285156 -204.097656 150.109375 -204.609375 C 150.285156 -205.222656 150.476562 -205.757812 150.6875 -206.21875 C 149.976562 -208.257812 149.269531 -210.296875 148.5625 -212.328125 C 147.863281 -214.359375 147.1875 -216.304688 146.53125 -218.171875 C 146.3125 -218.285156 145.941406 -218.539062 145.421875 -218.9375 C 144.835938 -220.0625 144.144531 -221.097656 143.34375 -222.046875 C 142.539062 -223.003906 141.488281 -223.734375 140.1875 -224.234375 C 139.71875 -224.453125 139.351562 -224.796875 139.09375 -225.265625 C 138.832031 -225.742188 138.472656 -226.097656 138.015625 -226.328125 C 136.984375 -227.109375 135.867188 -227.578125 134.671875 -227.734375 C 133.484375 -227.890625 132.375 -228.078125 131.34375 -228.296875 C 130.320312 -228.503906 129.382812 -228.597656 128.53125 -228.578125 C 127.6875 -228.566406 126.8125 -228.785156 125.90625 -229.234375 C 125.382812 -229.054688 124.828125 -228.863281 124.234375 -228.65625 C 123.640625 -228.445312 123.09375 -228.253906 122.59375 -228.078125 C 122.1875 -228.140625 121.828125 -228.210938 121.515625 -228.296875 C 121.203125 -228.378906 120.898438 -228.5625 120.609375 -228.84375 C 118.742188 -228.195312 116.921875 -227.566406 115.140625 -226.953125 C 113.359375 -226.335938 111.617188 -225.734375 109.921875 -225.140625 C 109.703125 -225.242188 109.476562 -225.347656 109.25 -225.453125 C 109.03125 -225.566406 108.804688 -225.679688 108.578125 -225.796875 C 108.234375 -225.671875 107.804688 -225.519531 107.296875 -225.34375 C 106.785156 -225.164062 106.359375 -225.019531 106.015625 -224.90625 C 105.910156 -224.675781 105.800781 -224.445312 105.6875 -224.21875 C 105.582031 -224 105.46875 -223.773438 105.34375 -223.546875 C 103.644531 -222.960938 101.90625 -222.359375 100.125 -221.734375 C 98.351562 -221.117188 96.535156 -220.488281 94.671875 -219.84375 C 94.335938 -219.144531 93.976562 -218.535156 93.59375 -218.015625 C 92.914062 -217.773438 92.191406 -217.519531 91.421875 -217.25 C 90.660156 -216.988281 89.859375 -216.710938 89.015625 -216.421875 C 88.910156 -216.203125 88.773438 -215.921875 88.609375 -215.578125 C 88.441406 -215.234375 88.300781 -214.945312 88.1875 -214.71875 C 87.332031 -214.425781 86.523438 -214.144531 85.765625 -213.875 C 85.003906 -213.613281 84.203125 -213.335938 83.359375 -213.046875 C 83.023438 -212.367188 82.742188 -211.796875 82.515625 -211.328125 C 81.828125 -211.097656 81.226562 -210.894531 80.71875 -210.71875 C 80.21875 -210.539062 79.628906 -210.332031 78.953125 -210.09375 C 78.617188 -209.40625 78.316406 -208.921875 78.046875 -208.640625 C 77.523438 -208.460938 77.007812 -208.285156 76.5 -208.109375 C 76 -207.929688 75.492188 -207.753906 74.984375 -207.578125 C 74.765625 -207.128906 74.488281 -206.703125 74.15625 -206.296875 C 73.820312 -205.890625 73.398438 -205.597656 72.890625 -205.421875 C 71.867188 -205.066406 71.0625 -204.503906 70.46875 -203.734375 C 69.882812 -202.960938 69.085938 -202.398438 68.078125 -202.046875 C 67.984375 -201.253906 67.5625 -200.820312 66.8125 -200.75 C 66.070312 -200.6875 65.59375 -200.425781 65.375 -199.96875 C 64.9375 -199.613281 64.503906 -199.222656 64.078125 -198.796875 C 63.648438 -198.367188 63.09375 -198.039062 62.40625 -197.8125 C 62.132812 -197.519531 61.832031 -197.171875 61.5 -196.765625 C 61.164062 -196.367188 60.769531 -196 60.3125 -195.65625 C 59.96875 -195.539062 59.597656 -195.363281 59.203125 -195.125 C 58.816406 -194.894531 58.4375 -194.519531 58.0625 -194 C 57.71875 -193.3125 57.109375 -192.859375 56.234375 -192.640625 C 55.359375 -192.429688 54.78125 -191.90625 54.5 -191.0625 C 53.363281 -191.039062 52.570312 -190.570312 52.125 -189.65625 C 51.6875 -188.75 51.046875 -188.148438 50.203125 -187.859375 C 49.992188 -186.835938 49.332031 -186.273438 48.21875 -186.171875 C 47.113281 -186.078125 46.484375 -185.429688 46.328125 -184.234375 C 45.484375 -183.941406 44.863281 -183.394531 44.46875 -182.59375 C 44.082031 -181.789062 43.40625 -181.410156 42.4375 -181.453125 C 42.269531 -181.390625 42.101562 -181.332031 41.9375 -181.28125 C 41.539062 -180.769531 41.117188 -180.195312 40.671875 -179.5625 C 40.234375 -178.9375 39.789062 -178.445312 39.34375 -178.09375 C 38.769531 -177.53125 38.117188 -177.070312 37.390625 -176.71875 C 36.660156 -176.375 36.046875 -175.828125 35.546875 -175.078125 C 35.148438 -174.554688 34.644531 -174.09375 34.03125 -173.6875 C 33.414062 -173.28125 32.992188 -172.851562 32.765625 -172.40625 C 32.378906 -171.3125 31.773438 -170.71875 30.953125 -170.625 C 30.140625 -170.53125 29.476562 -170.113281 28.96875 -169.375 C 28.519531 -168.457031 27.847656 -167.648438 26.953125 -166.953125 C 26.054688 -166.265625 25.300781 -165.4375 24.6875 -164.46875 C 23.945312 -164.40625 23.425781 -163.984375 23.125 -163.203125 C 22.820312 -162.429688 22.222656 -161.984375 21.328125 -161.859375 C 20.066406 -161.617188 19.140625 -160.734375 18.546875 -159.203125 C 18.148438 -158.679688 17.710938 -158.289062 17.234375 -158.03125 C 16.765625 -157.769531 16.363281 -157.296875 16.03125 -156.609375 C 15.625 -156.097656 15.171875 -155.609375 14.671875 -155.140625 C 14.171875 -154.679688 13.613281 -154.25 13 -153.84375 C 12.601562 -153.332031 12.164062 -152.800781 11.6875 -152.25 C 11.207031 -151.707031 10.742188 -151.257812 10.296875 -150.90625 C 9.734375 -150.34375 9.273438 -149.757812 8.921875 -149.15625 C 8.566406 -148.5625 8.050781 -148.144531 7.375 -147.90625 C 6.90625 -147.5625 6.546875 -147.054688 6.296875 -146.390625 C 6.054688 -145.734375 5.539062 -145.460938 4.75 -145.578125 C 4.632812 -144.773438 4.253906 -144.210938 3.609375 -143.890625 C 2.972656 -143.578125 2.484375 -143.078125 2.140625 -142.390625 C 1.921875 -141.929688 1.554688 -141.613281 1.046875 -141.4375 C 0.546875 -141.257812 0.0390625 -141.082031 -0.46875 -140.90625 C -0.800781 -140.226562 -1.109375 -139.738281 -1.390625 -139.4375 C -1.898438 -139.257812 -2.410156 -139.082031 -2.921875 -138.90625 C -3.429688 -138.738281 -3.941406 -138.566406 -4.453125 -138.390625 C -5.523438 -138.210938 -6.28125 -138.472656 -6.71875 -139.171875 C -7.15625 -139.867188 -7.707031 -140.390625 -8.375 -140.734375 C -8.601562 -140.847656 -8.804688 -140.875 -8.984375 -140.8125 C -9.160156 -140.757812 -9.414062 -140.671875 -9.75 -140.546875 C -10.4375 -140.867188 -11.078125 -141.210938 -11.671875 -141.578125 C -12.273438 -141.941406 -12.953125 -142.375 -13.703125 -142.875 C -13.703125 -142.875 -13.785156 -142.984375 -13.953125 -143.203125 C -14.117188 -143.421875 -14.179688 -143.734375 -14.140625 -144.140625 C -13.929688 -145.742188 -13.796875 -147.410156 -13.734375 -149.140625 C -13.671875 -150.867188 -13.140625 -152.472656 -12.140625 -153.953125 C -11.742188 -154.472656 -11.289062 -154.960938 -10.78125 -155.421875 C -10.28125 -155.878906 -9.867188 -156.453125 -9.546875 -157.140625 C -9.378906 -157.765625 -8.925781 -158.25 -8.1875 -158.59375 C -7.445312 -158.945312 -7.023438 -159.53125 -6.921875 -160.34375 C -6.828125 -161.132812 -6.492188 -161.671875 -5.921875 -161.953125 C -5.359375 -162.242188 -4.972656 -162.625 -4.765625 -163.09375 C -4.359375 -163.601562 -3.90625 -164.085938 -3.40625 -164.546875 C -2.90625 -165.003906 -2.375 -165.519531 -1.8125 -166.09375 C -0.96875 -166.957031 -0.113281 -167.773438 0.75 -168.546875 C 1.625 -169.328125 2.367188 -170.207031 2.984375 -171.1875 C 3.546875 -171.75 4.148438 -172.050781 4.796875 -172.09375 C 5.453125 -172.132812 5.863281 -172.46875 6.03125 -173.09375 C 6.1875 -173.707031 6.546875 -174.160156 7.109375 -174.453125 C 7.671875 -174.753906 8.144531 -175.160156 8.53125 -175.671875 C 8.695312 -176.296875 9.078125 -176.710938 9.671875 -176.921875 C 10.265625 -177.128906 10.613281 -177.632812 10.71875 -178.4375 C 11.625 -178.550781 12.359375 -178.894531 12.921875 -179.46875 C 13.484375 -180.050781 14.046875 -180.628906 14.609375 -181.203125 C 15.066406 -181.546875 15.53125 -181.988281 16 -182.53125 C 16.46875 -183.082031 17.039062 -183.472656 17.71875 -183.703125 C 18.34375 -184.109375 18.921875 -184.640625 19.453125 -185.296875 C 19.984375 -185.953125 20.53125 -186.570312 21.09375 -187.15625 C 21.476562 -187.675781 22.039062 -188.109375 22.78125 -188.453125 C 23.519531 -188.804688 24.164062 -189.269531 24.71875 -189.84375 C 25.164062 -190.1875 25.671875 -190.503906 26.234375 -190.796875 C 26.796875 -191.085938 27.238281 -191.578125 27.5625 -192.265625 C 27.625 -192.660156 27.992188 -192.832031 28.671875 -192.78125 C 29.359375 -192.738281 29.785156 -193.03125 29.953125 -193.65625 C 30.109375 -194.269531 30.46875 -194.722656 31.03125 -195.015625 C 31.601562 -195.304688 32.082031 -195.710938 32.46875 -196.234375 C 32.800781 -196.921875 33.40625 -197.367188 34.28125 -197.578125 C 35.164062 -197.785156 35.738281 -198.316406 36 -199.171875 C 36.78125 -199.648438 37.566406 -199.972656 38.359375 -200.140625 C 39.160156 -200.316406 39.703125 -200.832031 39.984375 -201.6875 C 41.609375 -202.445312 42.875 -203.460938 43.78125 -204.734375 C 43.882812 -204.953125 44.117188 -205.078125 44.484375 -205.109375 C 44.859375 -205.148438 45.21875 -205.226562 45.5625 -205.34375 C 45.664062 -205.570312 45.816406 -205.8125 46.015625 -206.0625 C 46.210938 -206.320312 46.332031 -206.648438 46.375 -207.046875 C 47.0625 -207.285156 47.65625 -207.492188 48.15625 -207.671875 C 48.664062 -207.847656 49.175781 -208.023438 49.6875 -208.203125 C 50.414062 -208.828125 51.046875 -209.46875 51.578125 -210.125 C 52.117188 -210.789062 52.671875 -211.414062 53.234375 -212 C 53.566406 -212.113281 53.988281 -212.257812 54.5 -212.4375 C 55.007812 -212.613281 55.601562 -212.820312 56.28125 -213.0625 C 56.382812 -213.28125 56.488281 -213.503906 56.59375 -213.734375 C 56.695312 -213.972656 56.984375 -214.265625 57.453125 -214.609375 C 57.960938 -214.785156 58.597656 -215.003906 59.359375 -215.265625 C 60.117188 -215.535156 60.921875 -215.816406 61.765625 -216.109375 C 61.867188 -216.328125 62.003906 -216.609375 62.171875 -216.953125 C 62.347656 -217.296875 62.628906 -217.722656 63.015625 -218.234375 C 63.523438 -218.410156 64.078125 -218.601562 64.671875 -218.8125 C 65.265625 -219.019531 65.816406 -219.210938 66.328125 -219.390625 C 66.609375 -219.671875 66.800781 -219.925781 66.90625 -220.15625 C 67.019531 -220.382812 67.132812 -220.613281 67.25 -220.84375 C 68.09375 -221.132812 69.019531 -221.457031 70.03125 -221.8125 C 71.050781 -222.164062 72.070312 -222.519531 73.09375 -222.875 C 73.207031 -223.101562 73.359375 -223.347656 73.546875 -223.609375 C 73.742188 -223.867188 73.867188 -224.195312 73.921875 -224.59375 C 75.109375 -225.007812 76.296875 -225.421875 77.484375 -225.828125 C 78.671875 -226.242188 79.859375 -226.660156 81.046875 -227.078125 C 81.328125 -227.359375 81.601562 -227.925781 81.875 -228.78125 C 85.945312 -230.1875 89.972656 -231.582031 93.953125 -232.96875 C 97.941406 -234.351562 101.882812 -235.722656 105.78125 -237.078125 C 106.019531 -236.972656 106.25 -236.863281 106.46875 -236.75 C 106.695312 -236.644531 107.039062 -236.476562 107.5 -236.25 C 108.175781 -236.488281 108.9375 -236.753906 109.78125 -237.046875 C 110.632812 -237.335938 111.398438 -237.601562 112.078125 -237.84375 C 112.472656 -237.789062 112.785156 -237.707031 113.015625 -237.59375 C 113.242188 -237.488281 113.582031 -237.320312 114.03125 -237.09375 C 114.375 -237.207031 114.84375 -237.367188 115.4375 -237.578125 C 116.03125 -237.785156 116.582031 -237.976562 117.09375 -238.15625 C 117.425781 -238.269531 117.59375 -238.328125 117.59375 -238.328125 C 118.40625 -237.660156 119.160156 -237.539062 119.859375 -237.96875 C 120.566406 -238.40625 121.175781 -238.429688 121.6875 -238.046875 C 122.320312 -237.878906 122.945312 -237.859375 123.5625 -237.984375 C 124.1875 -238.109375 124.753906 -237.972656 125.265625 -237.578125 C 125.671875 -237.523438 126.054688 -237.515625 126.421875 -237.546875 C 126.796875 -237.585938 127.175781 -237.582031 127.5625 -237.53125 C 128.257812 -237.1875 128.90625 -236.832031 129.5 -236.46875 C 130.101562 -236.113281 130.828125 -236.085938 131.671875 -236.390625 C 132.523438 -236.109375 133.363281 -235.734375 134.1875 -235.265625 C 135.019531 -234.796875 135.78125 -234.394531 136.46875 -234.0625 C 137.28125 -233.382812 137.957031 -232.664062 138.5 -231.90625 C 139.050781 -231.15625 139.753906 -230.640625 140.609375 -230.359375 C 141.523438 -229.921875 142.238281 -229.363281 142.75 -228.6875 C 143.257812 -228.007812 143.976562 -227.445312 144.90625 -227 C 145.019531 -226.664062 145.148438 -226.285156 145.296875 -225.859375 C 145.441406 -225.441406 145.578125 -225.0625 145.703125 -224.71875 Z M 145.703125 -224.71875 "/></g></g></g><g fill="#f8e559" fill-opacity="1"><g transform="translate(541.612164, 423.398597)"><g><path d="M 55.890625 -92.640625 C 56.066406 -92.703125 56.492188 -92.570312 57.171875 -92.25 C 57.179688 -91.675781 57.097656 -91.363281 56.921875 -91.3125 C 56.941406 -90.738281 56.753906 -90.191406 56.359375 -89.671875 C 55.960938 -89.148438 55.882812 -88.550781 56.125 -87.875 C 56.289062 -87.375 56.179688 -86.863281 55.796875 -86.34375 C 55.410156 -85.832031 55.195312 -85.378906 55.15625 -84.984375 C 54.976562 -84.359375 54.894531 -83.757812 54.90625 -83.1875 C 54.914062 -82.613281 54.726562 -82.070312 54.34375 -81.5625 C 54.582031 -79.757812 54.414062 -78.039062 53.84375 -76.40625 C 53.269531 -74.78125 52.878906 -73.171875 52.671875 -71.578125 C 51.929688 -70.953125 51.679688 -70.296875 51.921875 -69.609375 C 52.160156 -68.929688 52.03125 -68.21875 51.53125 -67.46875 C 51.019531 -66.738281 50.75 -65.609375 50.71875 -64.078125 C 50.726562 -63.492188 50.507812 -62.882812 50.0625 -62.25 C 49.613281 -61.625 49.453125 -60.863281 49.578125 -59.96875 C 49.753906 -59.457031 49.601562 -58.925781 49.125 -58.375 C 48.644531 -57.832031 48.410156 -57.28125 48.421875 -56.71875 C 48.441406 -55.582031 48.375 -54.554688 48.21875 -53.640625 C 48.0625 -52.734375 47.757812 -51.828125 47.3125 -50.921875 C 46.863281 -49.992188 46.628906 -49.003906 46.609375 -47.953125 C 46.597656 -46.898438 46.257812 -45.976562 45.59375 -45.1875 C 46.21875 -44.457031 46.222656 -43.742188 45.609375 -43.046875 C 45.003906 -42.359375 45.019531 -41.648438 45.65625 -40.921875 C 45.476562 -40.304688 45.164062 -39.679688 44.71875 -39.046875 C 44.269531 -38.410156 44.078125 -37.726562 44.140625 -37 C 44.316406 -36.476562 44.226562 -35.914062 43.875 -35.3125 C 43.519531 -34.71875 43.257812 -34.109375 43.09375 -33.484375 C 43.5 -32.867188 43.453125 -32.191406 42.953125 -31.453125 C 42.453125 -30.710938 42.488281 -30.054688 43.0625 -29.484375 C 42.332031 -28.285156 41.859375 -27.03125 41.640625 -25.71875 C 41.429688 -24.414062 41.367188 -23.109375 41.453125 -21.796875 C 40.609375 -20.929688 40.179688 -19.832031 40.171875 -18.5 C 40.160156 -17.164062 39.765625 -15.984375 38.984375 -14.953125 C 38.753906 -14.503906 38.726562 -14.023438 38.90625 -13.515625 C 39.082031 -13.003906 38.976562 -12.492188 38.59375 -11.984375 C 38.90625 -9.984375 38.644531 -8.273438 37.8125 -6.859375 C 37.363281 -5.941406 37.144531 -5.054688 37.15625 -4.203125 C 37.164062 -3.347656 36.945312 -2.46875 36.5 -1.5625 C 36.625 -1.226562 36.757812 -0.847656 36.90625 -0.421875 C 37.050781 0.00390625 37.179688 0.382812 37.296875 0.71875 C 36.628906 1.53125 36.285156 2.457031 36.265625 3.5 C 36.253906 4.550781 36.023438 5.535156 35.578125 6.453125 C 35.078125 7.191406 34.644531 8.003906 34.28125 8.890625 C 33.925781 9.785156 33.382812 10.546875 32.65625 11.171875 C 31.925781 11.816406 31.351562 12.632812 30.9375 13.625 C 30.53125 14.625 30.019531 15.609375 29.40625 16.578125 C 28.382812 16.359375 27.398438 15.984375 26.453125 15.453125 C 25.503906 14.929688 24.492188 14.484375 23.421875 14.109375 C 23.085938 14.222656 22.75 14.335938 22.40625 14.453125 C 22.070312 14.566406 21.648438 14.710938 21.140625 14.890625 C 20.859375 14.617188 20.613281 14.328125 20.40625 14.015625 C 20.195312 13.703125 19.945312 13.40625 19.65625 13.125 C 19.425781 13.007812 19.253906 12.925781 19.140625 12.875 C 19.023438 12.820312 18.851562 12.734375 18.625 12.609375 C 18.21875 11.429688 17.804688 10.25 17.390625 9.0625 C 16.984375 7.875 16.570312 6.6875 16.15625 5.5 C 16.375 5.050781 16.566406 4.515625 16.734375 3.890625 C 16.503906 3.203125 16.238281 2.4375 15.9375 1.59375 C 15.644531 0.75 15.382812 -0.0078125 15.15625 -0.6875 C 15.375 -1.15625 15.535156 -1.5 15.640625 -1.71875 C 15.753906 -1.945312 15.867188 -2.179688 15.984375 -2.421875 C 15.753906 -3.097656 15.503906 -3.816406 15.234375 -4.578125 C 14.972656 -5.335938 14.691406 -6.144531 14.390625 -7 C 14.503906 -7.21875 14.753906 -7.875 15.140625 -8.96875 C 14.953125 -9.476562 14.753906 -10.023438 14.546875 -10.609375 C 14.347656 -11.203125 14.160156 -11.753906 13.984375 -12.265625 C 14.035156 -12.648438 14.113281 -12.957031 14.21875 -13.1875 C 14.320312 -13.414062 14.488281 -13.765625 14.71875 -14.234375 C 14.539062 -14.742188 14.347656 -15.296875 14.140625 -15.890625 C 13.941406 -16.484375 13.753906 -17.03125 13.578125 -17.53125 C 13.617188 -17.9375 13.695312 -18.25 13.8125 -18.46875 C 13.925781 -18.695312 14.007812 -19.015625 14.0625 -19.421875 C 13.882812 -19.929688 13.691406 -20.484375 13.484375 -21.078125 C 13.273438 -21.671875 13.054688 -22.304688 12.828125 -22.984375 C 13.054688 -23.429688 13.3125 -23.800781 13.59375 -24.09375 C 13.6875 -24.882812 13.570312 -25.601562 13.25 -26.25 C 12.9375 -26.90625 12.660156 -27.570312 12.421875 -28.25 C 12.523438 -28.476562 12.648438 -28.664062 12.796875 -28.8125 C 12.941406 -28.957031 13.066406 -29.140625 13.171875 -29.359375 C 13.160156 -29.929688 13.035156 -30.554688 12.796875 -31.234375 C 12.566406 -31.921875 12.332031 -32.601562 12.09375 -33.28125 C 12.09375 -33.28125 12.34375 -33.929688 12.84375 -35.234375 C 12.78125 -35.398438 12.660156 -35.738281 12.484375 -36.25 C 12.304688 -36.757812 12.046875 -37.242188 11.703125 -37.703125 C 11.523438 -38.210938 11.585938 -38.707031 11.890625 -39.1875 C 12.203125 -39.675781 12.296875 -40.085938 12.171875 -40.421875 C 11.992188 -40.929688 11.816406 -41.4375 11.640625 -41.9375 C 11.472656 -42.445312 11.269531 -43.046875 11.03125 -43.734375 C 11.132812 -43.960938 11.414062 -44.53125 11.875 -45.4375 C 11.695312 -45.945312 11.503906 -46.5 11.296875 -47.09375 C 11.085938 -47.6875 10.894531 -48.234375 10.71875 -48.734375 C 11 -49.597656 11.25 -50.265625 11.46875 -50.734375 C 11.226562 -51.410156 10.960938 -52.171875 10.671875 -53.015625 C 10.378906 -53.859375 10.113281 -54.617188 9.875 -55.296875 C 9.925781 -55.703125 10.003906 -56.015625 10.109375 -56.234375 C 10.222656 -56.460938 10.421875 -56.722656 10.703125 -57.015625 C 10.523438 -57.523438 10.378906 -57.945312 10.265625 -58.28125 C 10.148438 -58.625 10 -59.050781 9.8125 -59.5625 C 9.925781 -59.78125 10.035156 -60.003906 10.140625 -60.234375 C 10.253906 -60.460938 10.335938 -60.773438 10.390625 -61.171875 C 10.222656 -61.679688 10.046875 -62.191406 9.859375 -62.703125 C 9.679688 -63.210938 9.507812 -63.71875 9.34375 -64.21875 C 9.382812 -64.625 9.53125 -65.015625 9.78125 -65.390625 C 10.03125 -65.765625 10.097656 -66.117188 9.984375 -66.453125 C 9.398438 -67.585938 9.316406 -68.789062 9.734375 -70.0625 C 10.148438 -71.34375 9.8125 -72.460938 8.71875 -73.421875 C 8.769531 -73.828125 8.878906 -74.195312 9.046875 -74.53125 C 9.210938 -74.875 9.347656 -75.15625 9.453125 -75.375 C 9.273438 -75.882812 9.082031 -76.4375 8.875 -77.03125 C 8.675781 -77.625 8.457031 -78.257812 8.21875 -78.9375 C 8.320312 -79.164062 8.457031 -79.453125 8.625 -79.796875 C 8.789062 -80.148438 8.929688 -80.441406 9.046875 -80.671875 C 8.867188 -81.179688 8.675781 -81.726562 8.46875 -82.3125 C 8.257812 -82.90625 8.039062 -83.539062 7.8125 -84.21875 C 8.019531 -84.675781 8.289062 -85.25 8.625 -85.9375 C 8.445312 -86.445312 8.253906 -87 8.046875 -87.59375 C 7.847656 -88.1875 7.628906 -88.816406 7.390625 -89.484375 C 7.503906 -89.710938 7.585938 -89.882812 7.640625 -90 C 7.703125 -90.113281 7.785156 -90.285156 7.890625 -90.515625 C 8.003906 -91.316406 7.925781 -91.957031 7.65625 -92.4375 C 7.394531 -92.914062 7.144531 -93.492188 6.90625 -94.171875 C 7.144531 -94.628906 7.316406 -95.113281 7.421875 -95.625 C 7.523438 -96.132812 7.488281 -96.644531 7.3125 -97.15625 C 7.070312 -97.84375 7.046875 -98.453125 7.234375 -98.984375 C 7.429688 -99.523438 7.523438 -100.078125 7.515625 -100.640625 C 7.335938 -101.148438 7.160156 -101.660156 6.984375 -102.171875 C 6.804688 -102.679688 6.628906 -103.191406 6.453125 -103.703125 C 6.578125 -103.929688 6.769531 -104.472656 7.03125 -105.328125 C 6.90625 -105.671875 6.769531 -106.050781 6.625 -106.46875 C 6.476562 -106.894531 6.347656 -107.273438 6.234375 -107.609375 C 6.503906 -108.460938 6.78125 -109.035156 7.0625 -109.328125 C 6.820312 -110.015625 6.597656 -110.648438 6.390625 -111.234375 C 6.191406 -111.828125 6.03125 -112.296875 5.90625 -112.640625 C 6.070312 -113.253906 6.179688 -113.757812 6.234375 -114.15625 C 6.296875 -114.550781 6.351562 -114.953125 6.40625 -115.359375 C 6.457031 -115.765625 6.535156 -116.222656 6.640625 -116.734375 C 6.753906 -117.242188 6.722656 -117.753906 6.546875 -118.265625 C 6.253906 -119.109375 6.253906 -120.054688 6.546875 -121.109375 C 6.835938 -122.160156 6.722656 -123.171875 6.203125 -124.140625 C 7.035156 -125.003906 7.148438 -125.898438 6.546875 -126.828125 C 5.941406 -127.753906 5.972656 -128.617188 6.640625 -129.421875 C 6.128906 -130.367188 6.078125 -131.34375 6.484375 -132.34375 C 6.898438 -133.34375 6.847656 -134.328125 6.328125 -135.296875 C 5.921875 -135.910156 5.953125 -136.488281 6.421875 -137.03125 C 6.898438 -137.582031 6.851562 -138.132812 6.28125 -138.6875 C 7.0625 -139.738281 7.1875 -140.738281 6.65625 -141.6875 C 7.21875 -142.25 7.394531 -142.828125 7.1875 -143.421875 C 6.988281 -144.015625 7.082031 -144.570312 7.46875 -145.09375 C 8.195312 -146.300781 8.609375 -147.582031 8.703125 -148.9375 C 8.804688 -150.300781 9.414062 -151.554688 10.53125 -152.703125 C 10.695312 -152.765625 11.035156 -152.882812 11.546875 -153.0625 C 12.054688 -153.238281 12.566406 -153.414062 13.078125 -153.59375 C 13.710938 -152.289062 14.207031 -150.988281 14.5625 -149.6875 C 14.925781 -148.394531 15.398438 -147.179688 15.984375 -146.046875 C 16.203125 -145.941406 16.425781 -145.832031 16.65625 -145.71875 C 16.894531 -145.613281 17.125 -145.503906 17.34375 -145.390625 C 17.582031 -144.710938 17.804688 -144.070312 18.015625 -143.46875 C 18.222656 -142.875 18.441406 -142.238281 18.671875 -141.5625 C 18.566406 -141.34375 18.457031 -141.117188 18.34375 -140.890625 C 18.226562 -140.660156 18.148438 -140.34375 18.109375 -139.9375 C 18.578125 -138.582031 19.046875 -137.226562 19.515625 -135.875 C 19.984375 -134.519531 20.453125 -133.160156 20.921875 -131.796875 C 20.648438 -130.941406 20.375 -130.375 20.09375 -130.09375 C 20.570312 -128.738281 21.046875 -127.378906 21.515625 -126.015625 C 21.984375 -124.660156 22.457031 -123.304688 22.9375 -121.953125 C 22.882812 -121.566406 22.800781 -121.253906 22.6875 -121.015625 C 22.570312 -120.773438 22.398438 -120.429688 22.171875 -119.984375 C 22.410156 -119.304688 22.675781 -118.546875 22.96875 -117.703125 C 23.257812 -116.859375 23.523438 -116.097656 23.765625 -115.421875 C 23.710938 -115.003906 23.628906 -114.679688 23.515625 -114.453125 C 23.410156 -114.234375 23.300781 -114.007812 23.1875 -113.78125 C 23.476562 -112.9375 23.757812 -112.128906 24.03125 -111.359375 C 24.300781 -110.597656 24.582031 -109.789062 24.875 -108.9375 C 24.582031 -108.65625 24.273438 -108.171875 23.953125 -107.484375 C 24.191406 -106.804688 24.410156 -106.171875 24.609375 -105.578125 C 24.816406 -104.992188 25.039062 -104.363281 25.28125 -103.6875 C 24.882812 -103.15625 24.582031 -102.664062 24.375 -102.21875 C 24.664062 -101.375 24.957031 -100.53125 25.25 -99.6875 C 25.539062 -98.84375 25.804688 -98.078125 26.046875 -97.390625 C 25.984375 -96.984375 25.898438 -96.664062 25.796875 -96.4375 C 25.691406 -96.21875 25.492188 -95.957031 25.203125 -95.65625 C 25.554688 -94.644531 25.910156 -93.628906 26.265625 -92.609375 C 26.617188 -91.585938 26.972656 -90.570312 27.328125 -89.5625 C 27.210938 -89.34375 27.097656 -89.117188 26.984375 -88.890625 C 26.878906 -88.660156 26.710938 -88.316406 26.484375 -87.859375 C 26.722656 -87.179688 26.988281 -86.414062 27.28125 -85.5625 C 27.570312 -84.71875 27.867188 -83.867188 28.171875 -83.015625 C 28.054688 -82.796875 27.941406 -82.570312 27.828125 -82.34375 C 27.722656 -82.125 27.613281 -81.894531 27.5 -81.65625 C 27.738281 -80.988281 28.003906 -80.226562 28.296875 -79.375 C 28.585938 -78.519531 28.851562 -77.753906 29.09375 -77.078125 C 29.039062 -76.679688 28.960938 -76.367188 28.859375 -76.140625 C 28.753906 -75.910156 28.585938 -75.566406 28.359375 -75.109375 C 28.535156 -74.597656 28.722656 -74.046875 28.921875 -73.453125 C 29.128906 -72.859375 29.351562 -72.222656 29.59375 -71.546875 C 29.375 -71.085938 29.148438 -70.632812 28.921875 -70.1875 C 29.160156 -69.507812 29.425781 -68.742188 29.71875 -67.890625 C 30.007812 -67.046875 30.304688 -66.195312 30.609375 -65.34375 C 30.503906 -65.113281 30.394531 -64.882812 30.28125 -64.65625 C 30.175781 -64.4375 30.003906 -64.097656 29.765625 -63.640625 C 30.003906 -62.960938 30.269531 -62.195312 30.5625 -61.34375 C 30.851562 -60.5 31.117188 -59.738281 31.359375 -59.0625 C 31.023438 -58.375 30.75 -57.800781 30.53125 -57.34375 C 30.769531 -56.65625 30.988281 -56.015625 31.1875 -55.421875 C 31.394531 -54.828125 31.585938 -54.28125 31.765625 -53.78125 C 31.722656 -53.382812 31.644531 -53.070312 31.53125 -52.84375 C 31.414062 -52.613281 31.304688 -52.382812 31.203125 -52.15625 C 31.367188 -51.65625 31.554688 -51.101562 31.765625 -50.5 C 31.972656 -49.90625 32.195312 -49.269531 32.4375 -48.59375 C 32.15625 -48.3125 31.972656 -48.007812 31.890625 -47.6875 C 31.804688 -47.375 31.710938 -47.109375 31.609375 -46.890625 C 31.785156 -46.378906 31.972656 -45.828125 32.171875 -45.234375 C 32.378906 -44.640625 32.601562 -44.003906 32.84375 -43.328125 C 32.738281 -43.097656 32.613281 -42.90625 32.46875 -42.75 C 32.320312 -42.601562 32.28125 -42.445312 32.34375 -42.28125 C 32.25 -41.488281 32.203125 -41.09375 32.203125 -41.09375 C 32.429688 -40.414062 32.675781 -39.691406 32.9375 -38.921875 C 33.207031 -38.160156 33.460938 -37.441406 33.703125 -36.765625 C 33.578125 -36.535156 33.414062 -36.296875 33.21875 -36.046875 C 33.019531 -35.796875 32.894531 -35.46875 32.84375 -35.0625 C 33.25 -35.007812 33.59375 -34.984375 33.875 -34.984375 C 34.164062 -34.992188 34.476562 -35.054688 34.8125 -35.171875 C 34.914062 -35.972656 35.019531 -36.769531 35.125 -37.5625 C 35.238281 -38.351562 35.566406 -39.035156 36.109375 -39.609375 C 36.722656 -40.585938 37.039062 -41.597656 37.0625 -42.640625 C 37.082031 -43.691406 37.3125 -44.671875 37.75 -45.578125 C 38.25 -46.328125 38.71875 -47.160156 39.15625 -48.078125 C 39.601562 -48.992188 39.820312 -50.019531 39.8125 -51.15625 C 39.800781 -51.71875 39.972656 -52.296875 40.328125 -52.890625 C 40.691406 -53.492188 41.070312 -54.0625 41.46875 -54.59375 C 41.96875 -55.332031 42.238281 -56.179688 42.28125 -57.140625 C 42.332031 -58.109375 42.492188 -59.015625 42.765625 -59.859375 C 43.097656 -60.554688 43.515625 -61.273438 44.015625 -62.015625 C 44.515625 -62.765625 44.617188 -63.5625 44.328125 -64.40625 C 44.210938 -64.738281 44.347656 -65.171875 44.734375 -65.703125 C 45.898438 -67.234375 46.613281 -68.992188 46.875 -70.984375 C 47.132812 -72.984375 47.820312 -74.84375 48.9375 -76.5625 C 48.851562 -78.4375 49.316406 -80.113281 50.328125 -81.59375 C 51.335938 -83.082031 52.113281 -84.679688 52.65625 -86.390625 C 52.75 -88.335938 52.875 -89.617188 53.03125 -90.234375 C 53.195312 -90.859375 53.609375 -91.851562 54.265625 -93.21875 C 54.492188 -93.113281 54.765625 -93.019531 55.078125 -92.9375 C 55.390625 -92.863281 55.660156 -92.765625 55.890625 -92.640625 Z M 100.84375 -251.3125 C 101.457031 -251.726562 102.050781 -251.796875 102.625 -251.515625 C 103.195312 -251.234375 103.820312 -250.929688 104.5 -250.609375 C 104.613281 -250.265625 104.757812 -249.835938 104.9375 -249.328125 C 105.113281 -248.828125 105.289062 -248.320312 105.46875 -247.8125 C 105.644531 -247.289062 105.804688 -246.816406 105.953125 -246.390625 C 106.109375 -245.972656 106.242188 -245.597656 106.359375 -245.265625 C 105.703125 -243.890625 105.066406 -242.570312 104.453125 -241.3125 C 103.847656 -240.0625 103.238281 -238.664062 102.625 -237.125 C 102.738281 -237.351562 102.566406 -237.289062 102.109375 -236.9375 C 101.066406 -235.625 100.660156 -234.347656 100.890625 -233.109375 C 100.453125 -232.191406 100.007812 -231.273438 99.5625 -230.359375 C 99.125 -229.453125 98.710938 -228.457031 98.328125 -227.375 C 97.953125 -226.28125 97.453125 -225.25 96.828125 -224.28125 C 96.210938 -223.3125 95.914062 -222.257812 95.9375 -221.125 C 95.769531 -219.925781 95.382812 -218.835938 94.78125 -217.859375 C 94.175781 -216.890625 93.59375 -215.835938 93.03125 -214.703125 C 93.445312 -213.515625 93.222656 -212.390625 92.359375 -211.328125 C 91.492188 -210.265625 91.09375 -209.082031 91.15625 -207.78125 C 91.175781 -206.644531 90.878906 -205.59375 90.265625 -204.625 C 89.648438 -203.65625 89.15625 -202.625 88.78125 -201.53125 C 88.445312 -200.851562 88.28125 -200.515625 88.28125 -200.515625 C 88.800781 -199.554688 88.691406 -198.753906 87.953125 -198.109375 C 87.222656 -197.472656 87.007812 -196.734375 87.3125 -195.890625 C 87.65625 -194.878906 87.4375 -194 86.65625 -193.25 C 85.875 -192.507812 85.75 -191.65625 86.28125 -190.6875 C 86 -189.832031 85.617188 -188.988281 85.140625 -188.15625 C 84.671875 -187.332031 84.414062 -186.441406 84.375 -185.484375 C 84.320312 -184.503906 84.078125 -183.695312 83.640625 -183.0625 C 83.203125 -182.4375 82.84375 -181.695312 82.5625 -180.84375 C 81.988281 -180.84375 81.515625 -180.96875 81.140625 -181.21875 C 80.773438 -181.46875 80.359375 -181.703125 79.890625 -181.921875 C 80.003906 -182.148438 80 -182.429688 79.875 -182.765625 C 79.757812 -183.109375 79.765625 -183.394531 79.890625 -183.625 C 80.222656 -184.3125 80.625 -185.070312 81.09375 -185.90625 C 81.5625 -186.738281 81.757812 -187.519531 81.6875 -188.25 C 81.800781 -189.050781 82.078125 -189.765625 82.515625 -190.390625 C 82.960938 -191.023438 83.191406 -191.625 83.203125 -192.1875 C 83.066406 -193.09375 83.191406 -194.085938 83.578125 -195.171875 C 83.898438 -195.847656 84.210938 -196.570312 84.515625 -197.34375 C 84.828125 -198.125 84.945312 -198.882812 84.875 -199.625 C 84.96875 -200.414062 85.171875 -201.191406 85.484375 -201.953125 C 85.796875 -202.722656 86 -203.507812 86.09375 -204.3125 C 86.257812 -204.9375 86.304688 -205.617188 86.234375 -206.359375 C 86.171875 -207.097656 86.421875 -207.75 86.984375 -208.3125 C 87.535156 -208.894531 87.707031 -209.484375 87.5 -210.078125 C 87.300781 -210.671875 87.398438 -211.226562 87.796875 -211.75 C 88.304688 -212.488281 88.613281 -213.253906 88.71875 -214.046875 C 88.820312 -214.835938 88.921875 -215.628906 89.015625 -216.421875 C 89.179688 -217.066406 89.203125 -217.695312 89.078125 -218.3125 C 88.953125 -218.9375 89.082031 -219.503906 89.46875 -220.015625 C 90.3125 -220.878906 90.472656 -221.789062 89.953125 -222.75 C 91.015625 -224.632812 91.601562 -226.640625 91.71875 -228.765625 C 91.832031 -230.898438 92.101562 -232.988281 92.53125 -235.03125 C 92.800781 -236.46875 92.992188 -237.960938 93.109375 -239.515625 C 93.234375 -241.078125 93.453125 -242.773438 93.765625 -244.609375 C 94.210938 -245.515625 94.710938 -246.535156 95.265625 -247.671875 C 95.816406 -248.816406 96.367188 -249.960938 96.921875 -251.109375 C 97.535156 -251.503906 98.140625 -251.804688 98.734375 -252.015625 C 99.335938 -252.222656 100.039062 -251.988281 100.84375 -251.3125 Z M 79.6875 -178.4375 C 80.488281 -178.34375 81 -178.238281 81.21875 -178.125 C 81.519531 -177.257812 81.671875 -176.828125 81.671875 -176.828125 C 81.273438 -176.316406 81.109375 -175.832031 81.171875 -175.375 C 81.234375 -174.925781 81.269531 -174.421875 81.28125 -173.859375 C 80.945312 -173.171875 80.671875 -172.457031 80.453125 -171.71875 C 80.234375 -170.976562 80.070312 -170.207031 79.96875 -169.40625 C 79.757812 -168.382812 79.390625 -167.40625 78.859375 -166.46875 C 78.335938 -165.53125 77.769531 -164.566406 77.15625 -163.578125 C 77.164062 -162.441406 77.148438 -161.25 77.109375 -160 C 77.078125 -158.757812 76.664062 -157.625 75.875 -156.59375 C 75.195312 -155.78125 74.921875 -154.921875 75.046875 -154.015625 C 75.179688 -153.117188 75 -152.300781 74.5 -151.5625 C 73.488281 -150.050781 72.992188 -148.445312 73.015625 -146.75 C 72.910156 -145.957031 72.632812 -145.242188 72.1875 -144.609375 C 71.738281 -143.972656 71.410156 -143.429688 71.203125 -142.984375 C 71.148438 -142.023438 71.070312 -141.144531 70.96875 -140.34375 C 70.863281 -139.550781 70.785156 -138.671875 70.734375 -137.703125 C 70.523438 -137.242188 70.222656 -136.613281 69.828125 -135.8125 C 69.441406 -135.019531 69.082031 -134.28125 68.75 -133.59375 C 68.195312 -133.007812 67.992188 -132.363281 68.140625 -131.65625 C 68.296875 -130.957031 68.203125 -130.265625 67.859375 -129.578125 C 67.472656 -129.054688 67.140625 -128.507812 66.859375 -127.9375 C 66.585938 -127.375 66.65625 -126.785156 67.0625 -126.171875 C 66.5 -125.597656 66.320312 -125.007812 66.53125 -124.40625 C 66.738281 -123.8125 66.644531 -123.257812 66.25 -122.75 C 65.695312 -121.613281 65.398438 -120.414062 65.359375 -119.15625 C 65.316406 -117.90625 64.90625 -116.769531 64.125 -115.75 C 63.34375 -114.71875 62.875 -113.601562 62.71875 -112.40625 C 62.5625 -111.21875 62.207031 -110.050781 61.65625 -108.90625 C 61.382812 -108.039062 61.140625 -107.238281 60.921875 -106.5 C 60.703125 -105.757812 60.539062 -104.992188 60.4375 -104.203125 C 60.332031 -103.410156 60.171875 -102.640625 59.953125 -101.890625 C 59.734375 -101.148438 59.488281 -100.351562 59.21875 -99.5 C 59.101562 -99.28125 59.078125 -98.941406 59.140625 -98.484375 C 59.203125 -98.035156 59.175781 -97.691406 59.0625 -97.453125 C 58.5625 -97.285156 58.097656 -97.125 57.671875 -96.96875 C 57.242188 -96.820312 56.863281 -96.691406 56.53125 -96.578125 C 56.300781 -96.691406 56.085938 -96.90625 55.890625 -97.21875 C 55.691406 -97.53125 55.414062 -97.90625 55.0625 -98.34375 C 55.34375 -98.625 55.648438 -98.96875 55.984375 -99.375 C 56.316406 -99.78125 56.507812 -100.179688 56.5625 -100.578125 C 56.832031 -101.429688 57.234375 -102.1875 57.765625 -102.84375 C 58.296875 -103.507812 58.472656 -104.378906 58.296875 -105.453125 C 58.066406 -106.128906 58.253906 -106.8125 58.859375 -107.5 C 59.472656 -108.1875 59.71875 -108.984375 59.59375 -109.890625 C 59.363281 -110.566406 59.507812 -111.234375 60.03125 -111.890625 C 60.5625 -112.554688 60.796875 -113.253906 60.734375 -113.984375 C 60.492188 -114.660156 60.523438 -115.242188 60.828125 -115.734375 C 61.140625 -116.222656 61.179688 -116.804688 60.953125 -117.484375 C 60.953125 -118.054688 61.171875 -118.65625 61.609375 -119.28125 C 62.054688 -119.914062 62.21875 -120.6875 62.09375 -121.59375 C 62.082031 -122.15625 62.28125 -122.796875 62.6875 -123.515625 C 63.101562 -124.234375 63.484375 -124.9375 63.828125 -125.625 C 63.992188 -126.25 64.296875 -126.875 64.734375 -127.5 C 65.179688 -128.125 65.460938 -128.835938 65.578125 -129.640625 C 65.785156 -130.097656 65.890625 -130.609375 65.890625 -131.171875 C 65.890625 -131.742188 66.050781 -132.367188 66.375 -133.046875 C 66.53125 -133.679688 66.691406 -134.304688 66.859375 -134.921875 C 67.035156 -135.546875 67.171875 -136.265625 67.265625 -137.078125 C 67.265625 -137.078125 67.117188 -137.5 66.828125 -138.34375 C 67.546875 -139.53125 68.109375 -140.625 68.515625 -141.625 C 68.929688 -142.632812 69.363281 -143.59375 69.8125 -144.5 C 69.625 -145.582031 69.8125 -146.550781 70.375 -147.40625 C 70.9375 -148.257812 71.398438 -149.234375 71.765625 -150.328125 C 71.828125 -150.722656 71.800781 -151.09375 71.6875 -151.4375 C 71.507812 -151.9375 71.644531 -152.5 72.09375 -153.125 C 72.539062 -153.757812 72.476562 -154.351562 71.90625 -154.90625 C 72.789062 -156.75 73.304688 -158.265625 73.453125 -159.453125 C 73.492188 -160.421875 73.820312 -161.390625 74.4375 -162.359375 C 75.050781 -163.335938 75.582031 -164.28125 76.03125 -165.1875 C 76.132812 -165.976562 76.160156 -166.84375 76.109375 -167.78125 C 76.066406 -168.71875 76.269531 -169.648438 76.71875 -170.578125 C 77.269531 -171.710938 77.625 -173.015625 77.78125 -174.484375 C 77.9375 -175.960938 78.570312 -177.28125 79.6875 -178.4375 Z M 79.6875 -178.4375 "/></g></g></g></svg>