<svg xmlns="http://www.w3.org/2000/svg" xmlns:xlink="http://www.w3.org/1999/xlink" width="1080" zoomAndPan="magnify" viewBox="0 0 810 809.999993" height="1080" preserveAspectRatio="xMidYMid meet" version="1.0"><defs><clipPath id="9d9e6a88d8"><path d="M 81 136.078125 L 729 136.078125 L 729 289 L 81 289 Z M 81 136.078125 " clip-rule="nonzero"/></clipPath><clipPath id="3e6e7ad64c"><path d="M 81.003906 226 L 728.996094 226 L 728.996094 673.828125 L 81.003906 673.828125 Z M 81.003906 226 " clip-rule="nonzero"/></clipPath></defs><g clip-path="url(#9d9e6a88d8)"><path fill="#dcca40" d="M 81.003906 288.902344 L 81.003906 194.394531 C 81.003906 162.191406 107.109375 136.082031 139.3125 136.082031 L 264.582031 136.082031 C 276.925781 136.082031 288.949219 140 298.925781 147.269531 L 353.46875 187.023438 L 670.683594 187.023438 C 702.890625 187.023438 728.996094 213.128906 728.996094 245.332031 L 728.996094 288.902344 L 81.003906 288.902344 " fill-opacity="1" fill-rule="nonzero"/></g><g clip-path="url(#3e6e7ad64c)"><path fill="#f8e559" d="M 670.683594 226.117188 L 139.3125 226.117188 C 107.109375 226.117188 81.003906 252.222656 81.003906 284.425781 L 81.003906 615.597656 C 81.003906 647.800781 107.109375 673.902344 139.3125 673.902344 L 670.683594 673.902344 C 702.890625 673.902344 728.996094 647.800781 728.996094 615.597656 L 728.996094 284.425781 C 728.996094 252.222656 702.890625 226.117188 670.683594 226.117188 " fill-opacity="1" fill-rule="nonzero"/></g></svg>