<svg xmlns="http://www.w3.org/2000/svg" xmlns:xlink="http://www.w3.org/1999/xlink" width="1080" zoomAndPan="magnify" viewBox="0 0 810 809.999993" height="1080" preserveAspectRatio="xMidYMid meet" version="1.0"><defs><clipPath id="ec016d9ce0"><path d="M 82 120.691406 L 726 120.691406 L 726 689.191406 L 82 689.191406 Z M 82 120.691406 " clip-rule="nonzero"/></clipPath></defs><g clip-path="url(#ec016d9ce0)"><path fill="#f8e559" d="M 715.445312 307.308594 C 707.722656 298.335938 696.550781 293.191406 684.816406 293.191406 L 340.152344 292.515625 C 325.320312 292.746094 325.277344 314.792969 340.109375 315.078125 C 340.105469 315.078125 684.792969 315.753906 684.792969 315.753906 C 695.632812 315.480469 704.523438 326.359375 702.636719 336.992188 C 702.636719 336.992188 655.582031 651.109375 655.582031 651.109375 C 654.269531 660.023438 646.550781 666.746094 637.660156 666.746094 L 123.015625 665.726562 C 111.5 665.730469 103.179688 654.589844 105.300781 643.5 C 105.300781 643.5 158.546875 330.09375 158.546875 330.09375 C 160.089844 321.199219 167.609375 314.742188 176.402344 314.742188 L 299.601562 314.96875 C 314.453125 314.75 314.449219 292.671875 299.644531 292.402344 C 299.644531 292.402344 183 292.191406 183 292.191406 L 183 262.183594 C 183 253.164062 190.207031 245.832031 199.058594 245.832031 L 643.40625 245.832031 C 652.257812 245.832031 659.460938 253.164062 659.460938 262.183594 C 659.589844 276.996094 681.851562 276.984375 682.023438 262.179688 C 682.023438 240.726562 664.699219 223.269531 643.40625 223.269531 L 199.058594 223.269531 C 177.761719 223.269531 160.4375 240.726562 160.4375 262.183594 L 160.4375 295.601562 C 148.105469 300.933594 138.753906 312.160156 136.308594 326.277344 L 105.296875 508.796875 L 105.296875 152.632812 C 105.296875 147.484375 109.390625 143.289062 114.421875 143.289062 L 224.933594 143.289062 C 227.96875 143.289062 230.796875 144.828125 232.492188 147.398438 L 249.757812 173.582031 C 255.644531 182.511719 265.511719 187.847656 276.15625 187.847656 L 572.925781 187.847656 C 577.957031 187.847656 582.050781 192.039062 582.050781 197.1875 C 582.050781 203.417969 587.101562 208.472656 593.332031 208.472656 C 599.5625 208.472656 604.613281 203.417969 604.613281 197.1875 C 604.613281 179.59375 590.402344 165.28125 572.925781 165.28125 L 276.15625 165.28125 C 273.121094 165.28125 270.292969 163.746094 268.597656 161.167969 L 251.328125 134.976562 C 245.4375 126.054688 235.570312 120.726562 224.933594 120.726562 L 114.421875 120.726562 C 96.945312 120.726562 82.734375 135.039062 82.734375 152.632812 L 82.734375 643.933594 C 81.863281 654.699219 85.011719 665.402344 92.023438 673.746094 C 99.730469 682.917969 110.972656 688.21875 122.925781 688.289062 L 637.640625 689.308594 C 657.664062 689.308594 674.972656 674.296875 677.898438 654.421875 L 724.949219 340.339844 C 726.738281 328.453125 723.28125 316.417969 715.445312 307.308594 Z M 715.445312 307.308594 " fill-opacity="1" fill-rule="nonzero"/></g><path fill="#f8e559" d="M 639.976562 426.617188 C 645.234375 426.617188 649.796875 422.980469 650.96875 417.855469 L 663.089844 365.046875 C 664.835938 358.238281 659.128906 351.0625 652.09375 351.242188 C 652.09375 351.242188 547.625 351.242188 547.625 351.242188 C 542.433594 351.242188 537.917969 354.78125 536.671875 359.816406 L 523.617188 412.621094 C 521.738281 419.484375 527.457031 426.796875 534.570312 426.613281 C 534.570312 426.617188 639.976562 426.617188 639.976562 426.617188 Z M 556.457031 373.808594 L 637.929688 373.808594 L 630.988281 404.050781 L 548.980469 404.050781 Z M 556.457031 373.808594 " fill-opacity="1" fill-rule="nonzero"/></svg>